G04*
G04 #@! TF.GenerationSoftware,Altium Limited,Altium Designer,23.1.1 (15)*
G04*
G04 Layer_Color=16711935*
%FSLAX25Y25*%
%MOIN*%
G70*
G04*
G04 #@! TF.SameCoordinates,590E2446-9614-40E2-9646-AD1B285CD790*
G04*
G04*
G04 #@! TF.FilePolarity,Negative*
G04*
G01*
G75*
%ADD16R,0.04331X0.04134*%
%ADD37C,0.06102*%
%ADD38R,0.06102X0.06102*%
%ADD39C,0.07480*%
%ADD40C,0.16142*%
%ADD41R,0.07087X0.07087*%
%ADD42C,0.07087*%
%ADD43C,0.05236*%
%ADD44C,0.08339*%
%ADD45R,0.06102X0.06102*%
%ADD46C,0.02362*%
%ADD98R,0.06496X0.02756*%
%ADD99R,0.01575X0.06102*%
D16*
X53543Y221063D02*
D03*
Y215158D02*
D03*
Y178937D02*
D03*
Y184843D02*
D03*
D37*
X143819Y119291D02*
D03*
X190157Y264961D02*
D03*
X200157D02*
D03*
X157323D02*
D03*
X147323D02*
D03*
X269134Y202362D02*
D03*
X259134D02*
D03*
X323229Y150906D02*
D03*
Y140905D02*
D03*
Y160906D02*
D03*
X16536Y156614D02*
D03*
Y166614D02*
D03*
Y206614D02*
D03*
Y196614D02*
D03*
Y176614D02*
D03*
Y186614D02*
D03*
D38*
X153819Y119291D02*
D03*
X180157Y264961D02*
D03*
X167323D02*
D03*
X279134Y202362D02*
D03*
D39*
X294488Y33071D02*
D03*
X324488D02*
D03*
X95276D02*
D03*
X65276D02*
D03*
D40*
X379724Y184665D02*
D03*
Y144665D02*
D03*
D41*
X344724Y152165D02*
D03*
D42*
Y172165D02*
D03*
Y162165D02*
D03*
X354724Y177165D02*
D03*
Y157165D02*
D03*
Y167165D02*
D03*
D43*
X245473Y141969D02*
D03*
Y161181D02*
D03*
D44*
X381890Y263779D02*
D03*
X11811D02*
D03*
Y11811D02*
D03*
X381890D02*
D03*
D45*
X323229Y170905D02*
D03*
X16536Y216614D02*
D03*
D46*
X153150Y168898D02*
D03*
X183071Y259055D02*
D03*
X71653Y169291D02*
D03*
X78756Y166141D02*
D03*
X155512Y163386D02*
D03*
X148031Y189764D02*
D03*
X151969D02*
D03*
X156299Y189502D02*
D03*
X167717Y189764D02*
D03*
X152756Y227953D02*
D03*
X240945Y184646D02*
D03*
X161024Y168898D02*
D03*
X157087D02*
D03*
X280315Y150394D02*
D03*
Y153543D02*
D03*
X277559Y150394D02*
D03*
Y153543D02*
D03*
X84357Y175696D02*
D03*
X46063Y210236D02*
D03*
X79528Y226378D02*
D03*
X76378D02*
D03*
X72441Y207874D02*
D03*
X74016Y210630D02*
D03*
X70866D02*
D03*
X272835Y55905D02*
D03*
Y48031D02*
D03*
Y40157D02*
D03*
X264961Y32283D02*
D03*
X252756D02*
D03*
X137402Y31890D02*
D03*
X125197D02*
D03*
X117323Y39764D02*
D03*
Y47638D02*
D03*
Y55512D02*
D03*
X194882Y49606D02*
D03*
Y41732D02*
D03*
Y33858D02*
D03*
Y25984D02*
D03*
Y18110D02*
D03*
X192913Y12992D02*
D03*
X185039D02*
D03*
X177165D02*
D03*
X169291D02*
D03*
X161417D02*
D03*
X153543D02*
D03*
X145669D02*
D03*
Y20866D02*
D03*
Y28740D02*
D03*
Y36614D02*
D03*
Y44488D02*
D03*
X244094Y48425D02*
D03*
Y40551D02*
D03*
Y32677D02*
D03*
Y24803D02*
D03*
Y16929D02*
D03*
X240158Y12992D02*
D03*
X232283D02*
D03*
X224410D02*
D03*
X216535D02*
D03*
X208661D02*
D03*
X200787D02*
D03*
X303622Y36614D02*
D03*
Y33071D02*
D03*
X300079D02*
D03*
Y29528D02*
D03*
X303622D02*
D03*
X290945Y23937D02*
D03*
Y27480D02*
D03*
X294488D02*
D03*
Y23937D02*
D03*
X298031Y27480D02*
D03*
Y23937D02*
D03*
X285354Y36614D02*
D03*
X288898Y33071D02*
D03*
X285354D02*
D03*
X288898Y29528D02*
D03*
X285354D02*
D03*
X333622Y29528D02*
D03*
X330079Y33071D02*
D03*
X333622D02*
D03*
X330079Y36614D02*
D03*
X333622D02*
D03*
X315354Y36614D02*
D03*
X318898D02*
D03*
Y33071D02*
D03*
X315354D02*
D03*
Y29528D02*
D03*
X328032Y42205D02*
D03*
Y38661D02*
D03*
X324488D02*
D03*
Y42205D02*
D03*
X320945Y38661D02*
D03*
Y42205D02*
D03*
X91732Y23937D02*
D03*
Y27480D02*
D03*
X95276Y23937D02*
D03*
Y27480D02*
D03*
X98819D02*
D03*
Y23937D02*
D03*
X86142Y36614D02*
D03*
Y33071D02*
D03*
X89685D02*
D03*
Y29528D02*
D03*
X86142D02*
D03*
X104409Y29528D02*
D03*
X100866D02*
D03*
X104409Y33071D02*
D03*
X100866D02*
D03*
X104409Y36614D02*
D03*
X56142Y36614D02*
D03*
X59685D02*
D03*
X56142Y33071D02*
D03*
X59685D02*
D03*
X56142Y29528D02*
D03*
X68819Y42205D02*
D03*
Y38661D02*
D03*
X65276Y42205D02*
D03*
Y38661D02*
D03*
X61732D02*
D03*
Y42205D02*
D03*
X74410Y36614D02*
D03*
X70866D02*
D03*
Y33071D02*
D03*
X74410D02*
D03*
Y29528D02*
D03*
X45669Y178740D02*
D03*
X44488Y225197D02*
D03*
X97638Y175591D02*
D03*
X105118Y183858D02*
D03*
X105512Y216535D02*
D03*
X60024Y134040D02*
D03*
X275893Y122532D02*
D03*
X215218Y68884D02*
D03*
X84252Y226772D02*
D03*
X147638Y171653D02*
D03*
X84252Y150787D02*
D03*
Y191732D02*
D03*
Y212644D02*
D03*
Y206176D02*
D03*
X275197Y126378D02*
D03*
X284725Y126298D02*
D03*
X195276Y179528D02*
D03*
X166142Y238583D02*
D03*
X200000Y77953D02*
D03*
X41732Y248031D02*
D03*
Y254331D02*
D03*
X36220D02*
D03*
X30709D02*
D03*
X36220Y248031D02*
D03*
X30709D02*
D03*
X260630Y168504D02*
D03*
X267717Y144488D02*
D03*
X297244Y167323D02*
D03*
X296457Y177953D02*
D03*
X272441Y188583D02*
D03*
X268110D02*
D03*
X280709Y195276D02*
D03*
X364961Y222047D02*
D03*
X338976Y222441D02*
D03*
X309449Y149606D02*
D03*
X305906Y153150D02*
D03*
X284842Y184252D02*
D03*
X161024Y144095D02*
D03*
X166142Y83071D02*
D03*
X207480Y103937D02*
D03*
X177559Y109843D02*
D03*
X223228Y83071D02*
D03*
X173622D02*
D03*
X216142Y156299D02*
D03*
X289764Y184252D02*
D03*
D98*
X91339Y226516D02*
D03*
Y216516D02*
D03*
Y221516D02*
D03*
Y231516D02*
D03*
X112598D02*
D03*
Y216516D02*
D03*
Y221516D02*
D03*
Y226516D02*
D03*
X91732Y166673D02*
D03*
Y171673D02*
D03*
Y156673D02*
D03*
Y161673D02*
D03*
X112992Y156673D02*
D03*
Y166673D02*
D03*
Y171673D02*
D03*
Y161673D02*
D03*
X91339Y193839D02*
D03*
X112598Y188839D02*
D03*
Y183839D02*
D03*
Y198839D02*
D03*
Y193839D02*
D03*
X91339Y198839D02*
D03*
Y188839D02*
D03*
Y183839D02*
D03*
D99*
X59449Y220866D02*
D03*
X61417D02*
D03*
X63386D02*
D03*
X65354D02*
D03*
X59449Y203543D02*
D03*
X61417D02*
D03*
X65354D02*
D03*
X67323D02*
D03*
X63386D02*
D03*
X67323Y220866D02*
D03*
X59449Y185039D02*
D03*
X61417D02*
D03*
X63386D02*
D03*
X65354D02*
D03*
X59449Y167717D02*
D03*
X61417D02*
D03*
X65354D02*
D03*
X67323D02*
D03*
X63386D02*
D03*
X67323Y185039D02*
D03*
M02*
