G04*
G04 #@! TF.GenerationSoftware,Altium Limited,Altium Designer,23.1.1 (15)*
G04*
G04 Layer_Physical_Order=4*
G04 Layer_Color=16711680*
%FSLAX25Y25*%
%MOIN*%
G70*
G04*
G04 #@! TF.SameCoordinates,590E2446-9614-40E2-9646-AD1B285CD790*
G04*
G04*
G04 #@! TF.FilePolarity,Positive*
G04*
G01*
G75*
%ADD12C,0.01000*%
%ADD42C,0.07087*%
%ADD47C,0.02362*%
%ADD51R,0.03937X0.03740*%
%ADD72C,0.01600*%
%ADD75C,0.05709*%
%ADD76R,0.05709X0.05709*%
%ADD77C,0.15748*%
%ADD78R,0.06693X0.06693*%
%ADD79C,0.06693*%
%ADD80C,0.04842*%
%ADD81C,0.07945*%
%ADD82R,0.05709X0.05709*%
%ADD83C,0.01968*%
%ADD96R,0.06102X0.02362*%
%ADD97R,0.01181X0.05709*%
G36*
X392658Y1043D02*
X1043D01*
Y274548D01*
X392658D01*
Y1043D01*
D02*
G37*
%LPC*%
G36*
X147830Y268815D02*
X146815D01*
X145835Y268552D01*
X144956Y268045D01*
X144239Y267327D01*
X143731Y266448D01*
X143468Y265468D01*
Y264453D01*
X143731Y263473D01*
X144239Y262594D01*
X144956Y261876D01*
X145835Y261369D01*
X146815Y261106D01*
X147830D01*
X148811Y261369D01*
X149689Y261876D01*
X150407Y262594D01*
X150915Y263473D01*
X151177Y264453D01*
Y265468D01*
X150915Y266448D01*
X150407Y267327D01*
X149689Y268045D01*
X148811Y268552D01*
X147830Y268815D01*
D02*
G37*
G36*
X382544Y268752D02*
X381235D01*
X379971Y268413D01*
X378837Y267758D01*
X377911Y266833D01*
X377256Y265699D01*
X376917Y264434D01*
Y263125D01*
X377256Y261860D01*
X377911Y260726D01*
X378837Y259801D01*
X379971Y259146D01*
X381235Y258807D01*
X382544D01*
X383809Y259146D01*
X384943Y259801D01*
X385869Y260726D01*
X386523Y261860D01*
X386862Y263125D01*
Y264434D01*
X386523Y265699D01*
X385869Y266833D01*
X384943Y267758D01*
X383809Y268413D01*
X382544Y268752D01*
D02*
G37*
G36*
X12466D02*
X11156D01*
X9892Y268413D01*
X8758Y267758D01*
X7832Y266833D01*
X7177Y265699D01*
X6839Y264434D01*
Y263125D01*
X7177Y261860D01*
X7832Y260726D01*
X8758Y259801D01*
X9892Y259146D01*
X11156Y258807D01*
X12466D01*
X13730Y259146D01*
X14864Y259801D01*
X15790Y260726D01*
X16445Y261860D01*
X16783Y263125D01*
Y264434D01*
X16445Y265699D01*
X15790Y266833D01*
X14864Y267758D01*
X13730Y268413D01*
X12466Y268752D01*
D02*
G37*
G36*
X42127Y256315D02*
X41338D01*
X40608Y256013D01*
X40050Y255455D01*
X39748Y254725D01*
Y253936D01*
X40050Y253207D01*
X40608Y252648D01*
X41338Y252346D01*
X42127D01*
X42856Y252648D01*
X43414Y253207D01*
X43716Y253936D01*
Y254725D01*
X43414Y255455D01*
X42856Y256013D01*
X42127Y256315D01*
D02*
G37*
G36*
X36615D02*
X35826D01*
X35096Y256013D01*
X34538Y255455D01*
X34236Y254725D01*
Y253936D01*
X34538Y253207D01*
X35096Y252648D01*
X35826Y252346D01*
X36615D01*
X37345Y252648D01*
X37903Y253207D01*
X38205Y253936D01*
Y254725D01*
X37903Y255455D01*
X37345Y256013D01*
X36615Y256315D01*
D02*
G37*
G36*
X31103D02*
X30314D01*
X29585Y256013D01*
X29026Y255455D01*
X28724Y254725D01*
Y253936D01*
X29026Y253207D01*
X29585Y252648D01*
X30314Y252346D01*
X31103D01*
X31833Y252648D01*
X32391Y253207D01*
X32693Y253936D01*
Y254725D01*
X32391Y255455D01*
X31833Y256013D01*
X31103Y256315D01*
D02*
G37*
G36*
X42127Y250016D02*
X41338D01*
X40608Y249714D01*
X40050Y249155D01*
X39748Y248426D01*
Y247637D01*
X40050Y246907D01*
X40608Y246349D01*
X41338Y246047D01*
X42127D01*
X42856Y246349D01*
X43414Y246907D01*
X43716Y247637D01*
Y248426D01*
X43414Y249155D01*
X42856Y249714D01*
X42127Y250016D01*
D02*
G37*
G36*
X36615D02*
X35826D01*
X35096Y249714D01*
X34538Y249155D01*
X34236Y248426D01*
Y247637D01*
X34538Y246907D01*
X35096Y246349D01*
X35826Y246047D01*
X36615D01*
X37345Y246349D01*
X37903Y246907D01*
X38205Y247637D01*
Y248426D01*
X37903Y249155D01*
X37345Y249714D01*
X36615Y250016D01*
D02*
G37*
G36*
X31103D02*
X30314D01*
X29585Y249714D01*
X29026Y249155D01*
X28724Y248426D01*
Y247637D01*
X29026Y246907D01*
X29585Y246349D01*
X30314Y246047D01*
X31103D01*
X31833Y246349D01*
X32391Y246907D01*
X32693Y247637D01*
Y248426D01*
X32391Y249155D01*
X31833Y249714D01*
X31103Y250016D01*
D02*
G37*
G36*
X152256Y229893D02*
X151632Y229635D01*
X151074Y229077D01*
X150815Y228453D01*
X152256D01*
Y229893D01*
D02*
G37*
G36*
X20390Y220468D02*
X12681D01*
Y212760D01*
X20390D01*
Y220468D01*
D02*
G37*
G36*
X259641Y206217D02*
X259634D01*
Y202862D01*
X262988D01*
Y202870D01*
X262725Y203850D01*
X262218Y204729D01*
X261501Y205446D01*
X260622Y205954D01*
X259641Y206217D01*
D02*
G37*
G36*
X258634D02*
X258626D01*
X257646Y205954D01*
X256767Y205446D01*
X256050Y204729D01*
X255542Y203850D01*
X255279Y202870D01*
Y202862D01*
X258634D01*
Y206217D01*
D02*
G37*
G36*
X17043Y210469D02*
X16028D01*
X15048Y210206D01*
X14169Y209698D01*
X13451Y208981D01*
X12944Y208102D01*
X12681Y207122D01*
Y206107D01*
X12944Y205127D01*
X13451Y204248D01*
X14169Y203530D01*
X15048Y203023D01*
X16028Y202760D01*
X17043D01*
X18023Y203023D01*
X18902Y203530D01*
X19620Y204248D01*
X20127Y205127D01*
X20390Y206107D01*
Y207122D01*
X20127Y208102D01*
X19620Y208981D01*
X18902Y209698D01*
X18023Y210206D01*
X17043Y210469D01*
D02*
G37*
G36*
X269641Y206217D02*
X268626D01*
X267646Y205954D01*
X266767Y205446D01*
X266050Y204729D01*
X265542Y203850D01*
X265280Y202870D01*
Y201855D01*
X265542Y200874D01*
X266050Y199996D01*
X266767Y199278D01*
X267646Y198770D01*
X268626Y198508D01*
X269641D01*
X270622Y198770D01*
X271500Y199278D01*
X272218Y199996D01*
X272726Y200874D01*
X272988Y201855D01*
Y202870D01*
X272726Y203850D01*
X272218Y204729D01*
X271500Y205446D01*
X270622Y205954D01*
X269641Y206217D01*
D02*
G37*
G36*
X262988Y201862D02*
X259634D01*
Y198508D01*
X259641D01*
X260622Y198770D01*
X261501Y199278D01*
X262218Y199996D01*
X262725Y200874D01*
X262988Y201855D01*
Y201862D01*
D02*
G37*
G36*
X258634D02*
X255279D01*
Y201855D01*
X255542Y200874D01*
X256050Y199996D01*
X256767Y199278D01*
X257646Y198770D01*
X258626Y198508D01*
X258634D01*
Y201862D01*
D02*
G37*
G36*
X221369Y271608D02*
X161024D01*
X160438Y271492D01*
X159942Y271160D01*
X158557Y269775D01*
X158268Y269343D01*
X157740Y268815D01*
X156815D01*
X155835Y268552D01*
X154956Y268045D01*
X154239Y267327D01*
X153731Y266448D01*
X153469Y265468D01*
Y264453D01*
X153731Y263473D01*
X154239Y262594D01*
X154956Y261876D01*
X155835Y261369D01*
X156815Y261106D01*
X157830D01*
X158811Y261369D01*
X159689Y261876D01*
X160407Y262594D01*
X160915Y263473D01*
X161177Y264453D01*
Y265468D01*
X160915Y266448D01*
X160470Y267219D01*
X160720Y267469D01*
X161008Y267900D01*
X161657Y268549D01*
X163469D01*
Y261106D01*
X171177D01*
Y268549D01*
X176303D01*
Y261106D01*
X181631D01*
X181816Y260606D01*
X181389Y260179D01*
X181087Y259450D01*
Y258660D01*
X181389Y257931D01*
X181947Y257373D01*
X182676Y257071D01*
X183466D01*
X184195Y257373D01*
X184348Y257526D01*
X229637D01*
X280485Y206679D01*
X280293Y206217D01*
X275279D01*
Y198508D01*
X282988D01*
X283313Y198143D01*
Y185529D01*
X283160Y185376D01*
X282858Y184647D01*
Y184431D01*
X282119Y183691D01*
X243147D01*
X242869Y184107D01*
X242929Y184251D01*
Y185040D01*
X242627Y185770D01*
X242069Y186328D01*
X241340Y186630D01*
X240550D01*
X239821Y186328D01*
X239263Y185770D01*
X238961Y185040D01*
Y184251D01*
X239020Y184107D01*
X238743Y183691D01*
X232645D01*
X212499Y203837D01*
X212441Y203876D01*
X212592Y204376D01*
X226138D01*
X243013Y187501D01*
X243509Y187170D01*
X244094Y187053D01*
X266833D01*
X266986Y186900D01*
X267716Y186598D01*
X268505D01*
X269234Y186900D01*
X269792Y187459D01*
X270005Y187972D01*
X270546D01*
X270759Y187459D01*
X271317Y186900D01*
X272046Y186598D01*
X272836D01*
X273565Y186900D01*
X274123Y187459D01*
X274425Y188188D01*
Y188977D01*
X274123Y189707D01*
X273565Y190265D01*
X272836Y190567D01*
X272620D01*
X269979Y193207D01*
X269921Y193246D01*
X270073Y193746D01*
X279432D01*
X279585Y193593D01*
X280314Y193291D01*
X281103D01*
X281833Y193593D01*
X282391Y194152D01*
X282693Y194881D01*
Y195670D01*
X282391Y196400D01*
X281833Y196958D01*
X281103Y197260D01*
X280314D01*
X279585Y196958D01*
X279432Y196805D01*
X249846D01*
X229428Y217223D01*
X228932Y217555D01*
X228346Y217671D01*
X164567D01*
X163982Y217555D01*
X163486Y217223D01*
X147305Y201043D01*
X146805Y201250D01*
Y215508D01*
X167223Y235926D01*
X167555Y236423D01*
X167671Y237008D01*
Y237306D01*
X167824Y237459D01*
X168126Y238188D01*
Y238977D01*
X167824Y239707D01*
X167266Y240265D01*
X166536Y240567D01*
X165747D01*
X165018Y240265D01*
X164460Y239707D01*
X164157Y238977D01*
Y238188D01*
X164451Y237480D01*
X155202Y228231D01*
X154702Y228439D01*
X154438Y229077D01*
X153880Y229635D01*
X153256Y229893D01*
Y227953D01*
X152756D01*
Y227453D01*
X150815D01*
X151074Y226829D01*
X151632Y226271D01*
X152270Y226006D01*
X152478Y225507D01*
X144194Y217223D01*
X143863Y216727D01*
X143746Y216142D01*
Y187402D01*
X143863Y186816D01*
X144194Y186320D01*
X146108Y184406D01*
Y172930D01*
X145956Y172777D01*
X145653Y172048D01*
Y171259D01*
X145956Y170529D01*
X146514Y169971D01*
X147243Y169669D01*
X148032D01*
X148762Y169971D01*
X148915Y170124D01*
X150969D01*
X151303Y169624D01*
X151209Y169398D01*
X153150D01*
Y168898D01*
X153650D01*
Y166957D01*
X154274Y167216D01*
X154832Y167774D01*
X154868Y167861D01*
X155368D01*
X155404Y167774D01*
X155963Y167216D01*
X156587Y166957D01*
Y168898D01*
X157587D01*
Y166957D01*
X158211Y167216D01*
X158769Y167774D01*
X158805Y167861D01*
X159305D01*
X159342Y167774D01*
X159900Y167216D01*
X160524Y166957D01*
Y168898D01*
X161024D01*
Y169398D01*
X162964D01*
X162870Y169624D01*
X163205Y170124D01*
X187402D01*
X187987Y170241D01*
X188483Y170572D01*
X195454Y177543D01*
X195670D01*
X196400Y177845D01*
X196790Y178235D01*
X197290Y178028D01*
Y165594D01*
X177319Y145624D01*
X162300D01*
X162148Y145777D01*
X161418Y146079D01*
X160629D01*
X159900Y145777D01*
X159342Y145219D01*
X159039Y144489D01*
Y143700D01*
X159342Y142971D01*
X159900Y142412D01*
X160629Y142110D01*
X161418D01*
X162148Y142412D01*
X162300Y142565D01*
X177953D01*
X178538Y142682D01*
X179034Y143013D01*
X199900Y163879D01*
X200232Y164375D01*
X200348Y164961D01*
Y196812D01*
X201341Y197805D01*
X202248D01*
X202586Y197305D01*
X202496Y196850D01*
X202635Y196148D01*
X203033Y195553D01*
X219425Y179161D01*
Y98398D01*
X205933Y84906D01*
X174376D01*
X174017Y85055D01*
X173227D01*
X172498Y84753D01*
X171940Y84195D01*
X171638Y83466D01*
Y82676D01*
X171940Y81947D01*
X172498Y81389D01*
X173227Y81087D01*
X174017D01*
X174376Y81236D01*
X206693D01*
X207395Y81375D01*
X207991Y81773D01*
X222558Y96340D01*
X222955Y96935D01*
X223095Y97638D01*
Y179921D01*
X222955Y180624D01*
X222558Y181219D01*
X206433Y197343D01*
X206625Y197805D01*
X211055D01*
X231596Y177265D01*
X232092Y176934D01*
X232677Y176817D01*
X283951D01*
X284537Y176934D01*
X285033Y177265D01*
X290035Y182268D01*
X290159D01*
X290888Y182570D01*
X291446Y183128D01*
X291748Y183857D01*
Y184647D01*
X291446Y185376D01*
X291293Y185529D01*
Y201684D01*
X291177Y202269D01*
X290845Y202765D01*
X222450Y271160D01*
X221954Y271492D01*
X221369Y271608D01*
D02*
G37*
G36*
X17043Y200468D02*
X16028D01*
X15048Y200206D01*
X14169Y199698D01*
X13451Y198981D01*
X12944Y198102D01*
X12681Y197122D01*
Y196107D01*
X12944Y195126D01*
X13451Y194248D01*
X14169Y193530D01*
X15048Y193023D01*
X16028Y192760D01*
X17043D01*
X18023Y193023D01*
X18902Y193530D01*
X19620Y194248D01*
X20127Y195126D01*
X20390Y196107D01*
Y197122D01*
X20127Y198102D01*
X19620Y198981D01*
X18902Y199698D01*
X18023Y200206D01*
X17043Y200468D01*
D02*
G37*
G36*
X53043Y187713D02*
X50575D01*
Y185343D01*
X53043D01*
Y187713D01*
D02*
G37*
G36*
X17043Y190469D02*
X16028D01*
X15048Y190206D01*
X14169Y189698D01*
X13451Y188981D01*
X12944Y188102D01*
X12681Y187122D01*
Y186107D01*
X12944Y185126D01*
X13451Y184248D01*
X14169Y183530D01*
X15048Y183022D01*
X16028Y182760D01*
X17043D01*
X18023Y183022D01*
X18902Y183530D01*
X19620Y184248D01*
X20127Y185126D01*
X20390Y186107D01*
Y187122D01*
X20127Y188102D01*
X19620Y188981D01*
X18902Y189698D01*
X18023Y190206D01*
X17043Y190469D01*
D02*
G37*
G36*
X116685Y236726D02*
X45039D01*
X44454Y236610D01*
X43958Y236278D01*
X39863Y232184D01*
X39532Y231688D01*
X39415Y231102D01*
Y205906D01*
X39532Y205320D01*
X39863Y204824D01*
X56475Y188213D01*
X56268Y187713D01*
X56113Y187713D01*
X54043D01*
Y184843D01*
X53543D01*
Y184343D01*
X50575D01*
Y182307D01*
X50575Y181972D01*
X50575Y181472D01*
Y180270D01*
X46946D01*
X46793Y180422D01*
X46064Y180724D01*
X45275D01*
X44545Y180422D01*
X43987Y179864D01*
X43685Y179135D01*
Y178346D01*
X43987Y177616D01*
X44545Y177058D01*
X45275Y176756D01*
X46064D01*
X46793Y177058D01*
X46946Y177211D01*
X50575D01*
Y176067D01*
X56512D01*
Y177408D01*
X57950D01*
X58141Y176946D01*
X52462Y171266D01*
X52130Y170770D01*
X52014Y170185D01*
Y133736D01*
X52130Y133150D01*
X52462Y132654D01*
X128323Y56793D01*
X128820Y56461D01*
X129405Y56345D01*
X211234D01*
X211820Y56461D01*
X212316Y56793D01*
X276072Y120548D01*
X276288D01*
X277017Y120850D01*
X277575Y121408D01*
X277877Y122138D01*
Y122927D01*
X277575Y123656D01*
X277017Y124214D01*
X276579Y124396D01*
X276567Y124942D01*
X276879Y125254D01*
X277181Y125983D01*
Y126773D01*
X276879Y127502D01*
X276321Y128060D01*
X275591Y128362D01*
X274802D01*
X274073Y128060D01*
X273515Y127502D01*
X273213Y126773D01*
Y125983D01*
X273346Y125662D01*
X225460Y77776D01*
X224999Y78022D01*
X225064Y78347D01*
Y82316D01*
X225213Y82676D01*
Y83466D01*
X224910Y84195D01*
X224352Y84753D01*
X223623Y85055D01*
X222834D01*
X222104Y84753D01*
X221546Y84195D01*
X221244Y83466D01*
Y82676D01*
X221393Y82316D01*
Y79107D01*
X216956Y74670D01*
X168083D01*
X164434Y78319D01*
Y81266D01*
X164934Y81473D01*
X165018Y81389D01*
X165747Y81087D01*
X166536D01*
X167266Y81389D01*
X167824Y81947D01*
X168126Y82676D01*
Y83466D01*
X168047Y83655D01*
Y85137D01*
X169658Y86747D01*
X205118D01*
X205820Y86887D01*
X206416Y87285D01*
X217439Y98309D01*
X217837Y98904D01*
X217977Y99606D01*
Y155545D01*
X218126Y155904D01*
Y156694D01*
X217824Y157423D01*
X217266Y157981D01*
X216536Y158283D01*
X215747D01*
X215018Y157981D01*
X214460Y157423D01*
X214158Y156694D01*
Y155904D01*
X214306Y155545D01*
Y100366D01*
X204358Y90418D01*
X168898D01*
X168195Y90278D01*
X167600Y89880D01*
X164934Y87214D01*
X164851Y87219D01*
X164434Y87375D01*
Y99634D01*
X172807Y108007D01*
X176805D01*
X177164Y107858D01*
X177954D01*
X178683Y108160D01*
X179241Y108719D01*
X179543Y109448D01*
Y110237D01*
X179241Y110967D01*
X178683Y111525D01*
X177954Y111827D01*
X177164D01*
X176805Y111678D01*
X172067D01*
X172026Y111722D01*
X171826Y112144D01*
X172414Y112732D01*
X202756D01*
X203383Y112856D01*
X203446D01*
X205645Y110657D01*
Y104691D01*
X205496Y104332D01*
Y103542D01*
X205798Y102813D01*
X206356Y102255D01*
X207086Y101953D01*
X207875D01*
X208604Y102255D01*
X209162Y102813D01*
X209465Y103542D01*
Y104332D01*
X209316Y104691D01*
Y111417D01*
X209176Y112120D01*
X208778Y112715D01*
X205504Y115989D01*
X204908Y116387D01*
X204206Y116527D01*
X202881D01*
X202254Y116402D01*
X171653D01*
X170951Y116262D01*
X170356Y115865D01*
X158151Y103660D01*
X157753Y103065D01*
X157614Y102362D01*
Y75197D01*
X157753Y74494D01*
X158151Y73899D01*
X164057Y67994D01*
X164652Y67596D01*
X165354Y67456D01*
X210338D01*
X210739Y67189D01*
X211441Y67049D01*
X214026D01*
X214233Y66549D01*
X209450Y61766D01*
X130948D01*
X60906Y131808D01*
X61004Y132298D01*
X61148Y132358D01*
X61707Y132916D01*
X61976Y133567D01*
X62440Y134030D01*
X62725D01*
X63310Y134147D01*
X63806Y134478D01*
X87219Y157891D01*
X87681Y157700D01*
Y156655D01*
X83756Y152729D01*
X83128Y152470D01*
X82570Y151911D01*
X82268Y151182D01*
Y150393D01*
X82570Y149663D01*
X83128Y149105D01*
X83857Y148803D01*
X84647D01*
X85376Y149105D01*
X85934Y149663D01*
X86236Y150393D01*
Y150884D01*
X89844Y154492D01*
X95784D01*
Y155144D01*
X97618D01*
X98203Y155260D01*
X98700Y155592D01*
X108252Y165144D01*
X108941D01*
Y164492D01*
X115514D01*
Y163884D01*
X113673D01*
X113525Y163854D01*
X108941D01*
Y159492D01*
X117043D01*
Y161018D01*
X117425Y161273D01*
X118125Y161973D01*
X118456Y162469D01*
X118573Y163054D01*
Y173268D01*
X118458Y173843D01*
Y178740D01*
Y191378D01*
X118342Y191963D01*
X118011Y192459D01*
X116650Y193820D01*
Y195139D01*
X116826Y195257D01*
X119231Y197662D01*
X119563Y198158D01*
X119679Y198743D01*
Y233732D01*
X119563Y234318D01*
X119231Y234814D01*
X117767Y236278D01*
X117270Y236610D01*
X116685Y236726D01*
D02*
G37*
G36*
X355297Y181512D02*
X355224D01*
Y177665D01*
X359071D01*
Y177738D01*
X358775Y178843D01*
X358202Y179834D01*
X357393Y180643D01*
X356402Y181216D01*
X355297Y181512D01*
D02*
G37*
G36*
X354224D02*
X354152D01*
X353047Y181216D01*
X352056Y180643D01*
X351246Y179834D01*
X350674Y178843D01*
X350378Y177738D01*
Y177665D01*
X354224D01*
Y181512D01*
D02*
G37*
G36*
X296851Y179937D02*
X296062D01*
X295333Y179635D01*
X294775Y179077D01*
X294472Y178348D01*
Y177558D01*
X294775Y176829D01*
X295333Y176271D01*
X296062Y175969D01*
X296851D01*
X297581Y176271D01*
X298139Y176829D01*
X298441Y177558D01*
Y178348D01*
X298139Y179077D01*
X297581Y179635D01*
X296851Y179937D01*
D02*
G37*
G36*
X380598Y193539D02*
X378850D01*
X377136Y193198D01*
X375521Y192529D01*
X374068Y191558D01*
X372832Y190322D01*
X371860Y188869D01*
X371191Y187254D01*
X370850Y185539D01*
Y183791D01*
X371191Y182077D01*
X371860Y180462D01*
X372832Y179008D01*
X374068Y177772D01*
X375521Y176801D01*
X377136Y176132D01*
X378850Y175791D01*
X380598D01*
X382313Y176132D01*
X383928Y176801D01*
X385381Y177772D01*
X386617Y179008D01*
X387589Y180462D01*
X388257Y182077D01*
X388598Y183791D01*
Y185539D01*
X388257Y187254D01*
X387589Y188869D01*
X386617Y190322D01*
X385381Y191558D01*
X383928Y192529D01*
X382313Y193198D01*
X380598Y193539D01*
D02*
G37*
G36*
X359071Y176665D02*
X355224D01*
Y172819D01*
X355297D01*
X356402Y173115D01*
X357393Y173687D01*
X358202Y174497D01*
X358775Y175488D01*
X359071Y176593D01*
Y176665D01*
D02*
G37*
G36*
X354224D02*
X350378D01*
Y176593D01*
X350674Y175488D01*
X351246Y174497D01*
X352056Y173687D01*
X353047Y173115D01*
X354152Y172819D01*
X354224D01*
Y176665D01*
D02*
G37*
G36*
X17043Y180468D02*
X16028D01*
X15048Y180206D01*
X14169Y179698D01*
X13451Y178981D01*
X12944Y178102D01*
X12681Y177122D01*
Y176107D01*
X12944Y175127D01*
X13451Y174248D01*
X14169Y173530D01*
X15048Y173022D01*
X16028Y172760D01*
X17043D01*
X18023Y173022D01*
X18902Y173530D01*
X19620Y174248D01*
X20127Y175127D01*
X20390Y176107D01*
Y177122D01*
X20127Y178102D01*
X19620Y178981D01*
X18902Y179698D01*
X18023Y180206D01*
X17043Y180468D01*
D02*
G37*
G36*
X345297Y176512D02*
X345224D01*
Y172665D01*
X349071D01*
Y172738D01*
X348775Y173843D01*
X348202Y174834D01*
X347393Y175643D01*
X346402Y176216D01*
X345297Y176512D01*
D02*
G37*
G36*
X344224D02*
X344152D01*
X343047Y176216D01*
X342056Y175643D01*
X341246Y174834D01*
X340674Y173843D01*
X340378Y172738D01*
Y172665D01*
X344224D01*
Y176512D01*
D02*
G37*
G36*
X349071Y171665D02*
X345224D01*
Y167819D01*
X345297D01*
X346402Y168115D01*
X347393Y168687D01*
X348202Y169497D01*
X348775Y170488D01*
X349071Y171593D01*
Y171665D01*
D02*
G37*
G36*
X344224D02*
X340378D01*
Y171593D01*
X340674Y170488D01*
X341246Y169497D01*
X342056Y168687D01*
X343047Y168115D01*
X344152Y167819D01*
X344224D01*
Y171665D01*
D02*
G37*
G36*
X355297Y171512D02*
X355224D01*
Y167665D01*
X359071D01*
Y167738D01*
X358775Y168843D01*
X358202Y169834D01*
X357393Y170643D01*
X356402Y171216D01*
X355297Y171512D01*
D02*
G37*
G36*
X354224D02*
X354152D01*
X353047Y171216D01*
X352056Y170643D01*
X351246Y169834D01*
X350674Y168843D01*
X350378Y167738D01*
Y167665D01*
X354224D01*
Y171512D01*
D02*
G37*
G36*
X327083Y174760D02*
X319374D01*
Y167051D01*
X327083D01*
Y174760D01*
D02*
G37*
G36*
X162964Y168398D02*
X161524D01*
Y166957D01*
X162148Y167216D01*
X162706Y167774D01*
X162964Y168398D01*
D02*
G37*
G36*
X152650D02*
X151209D01*
X151468Y167774D01*
X152026Y167216D01*
X152650Y166957D01*
Y168398D01*
D02*
G37*
G36*
X261025Y170488D02*
X260235D01*
X259506Y170186D01*
X258948Y169628D01*
X258646Y168899D01*
Y168109D01*
X258948Y167380D01*
X259506Y166822D01*
X260235Y166520D01*
X261025D01*
X261754Y166822D01*
X262312Y167380D01*
X262614Y168109D01*
Y168899D01*
X262312Y169628D01*
X261754Y170186D01*
X261025Y170488D01*
D02*
G37*
G36*
X297639Y169307D02*
X296849D01*
X296120Y169005D01*
X295562Y168447D01*
X295260Y167718D01*
Y166928D01*
X295562Y166199D01*
X296120Y165641D01*
X296849Y165339D01*
X297639D01*
X298368Y165641D01*
X298926Y166199D01*
X299228Y166928D01*
Y167718D01*
X298926Y168447D01*
X298368Y169005D01*
X297639Y169307D01*
D02*
G37*
G36*
X359071Y166665D02*
X355224D01*
Y162819D01*
X355297D01*
X356402Y163115D01*
X357393Y163687D01*
X358202Y164497D01*
X358775Y165488D01*
X359071Y166593D01*
Y166665D01*
D02*
G37*
G36*
X354224D02*
X350378D01*
Y166593D01*
X350674Y165488D01*
X351246Y164497D01*
X352056Y163687D01*
X353047Y163115D01*
X354152Y162819D01*
X354224D01*
Y166665D01*
D02*
G37*
G36*
X17043Y170468D02*
X16028D01*
X15048Y170206D01*
X14169Y169698D01*
X13451Y168981D01*
X12944Y168102D01*
X12681Y167122D01*
Y166107D01*
X12944Y165127D01*
X13451Y164248D01*
X14169Y163530D01*
X15048Y163022D01*
X16028Y162760D01*
X17043D01*
X18023Y163022D01*
X18902Y163530D01*
X19620Y164248D01*
X20127Y165127D01*
X20390Y166107D01*
Y167122D01*
X20127Y168102D01*
X19620Y168981D01*
X18902Y169698D01*
X18023Y170206D01*
X17043Y170468D01*
D02*
G37*
G36*
X155906Y165370D02*
X155117D01*
X154388Y165068D01*
X153830Y164510D01*
X153527Y163780D01*
Y162991D01*
X153830Y162262D01*
X154388Y161704D01*
X155117Y161402D01*
X155906D01*
X156636Y161704D01*
X157194Y162262D01*
X157496Y162991D01*
Y163780D01*
X157194Y164510D01*
X156636Y165068D01*
X155906Y165370D01*
D02*
G37*
G36*
X345297Y166512D02*
X344152D01*
X343047Y166216D01*
X342056Y165643D01*
X341246Y164834D01*
X340674Y163843D01*
X340378Y162738D01*
Y161593D01*
X340674Y160488D01*
X341246Y159497D01*
X342056Y158687D01*
X343047Y158115D01*
X344152Y157819D01*
X345297D01*
X346402Y158115D01*
X347393Y158687D01*
X348202Y159497D01*
X348775Y160488D01*
X349071Y161593D01*
Y162738D01*
X348775Y163843D01*
X348202Y164834D01*
X347393Y165643D01*
X346402Y166216D01*
X345297Y166512D01*
D02*
G37*
G36*
X245923Y164602D02*
X245022D01*
X244152Y164369D01*
X243372Y163919D01*
X242735Y163282D01*
X242284Y162502D01*
X242051Y161632D01*
Y160731D01*
X242284Y159861D01*
X242735Y159080D01*
X243372Y158443D01*
X244152Y157993D01*
X245022Y157760D01*
X245923D01*
X246793Y157993D01*
X247573Y158443D01*
X248210Y159080D01*
X248661Y159861D01*
X248894Y160731D01*
Y161632D01*
X248661Y162502D01*
X248210Y163282D01*
X247573Y163919D01*
X246793Y164369D01*
X245923Y164602D01*
D02*
G37*
G36*
X355297Y161512D02*
X355224D01*
Y157665D01*
X359071D01*
Y157738D01*
X358775Y158843D01*
X358202Y159834D01*
X357393Y160643D01*
X356402Y161216D01*
X355297Y161512D01*
D02*
G37*
G36*
X354224D02*
X354152D01*
X353047Y161216D01*
X352056Y160643D01*
X351246Y159834D01*
X350674Y158843D01*
X350378Y157738D01*
Y157665D01*
X354224D01*
Y161512D01*
D02*
G37*
G36*
X117043Y158854D02*
X113492D01*
Y157173D01*
X117043D01*
Y158854D01*
D02*
G37*
G36*
X112492D02*
X108941D01*
Y157173D01*
X112492D01*
Y158854D01*
D02*
G37*
G36*
X323736Y164760D02*
X322721D01*
X321741Y164497D01*
X320862Y163990D01*
X320144Y163272D01*
X319637Y162393D01*
X319374Y161413D01*
Y160398D01*
X319637Y159418D01*
X320144Y158539D01*
X320862Y157821D01*
X321741Y157314D01*
X322721Y157051D01*
X323736D01*
X324716Y157314D01*
X325595Y157821D01*
X326313Y158539D01*
X326820Y159418D01*
X327083Y160398D01*
Y161413D01*
X326820Y162393D01*
X326313Y163272D01*
X325595Y163990D01*
X324716Y164497D01*
X323736Y164760D01*
D02*
G37*
G36*
X279815Y155484D02*
X279191Y155226D01*
X278937Y154972D01*
X278683Y155226D01*
X278059Y155484D01*
Y153543D01*
X277559D01*
Y153043D01*
X275618D01*
X275877Y152419D01*
X276328Y151969D01*
X275877Y151518D01*
X275618Y150894D01*
X277559D01*
Y150394D01*
X278059D01*
Y148453D01*
X278683Y148712D01*
X278937Y148966D01*
X279191Y148712D01*
X279815Y148453D01*
Y150394D01*
X280315D01*
Y150894D01*
X282256D01*
X281997Y151518D01*
X281546Y151969D01*
X281997Y152419D01*
X282256Y153043D01*
X280315D01*
Y153543D01*
X279815D01*
Y155484D01*
D02*
G37*
G36*
X339371Y224425D02*
X338582D01*
X337852Y224123D01*
X337294Y223565D01*
X336992Y222836D01*
Y222046D01*
X337294Y221317D01*
X337447Y221164D01*
Y214807D01*
X310730Y188089D01*
X310398Y187593D01*
X310282Y187008D01*
Y156692D01*
X308269Y154679D01*
X307182D01*
X307030Y154832D01*
X306300Y155134D01*
X305511D01*
X304782Y154832D01*
X304223Y154274D01*
X303921Y153544D01*
Y152755D01*
X304223Y152026D01*
X304782Y151468D01*
X305511Y151165D01*
X306300D01*
X307030Y151468D01*
X307182Y151620D01*
X307949D01*
X308157Y151120D01*
X307767Y150730D01*
X307465Y150001D01*
Y149212D01*
X307767Y148482D01*
X308325Y147924D01*
X309054Y147622D01*
X309843D01*
X310573Y147924D01*
X311131Y148482D01*
X311433Y149212D01*
Y149428D01*
X317223Y155218D01*
X317555Y155714D01*
X317671Y156299D01*
Y184800D01*
X343153Y210282D01*
X363779D01*
X364365Y210398D01*
X364861Y210730D01*
X366042Y211911D01*
X366374Y212407D01*
X366490Y212992D01*
Y220771D01*
X366643Y220923D01*
X366945Y221653D01*
Y222442D01*
X366643Y223171D01*
X366085Y223729D01*
X365355Y224031D01*
X364566D01*
X363837Y223729D01*
X363279Y223171D01*
X362976Y222442D01*
Y221653D01*
X363279Y220923D01*
X363431Y220771D01*
Y213626D01*
X363146Y213340D01*
X342520D01*
X341934Y213224D01*
X341438Y212893D01*
X315060Y186514D01*
X314729Y186018D01*
X314612Y185433D01*
Y156933D01*
X313840Y156161D01*
X313340Y156368D01*
Y186374D01*
X340058Y213092D01*
X340389Y213588D01*
X340506Y214173D01*
Y221164D01*
X340658Y221317D01*
X340961Y222046D01*
Y222836D01*
X340658Y223565D01*
X340100Y224123D01*
X339371Y224425D01*
D02*
G37*
G36*
X117043Y156173D02*
X113492D01*
Y154492D01*
X117043D01*
Y156173D01*
D02*
G37*
G36*
X112492D02*
X108941D01*
Y154492D01*
X112492D01*
Y156173D01*
D02*
G37*
G36*
X280815Y155484D02*
Y154043D01*
X282256D01*
X281997Y154667D01*
X281439Y155226D01*
X280815Y155484D01*
D02*
G37*
G36*
X277059D02*
X276435Y155226D01*
X275877Y154667D01*
X275618Y154043D01*
X277059D01*
Y155484D01*
D02*
G37*
G36*
X359071Y156665D02*
X355224D01*
Y152819D01*
X355297D01*
X356402Y153115D01*
X357393Y153687D01*
X358202Y154497D01*
X358775Y155488D01*
X359071Y156593D01*
Y156665D01*
D02*
G37*
G36*
X354224D02*
X350378D01*
Y156593D01*
X350674Y155488D01*
X351246Y154497D01*
X352056Y153687D01*
X353047Y153115D01*
X354152Y152819D01*
X354224D01*
Y156665D01*
D02*
G37*
G36*
X323736Y154760D02*
X323728D01*
Y151406D01*
X327083D01*
Y151413D01*
X326820Y152393D01*
X326313Y153272D01*
X325595Y153990D01*
X324716Y154497D01*
X323736Y154760D01*
D02*
G37*
G36*
X322728D02*
X322721D01*
X321741Y154497D01*
X320862Y153990D01*
X320144Y153272D01*
X319637Y152393D01*
X319374Y151413D01*
Y151406D01*
X322728D01*
Y154760D01*
D02*
G37*
G36*
X282256Y149894D02*
X280815D01*
Y148453D01*
X281439Y148712D01*
X281997Y149270D01*
X282256Y149894D01*
D02*
G37*
G36*
X277059D02*
X275618D01*
X275877Y149270D01*
X276435Y148712D01*
X277059Y148453D01*
Y149894D01*
D02*
G37*
G36*
X349071Y156512D02*
X340378D01*
Y147819D01*
X349071D01*
Y156512D01*
D02*
G37*
G36*
X327083Y150406D02*
X323728D01*
Y147051D01*
X323736D01*
X324716Y147314D01*
X325595Y147821D01*
X326313Y148539D01*
X326820Y149418D01*
X327083Y150398D01*
Y150406D01*
D02*
G37*
G36*
X322728D02*
X319374D01*
Y150398D01*
X319637Y149418D01*
X320144Y148539D01*
X320862Y147821D01*
X321741Y147314D01*
X322721Y147051D01*
X322728D01*
Y150406D01*
D02*
G37*
G36*
X268111Y146472D02*
X267322D01*
X266593Y146170D01*
X266034Y145612D01*
X265732Y144883D01*
Y144094D01*
X266034Y143364D01*
X266593Y142806D01*
X267322Y142504D01*
X268111D01*
X268841Y142806D01*
X269399Y143364D01*
X269701Y144094D01*
Y144883D01*
X269399Y145612D01*
X268841Y146170D01*
X268111Y146472D01*
D02*
G37*
G36*
X245923Y145390D02*
X245022D01*
X244152Y145157D01*
X243372Y144706D01*
X242735Y144069D01*
X242284Y143289D01*
X242051Y142419D01*
Y141518D01*
X242284Y140648D01*
X242735Y139868D01*
X243372Y139231D01*
X244152Y138780D01*
X245022Y138547D01*
X245923D01*
X246793Y138780D01*
X247573Y139231D01*
X248210Y139868D01*
X248661Y140648D01*
X248894Y141518D01*
Y142419D01*
X248661Y143289D01*
X248210Y144069D01*
X247573Y144706D01*
X246793Y145157D01*
X245923Y145390D01*
D02*
G37*
G36*
X323736Y144760D02*
X322721D01*
X321741Y144497D01*
X320862Y143990D01*
X320144Y143272D01*
X319637Y142393D01*
X319374Y141413D01*
Y140398D01*
X319637Y139418D01*
X320144Y138539D01*
X320862Y137821D01*
X321741Y137314D01*
X322721Y137051D01*
X323736D01*
X324716Y137314D01*
X325595Y137821D01*
X326313Y138539D01*
X326820Y139418D01*
X327083Y140398D01*
Y141413D01*
X326820Y142393D01*
X326313Y143272D01*
X325595Y143990D01*
X324716Y144497D01*
X323736Y144760D01*
D02*
G37*
G36*
X380598Y153539D02*
X378850D01*
X377136Y153198D01*
X375521Y152529D01*
X374068Y151558D01*
X372832Y150322D01*
X371860Y148869D01*
X371191Y147254D01*
X370850Y145539D01*
Y143791D01*
X371191Y142077D01*
X371860Y140462D01*
X372832Y139008D01*
X374068Y137773D01*
X375521Y136801D01*
X377136Y136132D01*
X378850Y135791D01*
X380598D01*
X382313Y136132D01*
X383928Y136801D01*
X385381Y137773D01*
X386617Y139008D01*
X387589Y140462D01*
X388257Y142077D01*
X388598Y143791D01*
Y145539D01*
X388257Y147254D01*
X387589Y148869D01*
X386617Y150322D01*
X385381Y151558D01*
X383928Y152529D01*
X382313Y153198D01*
X380598Y153539D01*
D02*
G37*
G36*
X285120Y128283D02*
X284331D01*
X283601Y127980D01*
X283043Y127422D01*
X282741Y126693D01*
Y125904D01*
X283043Y125174D01*
X283601Y124616D01*
X284331Y124314D01*
X285120D01*
X285849Y124616D01*
X286407Y125174D01*
X286709Y125904D01*
Y126693D01*
X286407Y127422D01*
X285849Y127980D01*
X285120Y128283D01*
D02*
G37*
G36*
X144326Y123146D02*
X144319D01*
Y119791D01*
X147673D01*
Y119799D01*
X147411Y120779D01*
X146903Y121658D01*
X146186Y122376D01*
X145307Y122883D01*
X144326Y123146D01*
D02*
G37*
G36*
X143319D02*
X143312D01*
X142331Y122883D01*
X141452Y122376D01*
X140735Y121658D01*
X140227Y120779D01*
X139965Y119799D01*
Y119791D01*
X143319D01*
Y123146D01*
D02*
G37*
G36*
X157673D02*
X149965D01*
Y115437D01*
X157673D01*
Y123146D01*
D02*
G37*
G36*
X147673Y118791D02*
X144319D01*
Y115437D01*
X144326D01*
X145307Y115700D01*
X146186Y116207D01*
X146903Y116925D01*
X147411Y117804D01*
X147673Y118784D01*
Y118791D01*
D02*
G37*
G36*
X143319D02*
X139965D01*
Y118784D01*
X140227Y117804D01*
X140735Y116925D01*
X141452Y116207D01*
X142331Y115700D01*
X143312Y115437D01*
X143319D01*
Y118791D01*
D02*
G37*
G36*
X200395Y79937D02*
X199605D01*
X198876Y79635D01*
X198318Y79077D01*
X198016Y78347D01*
Y77558D01*
X198318Y76829D01*
X198876Y76271D01*
X199605Y75968D01*
X200395D01*
X201124Y76271D01*
X201682Y76829D01*
X201984Y77558D01*
Y78347D01*
X201682Y79077D01*
X201124Y79635D01*
X200395Y79937D01*
D02*
G37*
G36*
X273229Y57890D02*
X272440D01*
X271711Y57588D01*
X271152Y57029D01*
X270850Y56300D01*
Y55511D01*
X271152Y54782D01*
X271711Y54223D01*
X272440Y53921D01*
X273229D01*
X273959Y54223D01*
X274517Y54782D01*
X274819Y55511D01*
Y56300D01*
X274517Y57029D01*
X273959Y57588D01*
X273229Y57890D01*
D02*
G37*
G36*
X117718Y57496D02*
X116928D01*
X116199Y57194D01*
X115641Y56636D01*
X115339Y55906D01*
Y55117D01*
X115641Y54388D01*
X116199Y53830D01*
X116928Y53527D01*
X117718D01*
X118447Y53830D01*
X119005Y54388D01*
X119307Y55117D01*
Y55906D01*
X119005Y56636D01*
X118447Y57194D01*
X117718Y57496D01*
D02*
G37*
G36*
X195277Y51591D02*
X194487D01*
X193758Y51288D01*
X193200Y50730D01*
X192898Y50001D01*
Y49212D01*
X193200Y48482D01*
X193758Y47924D01*
X194487Y47622D01*
X195277D01*
X196006Y47924D01*
X196564Y48482D01*
X196866Y49212D01*
Y50001D01*
X196564Y50730D01*
X196006Y51288D01*
X195277Y51591D01*
D02*
G37*
G36*
X244489Y50409D02*
X243700D01*
X242970Y50107D01*
X242412Y49549D01*
X242110Y48820D01*
Y48030D01*
X242412Y47301D01*
X242970Y46743D01*
X243700Y46441D01*
X244489D01*
X245218Y46743D01*
X245777Y47301D01*
X246079Y48030D01*
Y48820D01*
X245777Y49549D01*
X245218Y50107D01*
X244489Y50409D01*
D02*
G37*
G36*
X273229Y50016D02*
X272440D01*
X271711Y49714D01*
X271152Y49156D01*
X270850Y48426D01*
Y47637D01*
X271152Y46907D01*
X271711Y46349D01*
X272440Y46047D01*
X273229D01*
X273959Y46349D01*
X274517Y46907D01*
X274819Y47637D01*
Y48426D01*
X274517Y49156D01*
X273959Y49714D01*
X273229Y50016D01*
D02*
G37*
G36*
X117718Y49622D02*
X116928D01*
X116199Y49320D01*
X115641Y48762D01*
X115339Y48033D01*
Y47243D01*
X115641Y46514D01*
X116199Y45956D01*
X116928Y45654D01*
X117718D01*
X118447Y45956D01*
X119005Y46514D01*
X119307Y47243D01*
Y48033D01*
X119005Y48762D01*
X118447Y49320D01*
X117718Y49622D01*
D02*
G37*
G36*
X328426Y44189D02*
X327637D01*
X326908Y43887D01*
X326587Y43566D01*
X326260Y43380D01*
X325933Y43566D01*
X325612Y43887D01*
X324883Y44189D01*
X324094D01*
X323364Y43887D01*
X323043Y43566D01*
X322717Y43380D01*
X322390Y43566D01*
X322069Y43887D01*
X321340Y44189D01*
X320550D01*
X319821Y43887D01*
X319263Y43329D01*
X318961Y42599D01*
Y41810D01*
X319263Y41081D01*
X319584Y40760D01*
X319770Y40433D01*
X319584Y40106D01*
X319263Y39785D01*
X318961Y39056D01*
Y38598D01*
X318503D01*
X317774Y38296D01*
X317453Y37975D01*
X317126Y37789D01*
X316799Y37975D01*
X316478Y38296D01*
X315749Y38598D01*
X314960D01*
X314230Y38296D01*
X313672Y37738D01*
X313370Y37009D01*
Y36219D01*
X313672Y35490D01*
X313993Y35169D01*
X314179Y34843D01*
X313993Y34516D01*
X313672Y34195D01*
X313370Y33466D01*
Y32676D01*
X313672Y31947D01*
X313993Y31626D01*
X314179Y31299D01*
X313993Y30973D01*
X313672Y30652D01*
X313370Y29922D01*
Y29133D01*
X313672Y28404D01*
X314230Y27845D01*
X314960Y27543D01*
X315749D01*
X316478Y27845D01*
X317037Y28404D01*
X317339Y29133D01*
Y29922D01*
X317037Y30652D01*
X316716Y30973D01*
X316529Y31299D01*
X316716Y31626D01*
X316799Y31710D01*
X317126Y31896D01*
X317453Y31710D01*
X317774Y31389D01*
X318503Y31087D01*
X319292D01*
X319748Y31275D01*
X320118Y31306D01*
X320402Y31062D01*
X320853Y30281D01*
X321699Y29435D01*
X322735Y28837D01*
X323890Y28528D01*
X325086D01*
X326242Y28837D01*
X327278Y29435D01*
X328124Y30281D01*
X328574Y31062D01*
X328858Y31306D01*
X329228Y31275D01*
X329684Y31087D01*
X330473D01*
X331203Y31389D01*
X331524Y31710D01*
X331851Y31896D01*
X332177Y31710D01*
X332261Y31626D01*
X332447Y31299D01*
X332261Y30973D01*
X331940Y30652D01*
X331638Y29922D01*
Y29133D01*
X331940Y28404D01*
X332498Y27845D01*
X333227Y27543D01*
X334017D01*
X334746Y27845D01*
X335304Y28404D01*
X335606Y29133D01*
Y29922D01*
X335304Y30652D01*
X334983Y30973D01*
X334797Y31299D01*
X334983Y31626D01*
X335304Y31947D01*
X335606Y32676D01*
Y33465D01*
X335304Y34195D01*
X334983Y34516D01*
X334797Y34843D01*
X334983Y35169D01*
X335304Y35490D01*
X335606Y36219D01*
Y37009D01*
X335304Y37738D01*
X334746Y38296D01*
X334017Y38598D01*
X333227D01*
X332498Y38296D01*
X332177Y37975D01*
X331851Y37789D01*
X331524Y37975D01*
X331203Y38296D01*
X330473Y38598D01*
X330016D01*
Y39056D01*
X329714Y39785D01*
X329393Y40106D01*
X329207Y40433D01*
X329393Y40760D01*
X329714Y41081D01*
X330016Y41810D01*
Y42599D01*
X329714Y43329D01*
X329155Y43887D01*
X328426Y44189D01*
D02*
G37*
G36*
X69213D02*
X68424D01*
X67695Y43887D01*
X67374Y43566D01*
X67047Y43380D01*
X66721Y43566D01*
X66400Y43887D01*
X65670Y44189D01*
X64881D01*
X64152Y43887D01*
X63831Y43566D01*
X63504Y43380D01*
X63177Y43566D01*
X62856Y43887D01*
X62127Y44189D01*
X61338D01*
X60608Y43887D01*
X60050Y43329D01*
X59748Y42599D01*
Y41810D01*
X60050Y41081D01*
X60371Y40760D01*
X60557Y40433D01*
X60371Y40106D01*
X60050Y39785D01*
X59748Y39056D01*
Y38598D01*
X59290D01*
X58561Y38296D01*
X58240Y37975D01*
X57913Y37789D01*
X57587Y37975D01*
X57266Y38296D01*
X56536Y38598D01*
X55747D01*
X55018Y38296D01*
X54460Y37738D01*
X54157Y37009D01*
Y36219D01*
X54460Y35490D01*
X54781Y35169D01*
X54967Y34843D01*
X54781Y34516D01*
X54460Y34195D01*
X54157Y33465D01*
Y32676D01*
X54460Y31947D01*
X54781Y31626D01*
X54967Y31299D01*
X54781Y30973D01*
X54460Y30652D01*
X54157Y29922D01*
Y29133D01*
X54460Y28404D01*
X55018Y27845D01*
X55747Y27543D01*
X56536D01*
X57266Y27845D01*
X57824Y28404D01*
X58126Y29133D01*
Y29922D01*
X57824Y30652D01*
X57503Y30973D01*
X57317Y31299D01*
X57503Y31626D01*
X57587Y31710D01*
X57913Y31896D01*
X58240Y31710D01*
X58561Y31389D01*
X59290Y31087D01*
X60080D01*
X60536Y31275D01*
X60905Y31306D01*
X61189Y31062D01*
X61640Y30281D01*
X62486Y29435D01*
X63522Y28837D01*
X64677Y28528D01*
X65874D01*
X67029Y28837D01*
X68065Y29435D01*
X68911Y30281D01*
X69362Y31062D01*
X69646Y31306D01*
X70016Y31275D01*
X70472Y31087D01*
X71261D01*
X71990Y31389D01*
X72311Y31710D01*
X72638Y31896D01*
X72964Y31710D01*
X73048Y31626D01*
X73234Y31299D01*
X73048Y30973D01*
X72727Y30652D01*
X72425Y29922D01*
Y29133D01*
X72727Y28404D01*
X73286Y27845D01*
X74015Y27543D01*
X74804D01*
X75533Y27845D01*
X76092Y28404D01*
X76394Y29133D01*
Y29922D01*
X76092Y30652D01*
X75771Y30973D01*
X75585Y31299D01*
X75771Y31626D01*
X76092Y31947D01*
X76394Y32676D01*
Y33466D01*
X76092Y34195D01*
X75771Y34516D01*
X75585Y34843D01*
X75771Y35169D01*
X76092Y35490D01*
X76394Y36219D01*
Y37009D01*
X76092Y37738D01*
X75533Y38296D01*
X74804Y38598D01*
X74015D01*
X73286Y38296D01*
X72964Y37975D01*
X72638Y37789D01*
X72311Y37975D01*
X71990Y38296D01*
X71261Y38598D01*
X70803D01*
Y39056D01*
X70501Y39785D01*
X70180Y40106D01*
X69994Y40433D01*
X70180Y40760D01*
X70501Y41081D01*
X70803Y41810D01*
Y42599D01*
X70501Y43329D01*
X69943Y43887D01*
X69213Y44189D01*
D02*
G37*
G36*
X146064Y46472D02*
X145275D01*
X144545Y46170D01*
X143987Y45612D01*
X143685Y44883D01*
Y44093D01*
X143987Y43364D01*
X144545Y42806D01*
X145275Y42504D01*
X146064D01*
X146793Y42806D01*
X147351Y43364D01*
X147653Y44093D01*
Y44883D01*
X147351Y45612D01*
X146793Y46170D01*
X146064Y46472D01*
D02*
G37*
G36*
X195277Y43716D02*
X194487D01*
X193758Y43414D01*
X193200Y42856D01*
X192898Y42127D01*
Y41338D01*
X193200Y40608D01*
X193758Y40050D01*
X194487Y39748D01*
X195277D01*
X196006Y40050D01*
X196564Y40608D01*
X196866Y41338D01*
Y42127D01*
X196564Y42856D01*
X196006Y43414D01*
X195277Y43716D01*
D02*
G37*
G36*
X244489Y42535D02*
X243700D01*
X242970Y42233D01*
X242412Y41675D01*
X242110Y40946D01*
Y40156D01*
X242412Y39427D01*
X242970Y38869D01*
X243700Y38567D01*
X244489D01*
X245218Y38869D01*
X245777Y39427D01*
X246079Y40156D01*
Y40946D01*
X245777Y41675D01*
X245218Y42233D01*
X244489Y42535D01*
D02*
G37*
G36*
X273229Y42142D02*
X272440D01*
X271711Y41840D01*
X271152Y41282D01*
X270850Y40552D01*
Y39763D01*
X271152Y39033D01*
X271711Y38475D01*
X272440Y38173D01*
X273229D01*
X273959Y38475D01*
X274517Y39033D01*
X274819Y39763D01*
Y40552D01*
X274517Y41282D01*
X273959Y41840D01*
X273229Y42142D01*
D02*
G37*
G36*
X117718Y41748D02*
X116928D01*
X116199Y41446D01*
X115641Y40888D01*
X115339Y40159D01*
Y39369D01*
X115641Y38640D01*
X116199Y38082D01*
X116928Y37780D01*
X117718D01*
X118447Y38082D01*
X119005Y38640D01*
X119307Y39369D01*
Y40159D01*
X119005Y40888D01*
X118447Y41446D01*
X117718Y41748D01*
D02*
G37*
G36*
X146064Y38598D02*
X145275D01*
X144545Y38296D01*
X143987Y37738D01*
X143685Y37009D01*
Y36219D01*
X143987Y35490D01*
X144545Y34932D01*
X145275Y34630D01*
X146064D01*
X146793Y34932D01*
X147351Y35490D01*
X147653Y36219D01*
Y37009D01*
X147351Y37738D01*
X146793Y38296D01*
X146064Y38598D01*
D02*
G37*
G36*
X104804Y38598D02*
X104015D01*
X103286Y38296D01*
X102727Y37738D01*
X102425Y37009D01*
Y36219D01*
X102727Y35490D01*
X103048Y35169D01*
X103234Y34843D01*
X103048Y34516D01*
X102964Y34432D01*
X102638Y34246D01*
X102311Y34432D01*
X101990Y34753D01*
X101261Y35055D01*
X100471D01*
X100016Y34866D01*
X99646Y34836D01*
X99362Y35080D01*
X98911Y35860D01*
X98065Y36706D01*
X97029Y37304D01*
X95874Y37614D01*
X94677D01*
X93522Y37304D01*
X92486Y36706D01*
X91640Y35860D01*
X91189Y35080D01*
X90905Y34836D01*
X90535Y34866D01*
X90080Y35055D01*
X89290D01*
X88561Y34753D01*
X88240Y34432D01*
X87913Y34246D01*
X87587Y34432D01*
X87503Y34516D01*
X87317Y34843D01*
X87503Y35169D01*
X87824Y35490D01*
X88126Y36219D01*
Y37009D01*
X87824Y37738D01*
X87266Y38296D01*
X86536Y38598D01*
X85747D01*
X85018Y38296D01*
X84460Y37738D01*
X84157Y37009D01*
Y36219D01*
X84460Y35490D01*
X84781Y35169D01*
X84967Y34843D01*
X84781Y34516D01*
X84460Y34195D01*
X84157Y33465D01*
Y32676D01*
X84460Y31947D01*
X84781Y31626D01*
X84967Y31299D01*
X84781Y30973D01*
X84460Y30652D01*
X84157Y29922D01*
Y29133D01*
X84460Y28404D01*
X85018Y27845D01*
X85747Y27543D01*
X86536D01*
X87266Y27845D01*
X87587Y28166D01*
X87913Y28352D01*
X88240Y28166D01*
X88561Y27845D01*
X89290Y27543D01*
X89748D01*
Y27086D01*
X90050Y26356D01*
X90371Y26035D01*
X90557Y25709D01*
X90371Y25382D01*
X90050Y25061D01*
X89748Y24332D01*
Y23542D01*
X90050Y22813D01*
X90608Y22255D01*
X91338Y21953D01*
X92127D01*
X92856Y22255D01*
X93177Y22576D01*
X93504Y22762D01*
X93831Y22576D01*
X94152Y22255D01*
X94881Y21953D01*
X95670D01*
X96400Y22255D01*
X96721Y22576D01*
X97047Y22762D01*
X97374Y22576D01*
X97695Y22255D01*
X98424Y21953D01*
X99214D01*
X99943Y22255D01*
X100501Y22813D01*
X100803Y23542D01*
Y24332D01*
X100501Y25061D01*
X100180Y25382D01*
X99994Y25709D01*
X100180Y26035D01*
X100501Y26356D01*
X100803Y27086D01*
Y27543D01*
X101261D01*
X101990Y27845D01*
X102311Y28166D01*
X102638Y28353D01*
X102964Y28166D01*
X103286Y27845D01*
X104015Y27543D01*
X104804D01*
X105533Y27845D01*
X106092Y28404D01*
X106394Y29133D01*
Y29922D01*
X106092Y30652D01*
X105771Y30973D01*
X105584Y31299D01*
X105771Y31626D01*
X106092Y31947D01*
X106394Y32676D01*
Y33466D01*
X106092Y34195D01*
X105771Y34516D01*
X105584Y34843D01*
X105771Y35169D01*
X106092Y35490D01*
X106394Y36219D01*
Y37009D01*
X106092Y37738D01*
X105533Y38296D01*
X104804Y38598D01*
D02*
G37*
G36*
X195277Y35842D02*
X194487D01*
X193758Y35540D01*
X193200Y34982D01*
X192898Y34253D01*
Y33464D01*
X193200Y32734D01*
X193758Y32176D01*
X194487Y31874D01*
X195277D01*
X196006Y32176D01*
X196564Y32734D01*
X196866Y33464D01*
Y34253D01*
X196564Y34982D01*
X196006Y35540D01*
X195277Y35842D01*
D02*
G37*
G36*
X244489Y34661D02*
X243700D01*
X242970Y34359D01*
X242412Y33801D01*
X242110Y33072D01*
Y32283D01*
X242412Y31553D01*
X242970Y30995D01*
X243700Y30693D01*
X244489D01*
X245218Y30995D01*
X245777Y31553D01*
X246079Y32283D01*
Y33072D01*
X245777Y33801D01*
X245218Y34359D01*
X244489Y34661D01*
D02*
G37*
G36*
X265355Y34268D02*
X264566D01*
X263837Y33966D01*
X263279Y33408D01*
X262976Y32678D01*
Y31889D01*
X263279Y31159D01*
X263837Y30601D01*
X264566Y30299D01*
X265355D01*
X266085Y30601D01*
X266643Y31159D01*
X266945Y31889D01*
Y32678D01*
X266643Y33408D01*
X266085Y33966D01*
X265355Y34268D01*
D02*
G37*
G36*
X253151D02*
X252361D01*
X251632Y33966D01*
X251074Y33408D01*
X250772Y32678D01*
Y31889D01*
X251074Y31159D01*
X251632Y30601D01*
X252361Y30299D01*
X253151D01*
X253880Y30601D01*
X254438Y31159D01*
X254740Y31889D01*
Y32678D01*
X254438Y33408D01*
X253880Y33966D01*
X253151Y34268D01*
D02*
G37*
G36*
X137796Y33874D02*
X137007D01*
X136278Y33572D01*
X135719Y33014D01*
X135417Y32284D01*
Y31495D01*
X135719Y30766D01*
X136278Y30208D01*
X137007Y29906D01*
X137796D01*
X138526Y30208D01*
X139084Y30766D01*
X139386Y31495D01*
Y32284D01*
X139084Y33014D01*
X138526Y33572D01*
X137796Y33874D01*
D02*
G37*
G36*
X125592D02*
X124802D01*
X124073Y33572D01*
X123515Y33014D01*
X123213Y32284D01*
Y31495D01*
X123515Y30766D01*
X124073Y30208D01*
X124802Y29906D01*
X125592D01*
X126321Y30208D01*
X126879Y30766D01*
X127181Y31495D01*
Y32284D01*
X126879Y33014D01*
X126321Y33572D01*
X125592Y33874D01*
D02*
G37*
G36*
X285749Y38598D02*
X284960D01*
X284230Y38296D01*
X283672Y37738D01*
X283370Y37009D01*
Y36219D01*
X283672Y35490D01*
X283993Y35169D01*
X284179Y34843D01*
X283993Y34516D01*
X283672Y34195D01*
X283370Y33466D01*
Y32676D01*
X283672Y31947D01*
X283993Y31626D01*
X284179Y31299D01*
X283993Y30973D01*
X283672Y30652D01*
X283370Y29922D01*
Y29133D01*
X283672Y28404D01*
X284230Y27845D01*
X284960Y27543D01*
X285749D01*
X286478Y27845D01*
X286799Y28166D01*
X287126Y28353D01*
X287453Y28166D01*
X287774Y27845D01*
X288503Y27543D01*
X288961D01*
Y27086D01*
X289263Y26356D01*
X289584Y26035D01*
X289770Y25709D01*
X289584Y25382D01*
X289263Y25061D01*
X288961Y24332D01*
Y23542D01*
X289263Y22813D01*
X289821Y22255D01*
X290550Y21953D01*
X291340D01*
X292069Y22255D01*
X292390Y22576D01*
X292717Y22762D01*
X293043Y22576D01*
X293364Y22255D01*
X294093Y21953D01*
X294883D01*
X295612Y22255D01*
X295933Y22576D01*
X296260Y22762D01*
X296586Y22576D01*
X296907Y22255D01*
X297637Y21953D01*
X298426D01*
X299155Y22255D01*
X299714Y22813D01*
X300016Y23542D01*
Y24332D01*
X299714Y25061D01*
X299393Y25382D01*
X299206Y25709D01*
X299393Y26035D01*
X299714Y26356D01*
X300016Y27086D01*
Y27543D01*
X300473D01*
X301203Y27845D01*
X301524Y28166D01*
X301851Y28352D01*
X302177Y28166D01*
X302498Y27845D01*
X303227Y27543D01*
X304017D01*
X304746Y27845D01*
X305304Y28404D01*
X305606Y29133D01*
Y29922D01*
X305304Y30652D01*
X304983Y30973D01*
X304797Y31299D01*
X304983Y31626D01*
X305304Y31947D01*
X305606Y32676D01*
Y33465D01*
X305304Y34195D01*
X304983Y34516D01*
X304797Y34843D01*
X304983Y35169D01*
X305304Y35490D01*
X305606Y36219D01*
Y37009D01*
X305304Y37738D01*
X304746Y38296D01*
X304017Y38598D01*
X303227D01*
X302498Y38296D01*
X301940Y37738D01*
X301638Y37009D01*
Y36219D01*
X301940Y35490D01*
X302261Y35169D01*
X302447Y34843D01*
X302261Y34516D01*
X302177Y34432D01*
X301851Y34246D01*
X301524Y34432D01*
X301203Y34753D01*
X300473Y35055D01*
X299684D01*
X299228Y34866D01*
X298858Y34836D01*
X298574Y35080D01*
X298124Y35860D01*
X297278Y36706D01*
X296242Y37304D01*
X295086Y37614D01*
X293890D01*
X292735Y37304D01*
X291699Y36706D01*
X290853Y35860D01*
X290402Y35080D01*
X290118Y34836D01*
X289748Y34866D01*
X289292Y35055D01*
X288503D01*
X287774Y34753D01*
X287453Y34432D01*
X287126Y34246D01*
X286799Y34432D01*
X286716Y34516D01*
X286529Y34843D01*
X286716Y35169D01*
X287036Y35490D01*
X287339Y36219D01*
Y37009D01*
X287036Y37738D01*
X286478Y38296D01*
X285749Y38598D01*
D02*
G37*
G36*
X146064Y30724D02*
X145275D01*
X144545Y30422D01*
X143987Y29864D01*
X143685Y29135D01*
Y28346D01*
X143987Y27616D01*
X144545Y27058D01*
X145275Y26756D01*
X146064D01*
X146793Y27058D01*
X147351Y27616D01*
X147653Y28346D01*
Y29135D01*
X147351Y29864D01*
X146793Y30422D01*
X146064Y30724D01*
D02*
G37*
G36*
X195277Y27968D02*
X194487D01*
X193758Y27666D01*
X193200Y27108D01*
X192898Y26379D01*
Y25590D01*
X193200Y24860D01*
X193758Y24302D01*
X194487Y24000D01*
X195277D01*
X196006Y24302D01*
X196564Y24860D01*
X196866Y25590D01*
Y26379D01*
X196564Y27108D01*
X196006Y27666D01*
X195277Y27968D01*
D02*
G37*
G36*
X244489Y26787D02*
X243700D01*
X242970Y26485D01*
X242412Y25927D01*
X242110Y25198D01*
Y24408D01*
X242412Y23679D01*
X242970Y23121D01*
X243700Y22819D01*
X244489D01*
X245218Y23121D01*
X245777Y23679D01*
X246079Y24408D01*
Y25198D01*
X245777Y25927D01*
X245218Y26485D01*
X244489Y26787D01*
D02*
G37*
G36*
X146064Y22850D02*
X145275D01*
X144545Y22548D01*
X143987Y21990D01*
X143685Y21261D01*
Y20471D01*
X143987Y19742D01*
X144545Y19184D01*
X145275Y18882D01*
X146064D01*
X146793Y19184D01*
X147351Y19742D01*
X147653Y20471D01*
Y21261D01*
X147351Y21990D01*
X146793Y22548D01*
X146064Y22850D01*
D02*
G37*
G36*
X195277Y20095D02*
X194487D01*
X193758Y19792D01*
X193200Y19234D01*
X192898Y18505D01*
Y17716D01*
X193200Y16986D01*
X193758Y16428D01*
X194487Y16126D01*
X195277D01*
X196006Y16428D01*
X196564Y16986D01*
X196866Y17716D01*
Y18505D01*
X196564Y19234D01*
X196006Y19792D01*
X195277Y20095D01*
D02*
G37*
G36*
X244489Y18913D02*
X243700D01*
X242970Y18611D01*
X242412Y18053D01*
X242110Y17324D01*
Y16534D01*
X242412Y15805D01*
X242970Y15247D01*
X243700Y14945D01*
X244489D01*
X245218Y15247D01*
X245777Y15805D01*
X246079Y16534D01*
Y17324D01*
X245777Y18053D01*
X245218Y18611D01*
X244489Y18913D01*
D02*
G37*
G36*
X240552Y14976D02*
X239763D01*
X239034Y14674D01*
X238475Y14116D01*
X238173Y13387D01*
Y12597D01*
X238475Y11868D01*
X239034Y11310D01*
X239763Y11008D01*
X240552D01*
X241282Y11310D01*
X241840Y11868D01*
X242142Y12597D01*
Y13387D01*
X241840Y14116D01*
X241282Y14674D01*
X240552Y14976D01*
D02*
G37*
G36*
X232678D02*
X231889D01*
X231159Y14674D01*
X230601Y14116D01*
X230299Y13387D01*
Y12597D01*
X230601Y11868D01*
X231159Y11310D01*
X231889Y11008D01*
X232678D01*
X233407Y11310D01*
X233966Y11868D01*
X234268Y12597D01*
Y13387D01*
X233966Y14116D01*
X233407Y14674D01*
X232678Y14976D01*
D02*
G37*
G36*
X224804D02*
X224015D01*
X223286Y14674D01*
X222727Y14116D01*
X222425Y13387D01*
Y12597D01*
X222727Y11868D01*
X223286Y11310D01*
X224015Y11008D01*
X224804D01*
X225533Y11310D01*
X226092Y11868D01*
X226394Y12597D01*
Y13387D01*
X226092Y14116D01*
X225533Y14674D01*
X224804Y14976D01*
D02*
G37*
G36*
X216930D02*
X216141D01*
X215411Y14674D01*
X214853Y14116D01*
X214551Y13387D01*
Y12597D01*
X214853Y11868D01*
X215411Y11310D01*
X216141Y11008D01*
X216930D01*
X217659Y11310D01*
X218218Y11868D01*
X218520Y12597D01*
Y13387D01*
X218218Y14116D01*
X217659Y14674D01*
X216930Y14976D01*
D02*
G37*
G36*
X209056D02*
X208267D01*
X207537Y14674D01*
X206979Y14116D01*
X206677Y13387D01*
Y12597D01*
X206979Y11868D01*
X207537Y11310D01*
X208267Y11008D01*
X209056D01*
X209785Y11310D01*
X210344Y11868D01*
X210646Y12597D01*
Y13387D01*
X210344Y14116D01*
X209785Y14674D01*
X209056Y14976D01*
D02*
G37*
G36*
X201182D02*
X200393D01*
X199663Y14674D01*
X199105Y14116D01*
X198803Y13387D01*
Y12597D01*
X199105Y11868D01*
X199663Y11310D01*
X200393Y11008D01*
X201182D01*
X201911Y11310D01*
X202470Y11868D01*
X202772Y12597D01*
Y13387D01*
X202470Y14116D01*
X201911Y14674D01*
X201182Y14976D01*
D02*
G37*
G36*
X193308D02*
X192519D01*
X191789Y14674D01*
X191231Y14116D01*
X190929Y13387D01*
Y12597D01*
X191231Y11868D01*
X191789Y11310D01*
X192519Y11008D01*
X193308D01*
X194037Y11310D01*
X194596Y11868D01*
X194898Y12597D01*
Y13387D01*
X194596Y14116D01*
X194037Y14674D01*
X193308Y14976D01*
D02*
G37*
G36*
X185434D02*
X184645D01*
X183915Y14674D01*
X183357Y14116D01*
X183055Y13387D01*
Y12597D01*
X183357Y11868D01*
X183915Y11310D01*
X184645Y11008D01*
X185434D01*
X186163Y11310D01*
X186722Y11868D01*
X187024Y12597D01*
Y13387D01*
X186722Y14116D01*
X186163Y14674D01*
X185434Y14976D01*
D02*
G37*
G36*
X177560D02*
X176771D01*
X176041Y14674D01*
X175483Y14116D01*
X175181Y13387D01*
Y12597D01*
X175483Y11868D01*
X176041Y11310D01*
X176771Y11008D01*
X177560D01*
X178289Y11310D01*
X178848Y11868D01*
X179150Y12597D01*
Y13387D01*
X178848Y14116D01*
X178289Y14674D01*
X177560Y14976D01*
D02*
G37*
G36*
X169686D02*
X168897D01*
X168167Y14674D01*
X167609Y14116D01*
X167307Y13387D01*
Y12597D01*
X167609Y11868D01*
X168167Y11310D01*
X168897Y11008D01*
X169686D01*
X170415Y11310D01*
X170974Y11868D01*
X171276Y12597D01*
Y13387D01*
X170974Y14116D01*
X170415Y14674D01*
X169686Y14976D01*
D02*
G37*
G36*
X161812D02*
X161023D01*
X160293Y14674D01*
X159735Y14116D01*
X159433Y13387D01*
Y12597D01*
X159735Y11868D01*
X160293Y11310D01*
X161023Y11008D01*
X161812D01*
X162541Y11310D01*
X163100Y11868D01*
X163402Y12597D01*
Y13387D01*
X163100Y14116D01*
X162541Y14674D01*
X161812Y14976D01*
D02*
G37*
G36*
X153938D02*
X153149D01*
X152419Y14674D01*
X151861Y14116D01*
X151559Y13387D01*
Y12597D01*
X151861Y11868D01*
X152419Y11310D01*
X153149Y11008D01*
X153938D01*
X154667Y11310D01*
X155226Y11868D01*
X155528Y12597D01*
Y13387D01*
X155226Y14116D01*
X154667Y14674D01*
X153938Y14976D01*
D02*
G37*
G36*
X146064D02*
X145275D01*
X144545Y14674D01*
X143987Y14116D01*
X143685Y13387D01*
Y12597D01*
X143987Y11868D01*
X144545Y11310D01*
X145275Y11008D01*
X146064D01*
X146793Y11310D01*
X147351Y11868D01*
X147653Y12597D01*
Y13387D01*
X147351Y14116D01*
X146793Y14674D01*
X146064Y14976D01*
D02*
G37*
G36*
X382544Y16783D02*
X381235D01*
X379971Y16445D01*
X378837Y15790D01*
X377911Y14864D01*
X377256Y13730D01*
X376917Y12466D01*
Y11156D01*
X377256Y9892D01*
X377911Y8758D01*
X378837Y7832D01*
X379971Y7177D01*
X381235Y6839D01*
X382544D01*
X383809Y7177D01*
X384943Y7832D01*
X385869Y8758D01*
X386523Y9892D01*
X386862Y11156D01*
Y12466D01*
X386523Y13730D01*
X385869Y14864D01*
X384943Y15790D01*
X383809Y16445D01*
X382544Y16783D01*
D02*
G37*
G36*
X12466D02*
X11156D01*
X9892Y16445D01*
X8758Y15790D01*
X7832Y14864D01*
X7177Y13730D01*
X6839Y12466D01*
Y11156D01*
X7177Y9892D01*
X7832Y8758D01*
X8758Y7832D01*
X9892Y7177D01*
X11156Y6839D01*
X12466D01*
X13730Y7177D01*
X14864Y7832D01*
X15790Y8758D01*
X16445Y9892D01*
X16783Y11156D01*
Y12466D01*
X16445Y13730D01*
X15790Y14864D01*
X14864Y15790D01*
X13730Y16445D01*
X12466Y16783D01*
D02*
G37*
%LPD*%
G36*
X104739Y231705D02*
X96079Y223045D01*
X95390D01*
Y223697D01*
X87287D01*
Y223045D01*
X86083D01*
X85497Y222929D01*
X85001Y222597D01*
X83170Y220766D01*
X82839Y220270D01*
X82723Y219685D01*
Y213921D01*
X82570Y213768D01*
X82447Y213471D01*
X81857Y213354D01*
X69409Y225802D01*
X68913Y226133D01*
X68328Y226250D01*
X62381D01*
X61796Y226133D01*
X61569Y225982D01*
X61069Y226249D01*
Y229378D01*
X63858Y232168D01*
X87287D01*
Y232016D01*
X91339D01*
X95390D01*
Y232168D01*
X104548D01*
X104739Y231705D01*
D02*
G37*
G36*
X108547Y224335D02*
Y224335D01*
X115120D01*
Y223726D01*
X113279D01*
X113132Y223697D01*
X108547D01*
Y219335D01*
X116620D01*
Y218697D01*
X108547D01*
Y218361D01*
X106290D01*
X105906Y218520D01*
X105117D01*
X104388Y218218D01*
X103830Y217659D01*
X103528Y216930D01*
Y216141D01*
X103830Y215411D01*
X104388Y214853D01*
X105117Y214551D01*
X105906D01*
X106242Y214690D01*
X108547D01*
Y214335D01*
X116620D01*
Y201020D01*
X108547D01*
Y200368D01*
X107500D01*
X106915Y200252D01*
X106419Y199920D01*
X96867Y190368D01*
X95390D01*
Y191020D01*
X87287D01*
X87287Y191020D01*
Y191020D01*
X86891Y191256D01*
X86236Y191911D01*
Y192127D01*
X85934Y192856D01*
X85376Y193414D01*
X84647Y193717D01*
X83857D01*
X83128Y193414D01*
X82570Y192856D01*
X82268Y192127D01*
Y191338D01*
X82570Y190608D01*
X83128Y190050D01*
X83857Y189748D01*
X84073D01*
X86064Y187757D01*
X86560Y187426D01*
X87146Y187309D01*
X87287D01*
Y186658D01*
X95390D01*
Y187309D01*
X97500D01*
X98085Y187426D01*
X98581Y187757D01*
X106570Y195746D01*
X107031Y195500D01*
X107018Y195434D01*
Y192243D01*
X107134Y191658D01*
X107466Y191162D01*
X108052Y190576D01*
X108547Y190245D01*
Y186658D01*
X115400D01*
Y186020D01*
X108547D01*
Y185684D01*
X105896D01*
X105513Y185843D01*
X104723D01*
X103994Y185540D01*
X103436Y184982D01*
X103134Y184253D01*
Y183464D01*
X103436Y182734D01*
X103994Y182176D01*
X104723Y181874D01*
X105513D01*
X105849Y182013D01*
X108547D01*
Y181658D01*
X115400D01*
Y180270D01*
X87402D01*
X86816Y180153D01*
X86320Y179822D01*
X84178Y177680D01*
X83962D01*
X83233Y177378D01*
X82675Y176820D01*
X82615Y176675D01*
X82125Y176578D01*
X80849Y177853D01*
X80353Y178185D01*
X79768Y178301D01*
X66597D01*
X66406Y178763D01*
X68314Y180671D01*
X68645Y181167D01*
X68649Y181185D01*
X68913D01*
Y188894D01*
X68852D01*
Y190143D01*
X69314Y190334D01*
X76891Y182757D01*
X77387Y182426D01*
X77973Y182309D01*
X87287D01*
Y181658D01*
X95390D01*
Y186020D01*
X87287D01*
Y185368D01*
X78606D01*
X64747Y199227D01*
X64938Y199689D01*
X66945D01*
Y203543D01*
Y207398D01*
X63764D01*
Y203543D01*
X63020D01*
X63008Y203601D01*
Y207398D01*
X61260D01*
X61069Y207860D01*
X68404Y215195D01*
X68736Y215691D01*
X68852Y216276D01*
Y217012D01*
X68913D01*
Y221319D01*
X69375Y221510D01*
X81807Y209078D01*
X82303Y208747D01*
X82888Y208630D01*
X83786D01*
X83857Y208160D01*
X83128Y207858D01*
X82570Y207299D01*
X82268Y206570D01*
Y205781D01*
X82570Y205052D01*
X83128Y204493D01*
X83857Y204191D01*
X84647D01*
X85376Y204493D01*
X85529Y204646D01*
X95321D01*
Y201020D01*
X91839D01*
Y198839D01*
Y196658D01*
X95321D01*
Y196020D01*
X87287D01*
Y191657D01*
X95390D01*
Y192309D01*
X96265D01*
X96850Y192426D01*
X97346Y192757D01*
X97932Y193343D01*
X98263Y193839D01*
X98380Y194424D01*
Y206176D01*
Y214721D01*
X108156Y224497D01*
X108547Y224335D01*
D02*
G37*
G36*
X43364Y223515D02*
X44093Y223213D01*
X44310D01*
X47541Y219982D01*
X48037Y219650D01*
X48622Y219534D01*
X50575D01*
Y218193D01*
X50575D01*
Y218027D01*
X50575D01*
Y215657D01*
X53543D01*
X56512D01*
Y216074D01*
X57012Y216281D01*
X57363Y215930D01*
X57859Y215599D01*
X58444Y215482D01*
X61591D01*
X61783Y215020D01*
X53324Y206562D01*
X52992Y206066D01*
X52876Y205480D01*
Y201606D01*
X52992Y201021D01*
X53324Y200525D01*
X63825Y190024D01*
Y188894D01*
X60120D01*
X42474Y206539D01*
Y223697D01*
X42974Y223905D01*
X43364Y223515D01*
D02*
G37*
G36*
X85966Y168411D02*
X86462Y168079D01*
X87047Y167963D01*
X87681D01*
Y165431D01*
X86611Y164361D01*
X80489D01*
X80282Y164861D01*
X80438Y165017D01*
X80740Y165746D01*
Y166535D01*
X80438Y167265D01*
X79880Y167823D01*
X79151Y168125D01*
X78361D01*
X77632Y167823D01*
X77074Y167265D01*
X76919Y166892D01*
X72352D01*
X72252Y167392D01*
X72777Y167609D01*
X73336Y168167D01*
X73594Y168791D01*
X71653D01*
Y169791D01*
X73594D01*
X73336Y170415D01*
X72777Y170974D01*
X72048Y171276D01*
X71832D01*
X69192Y173916D01*
X68695Y174248D01*
X68110Y174364D01*
X65369D01*
X65178Y174826D01*
X65594Y175242D01*
X79134D01*
X85966Y168411D01*
D02*
G37*
%LPC*%
G36*
X95390Y231016D02*
X91839D01*
Y229335D01*
X95390D01*
Y231016D01*
D02*
G37*
G36*
X90839D02*
X87287D01*
Y229335D01*
X90839D01*
Y231016D01*
D02*
G37*
G36*
X79028Y228319D02*
X78404Y228060D01*
X77953Y227609D01*
X77502Y228060D01*
X76878Y228319D01*
Y226378D01*
Y224437D01*
X77502Y224696D01*
X77953Y225147D01*
X78404Y224696D01*
X79028Y224437D01*
Y226378D01*
Y228319D01*
D02*
G37*
G36*
X80028D02*
Y226878D01*
X81468D01*
X81210Y227502D01*
X80651Y228060D01*
X80028Y228319D01*
D02*
G37*
G36*
X75878D02*
X75254Y228060D01*
X74696Y227502D01*
X74437Y226878D01*
X75878D01*
Y228319D01*
D02*
G37*
G36*
X81468Y225878D02*
X80028D01*
Y224437D01*
X80651Y224696D01*
X81210Y225254D01*
X81468Y225878D01*
D02*
G37*
G36*
X75878D02*
X74437D01*
X74696Y225254D01*
X75254Y224696D01*
X75878Y224437D01*
Y225878D01*
D02*
G37*
G36*
X84647Y228756D02*
X83857D01*
X83128Y228454D01*
X82570Y227896D01*
X82268Y227166D01*
Y226377D01*
X82570Y225648D01*
X83128Y225090D01*
X83857Y224787D01*
X84647D01*
X85376Y225090D01*
X85401Y225114D01*
X87287D01*
Y224335D01*
X95390D01*
Y228697D01*
X87287D01*
Y228173D01*
X85657D01*
X85376Y228454D01*
X84647Y228756D01*
D02*
G37*
G36*
X73516Y212571D02*
X72892Y212312D01*
X72441Y211861D01*
X71990Y212312D01*
X71366Y212571D01*
Y210630D01*
X70866D01*
Y210130D01*
X68925D01*
X69184Y209506D01*
X69742Y208948D01*
X70471Y208646D01*
X70559Y208515D01*
X70500Y208374D01*
X74486D01*
X74718Y208773D01*
X75140Y208948D01*
X75698Y209506D01*
X75956Y210130D01*
X74016D01*
Y210630D01*
X73516D01*
Y212571D01*
D02*
G37*
G36*
X74516D02*
Y211130D01*
X75956D01*
X75698Y211754D01*
X75140Y212312D01*
X74516Y212571D01*
D02*
G37*
G36*
X70366D02*
X69742Y212312D01*
X69184Y211754D01*
X68925Y211130D01*
X70366D01*
Y212571D01*
D02*
G37*
G36*
X74382Y207374D02*
X72941D01*
Y205933D01*
X73565Y206192D01*
X74123Y206750D01*
X74382Y207374D01*
D02*
G37*
G36*
X71941D02*
X70500D01*
X70759Y206750D01*
X71317Y206192D01*
X71941Y205933D01*
Y207374D01*
D02*
G37*
G36*
X68913Y207398D02*
X67823D01*
Y204043D01*
X68913D01*
Y207398D01*
D02*
G37*
G36*
Y203043D02*
X67823D01*
Y199689D01*
X68913D01*
Y203043D01*
D02*
G37*
G36*
X90839Y201020D02*
X87287D01*
Y199339D01*
X90839D01*
Y201020D01*
D02*
G37*
G36*
Y198339D02*
X87287D01*
Y196658D01*
X90839D01*
Y198339D01*
D02*
G37*
G36*
X56512Y214657D02*
X54043D01*
Y212287D01*
X56512D01*
Y214657D01*
D02*
G37*
G36*
X53043D02*
X50575D01*
Y212287D01*
X53043D01*
Y214657D01*
D02*
G37*
G36*
X46563Y212177D02*
Y210736D01*
X48004D01*
X47745Y211360D01*
X47187Y211918D01*
X46563Y212177D01*
D02*
G37*
G36*
X45563D02*
X44939Y211918D01*
X44381Y211360D01*
X44122Y210736D01*
X45563D01*
Y212177D01*
D02*
G37*
G36*
X48004Y209736D02*
X46563D01*
Y208296D01*
X47187Y208554D01*
X47745Y209112D01*
X48004Y209736D01*
D02*
G37*
G36*
X45563D02*
X44122D01*
X44381Y209112D01*
X44939Y208554D01*
X45563Y208296D01*
Y209736D01*
D02*
G37*
%LPD*%
D12*
X67323Y165453D02*
X67413Y165362D01*
X77715D02*
X78494Y166141D01*
X68110Y172835D02*
X71653Y169291D01*
X64173Y172835D02*
X68110D01*
X67323Y165453D02*
Y167717D01*
X67413Y165362D02*
X77715D01*
X78494Y166141D02*
X78756D01*
X232012Y182161D02*
X282752D01*
X284842Y184252D01*
X211417Y202756D02*
X232012Y182161D01*
X244094Y188583D02*
X268110D01*
X164173Y205906D02*
X226772D01*
X244094Y188583D01*
X63386Y167717D02*
Y172047D01*
X64173Y172835D01*
X55118Y135433D02*
Y169638D01*
X61508Y167807D02*
Y173319D01*
X53543Y133736D02*
Y170185D01*
X55118Y169638D02*
X67232Y181753D01*
X53543Y178937D02*
X60174D01*
X53543Y170185D02*
X65264Y181905D01*
X60174Y178937D02*
X63295Y182058D01*
X61417Y167717D02*
X61508Y167807D01*
Y173319D02*
X64961Y176772D01*
X79768D01*
X87047Y169492D01*
X84357Y175696D02*
X87402Y178740D01*
X63295Y184949D02*
X63386Y185039D01*
X65264Y181905D02*
Y184949D01*
X67232Y181753D02*
Y184949D01*
X63295Y182058D02*
Y184949D01*
X53347Y178740D02*
X53543Y178937D01*
X45669Y178740D02*
X53347D01*
X63295Y217626D02*
Y220776D01*
X62681Y217012D02*
X63295Y217626D01*
X58444Y217012D02*
X62681D01*
X63295Y220776D02*
X63386Y220866D01*
X57728Y217728D02*
X58444Y217012D01*
X57728Y217728D02*
Y220347D01*
X57012Y221063D02*
X57728Y220347D01*
X53543Y221063D02*
X57012D01*
X44488Y225197D02*
X48622Y221063D01*
X53543D01*
X40945Y205906D02*
Y231102D01*
X45039Y235197D02*
X116685D01*
X40945Y231102D02*
X45039Y235197D01*
X40945Y205906D02*
X59358Y187492D01*
Y185130D02*
X59449Y185039D01*
X59358Y185130D02*
Y187492D01*
X113673Y162354D02*
X116343D01*
X117043Y163054D02*
Y173268D01*
X116343Y162354D02*
X117043Y163054D01*
X116929Y173383D02*
X117043Y173268D01*
X116929Y173383D02*
Y178740D01*
X87402D02*
X116929D01*
Y191378D01*
X55118Y135433D02*
X130315Y60236D01*
X62725Y135560D02*
X88157Y160992D01*
X61806Y135560D02*
X62725D01*
X60024Y134040D02*
X60286D01*
X130315Y60236D02*
X210083D01*
X60286Y134040D02*
X61806Y135560D01*
X210083Y60236D02*
X275011Y125164D01*
X211234Y57874D02*
X275893Y122532D01*
X275011Y126193D02*
X275197Y126378D01*
X275011Y125164D02*
Y126193D01*
X129405Y57874D02*
X211234D01*
X53543Y133736D02*
X129405Y57874D01*
X89232Y165992D02*
X89913Y166673D01*
X91732D01*
X89232Y164820D02*
Y165992D01*
X60035Y162831D02*
X87244D01*
X89232Y164820D01*
X116685Y235197D02*
X118150Y233732D01*
Y198743D02*
Y233732D01*
X84380Y226644D02*
X91211D01*
X84252Y226772D02*
X84380Y226644D01*
X63224Y233697D02*
X116064D01*
X59539Y220957D02*
Y230012D01*
X63224Y233697D01*
X116650Y222783D02*
Y233111D01*
X91211Y226644D02*
X91339Y226516D01*
X115745Y196339D02*
X118150Y198743D01*
X109452Y196339D02*
X115745D01*
X108547Y195434D02*
X109452Y196339D01*
X108547Y192243D02*
X109133Y191657D01*
X108547Y192243D02*
Y195434D01*
X109133Y191657D02*
X112013D01*
X112598Y191072D01*
Y188839D02*
Y191072D01*
X54405Y201606D02*
X65354Y190657D01*
Y185039D02*
Y190657D01*
X67323Y185039D02*
Y190810D01*
X55905Y202227D02*
X67323Y190810D01*
X65264Y184949D02*
X65354Y185039D01*
X116064Y222197D02*
X116650Y222783D01*
X113279Y222197D02*
X116064D01*
X112598Y221516D02*
X113279Y222197D01*
X59449Y220866D02*
X59539Y220957D01*
X116064Y233697D02*
X116650Y233111D01*
X61417Y220866D02*
X61508Y220957D01*
Y223847D01*
X62381Y224721D01*
X68328D01*
X82888Y210160D01*
X85281D02*
X86736Y211615D01*
Y213673D01*
X82888Y210160D02*
X85281D01*
X86202Y214208D02*
X86736Y213673D01*
X86202Y214208D02*
Y215930D01*
X86787Y216516D01*
X91339D01*
X54405Y201606D02*
Y205480D01*
X65354Y216429D01*
Y220866D01*
X55905Y204859D02*
X67323Y216276D01*
X55905Y202227D02*
Y204859D01*
X67323Y216276D02*
Y220866D01*
X67232Y184949D02*
X67323Y185039D01*
X77973Y183839D02*
X91339D01*
X61417Y203543D02*
X61508Y203453D01*
Y200303D02*
Y203453D01*
Y200303D02*
X77973Y183839D01*
X108012Y226516D02*
X112598D01*
X96850Y215354D02*
X108012Y226516D01*
X96850Y206176D02*
Y215354D01*
X87047Y169492D02*
X108941D01*
X111122Y171673D02*
X112992D01*
X108941Y169492D02*
X111122Y171673D01*
X112992Y161673D02*
X113673Y162354D01*
X59449Y163417D02*
Y167717D01*
Y163417D02*
X60035Y162831D01*
X88157Y160992D02*
X91051D01*
X91732Y161673D01*
Y156673D02*
X97618D01*
X107618Y166673D02*
X112992D01*
X97618Y156673D02*
X107618Y166673D01*
X89862Y156673D02*
X91732D01*
X84437Y151248D02*
X89862Y156673D01*
X84437Y150973D02*
Y151248D01*
X84252Y150787D02*
X84437Y150973D01*
X112598Y193839D02*
X114469D01*
X116929Y191378D01*
X84252Y191732D02*
X87146Y188839D01*
X91339D01*
X84252Y206176D02*
X96850D01*
X91339Y193839D02*
X96265D01*
X96850Y194424D01*
Y206176D01*
X91339Y188839D02*
X97500D01*
X107500Y198839D01*
X112598D01*
X84252Y212644D02*
Y219685D01*
X91339Y221516D02*
X96713D01*
X106713Y231516D02*
X112598D01*
X96713Y221516D02*
X106713Y231516D01*
X84252Y219685D02*
X86083Y221516D01*
X91339D01*
X198819Y197446D02*
X200708Y199335D01*
X211689D01*
X232677Y178347D01*
X145276Y216142D02*
X166142Y237008D01*
X145276Y187402D02*
X147638Y185039D01*
X145276Y187402D02*
Y216142D01*
X166142Y237008D02*
Y238583D01*
X148031Y199606D02*
X164567Y216142D01*
X228346D01*
X249213Y195276D01*
X147638Y171653D02*
Y185039D01*
Y171653D02*
X187402D01*
X195276Y179528D01*
X177953Y144095D02*
X198819Y164961D01*
X161024Y144095D02*
X177953D01*
X198819Y164961D02*
Y197446D01*
X159638Y268550D02*
Y268693D01*
X157323Y264961D02*
Y266235D01*
X159638Y268550D01*
Y268693D02*
X161024Y270079D01*
X221369D01*
X289764Y201684D01*
Y184252D02*
Y201684D01*
X230271Y259055D02*
X284842Y204484D01*
X183071Y259055D02*
X230271D01*
X284842Y184252D02*
Y204484D01*
X170866Y202756D02*
X211417D01*
X232677Y178347D02*
X283951D01*
X249213Y195276D02*
X280709D01*
X268898Y192126D02*
X272441Y188583D01*
X226378Y209842D02*
X244094Y192126D01*
X268898D01*
X148031Y189764D02*
Y199606D01*
X151969Y189764D02*
Y198819D01*
X162992Y209842D01*
X226378D01*
X167717Y189764D02*
Y199606D01*
X170866Y202756D01*
X283951Y178347D02*
X289764Y184159D01*
X156299Y198031D02*
X164173Y205906D01*
X156299Y189764D02*
Y198031D01*
X316142Y156299D02*
Y185433D01*
X342520Y211811D02*
X363779D01*
X316142Y185433D02*
X342520Y211811D01*
X309449Y149606D02*
X316142Y156299D01*
X363779Y211811D02*
X364961Y212992D01*
Y222047D01*
X311811Y187008D02*
X338976Y214173D01*
Y222441D01*
X311811Y156058D02*
Y187008D01*
X308902Y153150D02*
X311811Y156058D01*
X305906Y153150D02*
X308902D01*
X289764Y184159D02*
Y184252D01*
D42*
X294488Y33071D02*
D03*
X324488D02*
D03*
X95276D02*
D03*
X65276D02*
D03*
D47*
X0Y276772D02*
G03*
X-1181Y275590I0J-1181D01*
G01*
X394882D02*
G03*
X393701Y276772I-1181J0D01*
G01*
Y-1181D02*
G03*
X394882Y0I0J1181D01*
G01*
Y275590D02*
G03*
X393701Y276772I-1181J0D01*
G01*
X-1181Y0D02*
G03*
X0Y-1181I1181J0D01*
G01*
Y276772D02*
G03*
X-1181Y275590I0J-1181D01*
G01*
X393701Y-1181D02*
G03*
X394882Y0I0J1181D01*
G01*
X-1181D02*
G03*
X0Y-1181I1181J0D01*
G01*
X-1181Y0D02*
Y275590D01*
X0Y-1181D02*
X393701D01*
X0Y276772D02*
X393701D01*
X394882Y0D02*
Y275590D01*
D51*
X53543Y221063D02*
D03*
Y215158D02*
D03*
Y178937D02*
D03*
Y184843D02*
D03*
D72*
X97449Y175520D02*
X97567D01*
X91732Y171673D02*
X93602D01*
X97449Y175520D01*
X97567D02*
X97638Y175591D01*
X105128Y183848D02*
X112589D01*
X112598Y183839D01*
X105118Y183858D02*
X105128Y183848D01*
X105522Y216526D02*
X112589D01*
X105512Y216535D02*
X105522Y216526D01*
X112589D02*
X112598Y216516D01*
X211034Y69291D02*
X211441Y68884D01*
X215218D01*
X165354Y69291D02*
X211034D01*
X162598Y77559D02*
X167323Y72835D01*
X217717D02*
X223228Y78347D01*
X167323Y72835D02*
X217717D01*
X159449Y75197D02*
X165354Y69291D01*
X173622Y83071D02*
X206693D01*
X221260Y97638D01*
X204331Y196850D02*
X221260Y179921D01*
Y97638D02*
Y179921D01*
X166142Y83071D02*
X166212Y83141D01*
X162598Y77559D02*
Y100394D01*
X166212Y85897D02*
X168898Y88583D01*
X166212Y83141D02*
Y85897D01*
X162598Y100394D02*
X172047Y109843D01*
X159449Y102362D02*
X171653Y114567D01*
X159449Y75197D02*
Y102362D01*
X202881Y114692D02*
X204206D01*
X202756Y114567D02*
X202881Y114692D01*
X204206D02*
X207480Y111417D01*
X171653Y114567D02*
X202756D01*
X207480Y103937D02*
Y111417D01*
X223228Y78347D02*
Y83071D01*
X172047Y109843D02*
X177559D01*
X216142Y99606D02*
Y156299D01*
X168898Y88583D02*
X205118D01*
X216142Y99606D01*
D75*
X143819Y119291D02*
D03*
X190157Y264961D02*
D03*
X200157D02*
D03*
X157323D02*
D03*
X147323D02*
D03*
X269134Y202362D02*
D03*
X259134D02*
D03*
X323229Y150906D02*
D03*
Y140905D02*
D03*
Y160906D02*
D03*
X16536Y156614D02*
D03*
Y166614D02*
D03*
Y206614D02*
D03*
Y196614D02*
D03*
Y176614D02*
D03*
Y186614D02*
D03*
D76*
X153819Y119291D02*
D03*
X180157Y264961D02*
D03*
X167323D02*
D03*
X279134Y202362D02*
D03*
D77*
X379724Y184665D02*
D03*
Y144665D02*
D03*
D78*
X344724Y152165D02*
D03*
D79*
Y172165D02*
D03*
Y162165D02*
D03*
X354724Y177165D02*
D03*
Y157165D02*
D03*
Y167165D02*
D03*
D80*
X245473Y141969D02*
D03*
Y161181D02*
D03*
D81*
X381890Y263779D02*
D03*
X11811D02*
D03*
Y11811D02*
D03*
X381890D02*
D03*
D82*
X323229Y170905D02*
D03*
X16536Y216614D02*
D03*
D83*
X153150Y168898D02*
D03*
X183071Y259055D02*
D03*
X71653Y169291D02*
D03*
X78756Y166141D02*
D03*
X155512Y163386D02*
D03*
X148031Y189764D02*
D03*
X151969D02*
D03*
X156299Y189502D02*
D03*
X167717Y189764D02*
D03*
X152756Y227953D02*
D03*
X240945Y184646D02*
D03*
X161024Y168898D02*
D03*
X157087D02*
D03*
X280315Y150394D02*
D03*
Y153543D02*
D03*
X277559Y150394D02*
D03*
Y153543D02*
D03*
X84357Y175696D02*
D03*
X46063Y210236D02*
D03*
X79528Y226378D02*
D03*
X76378D02*
D03*
X72441Y207874D02*
D03*
X74016Y210630D02*
D03*
X70866D02*
D03*
X272835Y55905D02*
D03*
Y48031D02*
D03*
Y40157D02*
D03*
X264961Y32283D02*
D03*
X252756D02*
D03*
X137402Y31890D02*
D03*
X125197D02*
D03*
X117323Y39764D02*
D03*
Y47638D02*
D03*
Y55512D02*
D03*
X194882Y49606D02*
D03*
Y41732D02*
D03*
Y33858D02*
D03*
Y25984D02*
D03*
Y18110D02*
D03*
X192913Y12992D02*
D03*
X185039D02*
D03*
X177165D02*
D03*
X169291D02*
D03*
X161417D02*
D03*
X153543D02*
D03*
X145669D02*
D03*
Y20866D02*
D03*
Y28740D02*
D03*
Y36614D02*
D03*
Y44488D02*
D03*
X244094Y48425D02*
D03*
Y40551D02*
D03*
Y32677D02*
D03*
Y24803D02*
D03*
Y16929D02*
D03*
X240158Y12992D02*
D03*
X232283D02*
D03*
X224410D02*
D03*
X216535D02*
D03*
X208661D02*
D03*
X200787D02*
D03*
X303622Y36614D02*
D03*
Y33071D02*
D03*
X300079D02*
D03*
Y29528D02*
D03*
X303622D02*
D03*
X290945Y23937D02*
D03*
Y27480D02*
D03*
X294488D02*
D03*
Y23937D02*
D03*
X298031Y27480D02*
D03*
Y23937D02*
D03*
X285354Y36614D02*
D03*
X288898Y33071D02*
D03*
X285354D02*
D03*
X288898Y29528D02*
D03*
X285354D02*
D03*
X333622Y29528D02*
D03*
X330079Y33071D02*
D03*
X333622D02*
D03*
X330079Y36614D02*
D03*
X333622D02*
D03*
X315354Y36614D02*
D03*
X318898D02*
D03*
Y33071D02*
D03*
X315354D02*
D03*
Y29528D02*
D03*
X328032Y42205D02*
D03*
Y38661D02*
D03*
X324488D02*
D03*
Y42205D02*
D03*
X320945Y38661D02*
D03*
Y42205D02*
D03*
X91732Y23937D02*
D03*
Y27480D02*
D03*
X95276Y23937D02*
D03*
Y27480D02*
D03*
X98819D02*
D03*
Y23937D02*
D03*
X86142Y36614D02*
D03*
Y33071D02*
D03*
X89685D02*
D03*
Y29528D02*
D03*
X86142D02*
D03*
X104409Y29528D02*
D03*
X100866D02*
D03*
X104409Y33071D02*
D03*
X100866D02*
D03*
X104409Y36614D02*
D03*
X56142Y36614D02*
D03*
X59685D02*
D03*
X56142Y33071D02*
D03*
X59685D02*
D03*
X56142Y29528D02*
D03*
X68819Y42205D02*
D03*
Y38661D02*
D03*
X65276Y42205D02*
D03*
Y38661D02*
D03*
X61732D02*
D03*
Y42205D02*
D03*
X74410Y36614D02*
D03*
X70866D02*
D03*
Y33071D02*
D03*
X74410D02*
D03*
Y29528D02*
D03*
X45669Y178740D02*
D03*
X44488Y225197D02*
D03*
X97638Y175591D02*
D03*
X105118Y183858D02*
D03*
X105512Y216535D02*
D03*
X60024Y134040D02*
D03*
X275893Y122532D02*
D03*
X215218Y68884D02*
D03*
X84252Y226772D02*
D03*
X147638Y171653D02*
D03*
X84252Y150787D02*
D03*
Y191732D02*
D03*
Y212644D02*
D03*
Y206176D02*
D03*
X275197Y126378D02*
D03*
X284725Y126298D02*
D03*
X195276Y179528D02*
D03*
X166142Y238583D02*
D03*
X200000Y77953D02*
D03*
X41732Y248031D02*
D03*
Y254331D02*
D03*
X36220D02*
D03*
X30709D02*
D03*
X36220Y248031D02*
D03*
X30709D02*
D03*
X260630Y168504D02*
D03*
X267717Y144488D02*
D03*
X297244Y167323D02*
D03*
X296457Y177953D02*
D03*
X272441Y188583D02*
D03*
X268110D02*
D03*
X280709Y195276D02*
D03*
X364961Y222047D02*
D03*
X338976Y222441D02*
D03*
X309449Y149606D02*
D03*
X305906Y153150D02*
D03*
X284842Y184252D02*
D03*
X161024Y144095D02*
D03*
X166142Y83071D02*
D03*
X207480Y103937D02*
D03*
X177559Y109843D02*
D03*
X223228Y83071D02*
D03*
X173622D02*
D03*
X216142Y156299D02*
D03*
X289764Y184252D02*
D03*
D96*
X91339Y226516D02*
D03*
Y216516D02*
D03*
Y221516D02*
D03*
Y231516D02*
D03*
X112598D02*
D03*
Y216516D02*
D03*
Y221516D02*
D03*
Y226516D02*
D03*
X91732Y166673D02*
D03*
Y171673D02*
D03*
Y156673D02*
D03*
Y161673D02*
D03*
X112992Y156673D02*
D03*
Y166673D02*
D03*
Y171673D02*
D03*
Y161673D02*
D03*
X91339Y193839D02*
D03*
X112598Y188839D02*
D03*
Y183839D02*
D03*
Y198839D02*
D03*
Y193839D02*
D03*
X91339Y198839D02*
D03*
Y188839D02*
D03*
Y183839D02*
D03*
D97*
X59449Y220866D02*
D03*
X61417D02*
D03*
X63386D02*
D03*
X65354D02*
D03*
X59449Y203543D02*
D03*
X61417D02*
D03*
X65354D02*
D03*
X67323D02*
D03*
X63386D02*
D03*
X67323Y220866D02*
D03*
X59449Y185039D02*
D03*
X61417D02*
D03*
X63386D02*
D03*
X65354D02*
D03*
X59449Y167717D02*
D03*
X61417D02*
D03*
X65354D02*
D03*
X67323D02*
D03*
X63386D02*
D03*
X67323Y185039D02*
D03*
M02*
