G04*
G04 #@! TF.GenerationSoftware,Altium Limited,Altium Designer,23.1.1 (15)*
G04*
G04 Layer_Physical_Order=3*
G04 Layer_Color=128*
%FSLAX25Y25*%
%MOIN*%
G70*
G04*
G04 #@! TF.SameCoordinates,590E2446-9614-40E2-9646-AD1B285CD790*
G04*
G04*
G04 #@! TF.FilePolarity,Negative*
G04*
G01*
G75*
%ADD10C,0.00787*%
%ADD84C,0.04000*%
G04:AMPARAMS|DCode=85|XSize=93.465mil|YSize=93.465mil|CornerRadius=0mil|HoleSize=0mil|Usage=FLASHONLY|Rotation=0.000|XOffset=0mil|YOffset=0mil|HoleType=Round|Shape=Relief|Width=10mil|Gap=10mil|Entries=4|*
%AMTHD85*
7,0,0,0.09347,0.07347,0.01000,45*
%
%ADD85THD85*%
%ADD86C,0.07347*%
%ADD87C,0.08724*%
%ADD88C,0.17386*%
%ADD89C,0.08331*%
%ADD91C,0.06480*%
%ADD92C,0.11945*%
G04:AMPARAMS|DCode=93|XSize=71.811mil|YSize=71.811mil|CornerRadius=0mil|HoleSize=0mil|Usage=FLASHONLY|Rotation=0.000|XOffset=0mil|YOffset=0mil|HoleType=Round|Shape=Relief|Width=10mil|Gap=10mil|Entries=4|*
%AMTHD93*
7,0,0,0.07181,0.05181,0.01000,45*
%
%ADD93THD93*%
%ADD94C,0.05181*%
G04:AMPARAMS|DCode=95|XSize=107.244mil|YSize=107.244mil|CornerRadius=0mil|HoleSize=0mil|Usage=FLASHONLY|Rotation=0.000|XOffset=0mil|YOffset=0mil|HoleType=Round|Shape=Relief|Width=10mil|Gap=10mil|Entries=4|*
%AMTHD95*
7,0,0,0.10724,0.08724,0.01000,45*
%
%ADD95THD95*%
D10*
X71653Y203150D02*
X86614D01*
X92126Y197638D01*
Y71653D02*
Y197638D01*
X53937Y33465D02*
X92126Y71653D01*
X53937Y33071D02*
Y33465D01*
Y33071D02*
X60236Y26772D01*
X71653D01*
X74409D01*
X21457Y253346D02*
X71653Y203150D01*
X114961Y119291D02*
Y221654D01*
Y119291D02*
X145669Y88583D01*
X77559Y259055D02*
X114961Y221654D01*
X21457Y253346D02*
X27165Y259055D01*
X164961Y270472D02*
X182283D01*
X162205Y267717D02*
X164961Y270472D01*
X162205Y260630D02*
Y267717D01*
X150394Y248819D02*
X162205Y260630D01*
X150394Y158268D02*
Y248819D01*
Y158268D02*
X151969Y156693D01*
X182677D01*
X185039Y159055D01*
Y267717D01*
X182283Y270472D02*
X185039Y267717D01*
X74409Y26772D02*
X101575Y53937D01*
X289370D01*
X315748Y27559D01*
X337402D01*
X276378Y88583D02*
X337402Y27559D01*
X145669Y88583D02*
X276378D01*
X27165Y259055D02*
X77559D01*
X255512Y173622D02*
X274016Y192126D01*
X255512Y118504D02*
Y173622D01*
Y118504D02*
X301181D01*
Y173622D01*
X274016Y192126D02*
Y208268D01*
X301181Y173622D02*
Y208268D01*
X274016D02*
X301181D01*
D84*
X0Y0D02*
X393701D01*
Y275590D01*
X0D02*
X393701D01*
X0Y0D02*
Y275590D01*
D85*
X180157Y264961D02*
D03*
X167323D02*
D03*
X279134Y202362D02*
D03*
D86*
X143819Y119291D02*
D03*
X153819D02*
D03*
X190157Y264961D02*
D03*
X200157D02*
D03*
X157323D02*
D03*
X147323D02*
D03*
X269134Y202362D02*
D03*
X259134D02*
D03*
X323229Y150906D02*
D03*
Y140905D02*
D03*
Y160906D02*
D03*
Y170905D02*
D03*
X16536Y156614D02*
D03*
Y166614D02*
D03*
Y206614D02*
D03*
Y216614D02*
D03*
Y196614D02*
D03*
Y176614D02*
D03*
Y186614D02*
D03*
D87*
X294488Y33071D02*
D03*
X95276D02*
D03*
D88*
X379724Y184665D02*
D03*
Y144665D02*
D03*
D89*
X344724Y152165D02*
D03*
Y172165D02*
D03*
Y162165D02*
D03*
X354724Y177165D02*
D03*
Y157165D02*
D03*
Y167165D02*
D03*
D91*
X245473Y141969D02*
D03*
Y161181D02*
D03*
D92*
X381890Y263779D02*
D03*
X11811D02*
D03*
Y11811D02*
D03*
X381890D02*
D03*
D93*
X78756Y166141D02*
D03*
X155512Y163386D02*
D03*
X240945Y184646D02*
D03*
X45669Y178740D02*
D03*
X44488Y225197D02*
D03*
X97638Y175591D02*
D03*
X105118Y183858D02*
D03*
X105512Y216535D02*
D03*
X284725Y126298D02*
D03*
X200000Y77953D02*
D03*
X41732Y248031D02*
D03*
Y254331D02*
D03*
X36220D02*
D03*
X30709D02*
D03*
X36220Y248031D02*
D03*
X30709D02*
D03*
X260630Y168504D02*
D03*
X267717Y144488D02*
D03*
X297244Y167323D02*
D03*
X296457Y177953D02*
D03*
D94*
X153150Y168898D02*
D03*
X183071Y259055D02*
D03*
X71653Y169291D02*
D03*
X148031Y189764D02*
D03*
X151969D02*
D03*
X156299Y189502D02*
D03*
X167717Y189764D02*
D03*
X152756Y227953D02*
D03*
X161024Y168898D02*
D03*
X157087D02*
D03*
X280315Y150394D02*
D03*
Y153543D02*
D03*
X277559Y150394D02*
D03*
Y153543D02*
D03*
X84357Y175696D02*
D03*
X46063Y210236D02*
D03*
X79528Y226378D02*
D03*
X76378D02*
D03*
X72441Y207874D02*
D03*
X74016Y210630D02*
D03*
X70866D02*
D03*
X272835Y55905D02*
D03*
Y48031D02*
D03*
Y40157D02*
D03*
X264961Y32283D02*
D03*
X252756D02*
D03*
X137402Y31890D02*
D03*
X125197D02*
D03*
X117323Y39764D02*
D03*
Y47638D02*
D03*
Y55512D02*
D03*
X194882Y49606D02*
D03*
Y41732D02*
D03*
Y33858D02*
D03*
Y25984D02*
D03*
Y18110D02*
D03*
X192913Y12992D02*
D03*
X185039D02*
D03*
X177165D02*
D03*
X169291D02*
D03*
X161417D02*
D03*
X153543D02*
D03*
X145669D02*
D03*
Y20866D02*
D03*
Y28740D02*
D03*
Y36614D02*
D03*
Y44488D02*
D03*
X244094Y48425D02*
D03*
Y40551D02*
D03*
Y32677D02*
D03*
Y24803D02*
D03*
Y16929D02*
D03*
X240158Y12992D02*
D03*
X232283D02*
D03*
X224410D02*
D03*
X216535D02*
D03*
X208661D02*
D03*
X200787D02*
D03*
X303622Y36614D02*
D03*
Y33071D02*
D03*
X300079D02*
D03*
Y29528D02*
D03*
X303622D02*
D03*
X290945Y23937D02*
D03*
Y27480D02*
D03*
X294488D02*
D03*
Y23937D02*
D03*
X298031Y27480D02*
D03*
Y23937D02*
D03*
X285354Y36614D02*
D03*
X288898Y33071D02*
D03*
X285354D02*
D03*
X288898Y29528D02*
D03*
X285354D02*
D03*
X333622Y29528D02*
D03*
X330079Y33071D02*
D03*
X333622D02*
D03*
X330079Y36614D02*
D03*
X333622D02*
D03*
X315354Y36614D02*
D03*
X318898D02*
D03*
Y33071D02*
D03*
X315354D02*
D03*
Y29528D02*
D03*
X328032Y42205D02*
D03*
Y38661D02*
D03*
X324488D02*
D03*
Y42205D02*
D03*
X320945Y38661D02*
D03*
Y42205D02*
D03*
X91732Y23937D02*
D03*
Y27480D02*
D03*
X95276Y23937D02*
D03*
Y27480D02*
D03*
X98819D02*
D03*
Y23937D02*
D03*
X86142Y36614D02*
D03*
Y33071D02*
D03*
X89685D02*
D03*
Y29528D02*
D03*
X86142D02*
D03*
X104409Y29528D02*
D03*
X100866D02*
D03*
X104409Y33071D02*
D03*
X100866D02*
D03*
X104409Y36614D02*
D03*
X56142Y36614D02*
D03*
X59685D02*
D03*
X56142Y33071D02*
D03*
X59685D02*
D03*
X56142Y29528D02*
D03*
X68819Y42205D02*
D03*
Y38661D02*
D03*
X65276Y42205D02*
D03*
Y38661D02*
D03*
X61732D02*
D03*
Y42205D02*
D03*
X74410Y36614D02*
D03*
X70866D02*
D03*
Y33071D02*
D03*
X74410D02*
D03*
Y29528D02*
D03*
X60024Y134040D02*
D03*
X275893Y122532D02*
D03*
X215218Y68884D02*
D03*
X84252Y226772D02*
D03*
X147638Y171653D02*
D03*
X84252Y150787D02*
D03*
Y191732D02*
D03*
Y212644D02*
D03*
Y206176D02*
D03*
X275197Y126378D02*
D03*
X195276Y179528D02*
D03*
X166142Y238583D02*
D03*
X272441Y188583D02*
D03*
X268110D02*
D03*
X280709Y195276D02*
D03*
X364961Y222047D02*
D03*
X338976Y222441D02*
D03*
X309449Y149606D02*
D03*
X305906Y153150D02*
D03*
X284842Y184252D02*
D03*
X161024Y144095D02*
D03*
X166142Y83071D02*
D03*
X207480Y103937D02*
D03*
X177559Y109843D02*
D03*
X223228Y83071D02*
D03*
X173622D02*
D03*
X216142Y156299D02*
D03*
X289764Y184252D02*
D03*
D95*
X324488Y33071D02*
D03*
X65276D02*
D03*
M02*
