M48
;Layer_Color=9474304
;FILE_FORMAT=2:4
INCH,TZ
;TYPE=PLATED
T1F00S00C0.0118
T2F00S00C0.0248
T3F00S00C0.0335
T4F00S00C0.0433
T5F00S00C0.0472
T6F00S00C0.0794
T7F00S00C0.1339
%
T01
X20079Y1299
X20866
X21654
X22441
X23228
X24016
X24409Y1693
Y2480
Y3268
Y4055
Y4843
X25276Y3228
X26496
X27283Y4016
Y4803
Y5591
X28535Y3661
Y3307
Y2953
X28890
Y3307
X29094Y2748
Y2394
X29449
X29803
Y2748
X29449
X30008Y2953
Y3307
X30362
Y3661
Y2953
X31535Y2953
Y3307
Y3661
X31890
Y3307
X32095Y3866
X32449
X32803
Y4220
X32449
X32095
X33008Y3661
Y3307
X33362
Y3661
Y2953
X21522Y6888
X19488Y4961
Y4173
Y3386
Y2598
Y1811
X19291Y1299
X18504
X17717
X16929
X16142
X15354
X14567
Y2087
Y2874
Y3661
Y4449
X13740Y3189
X12520
X11732Y3976
Y4764
Y5551
X10441Y3661
Y3307
Y2953
X10087
Y3307
X9882Y2748
X9528
X9173
Y2394
X9528
X9882
X8968Y2953
Y3307
X8614
Y3661
Y2953
X7441Y2953
Y3307
Y3661
X7087
Y3307
X6882Y3866
X6528
Y4220
X6882
X6173
Y3866
X5968Y3661
Y3307
X5614
Y3661
Y2953
X6002Y13404
X8425Y15079
X7876Y16614
X7165Y16929
X8436Y17570
X9764Y17559
X10512Y18386
X8425Y19173
Y20618
Y21264
X7402Y21063
X7087
X7244Y20787
X7638Y22638
X7953
X8425Y22677
X10551Y21654
X15276Y22795
X15197Y18976
X14803
X15630Y18950
X16772Y18976
X16102Y16890
X15709
X15315
X15551Y16339
X14764Y17165
X16102Y14409
X17756Y10984
X17362Y8307
X16614
X19528Y17953
X4567Y17874
X4606Y21024
X4449Y22520
X24094Y18465
X26811Y18858
X27244
X28071Y19528
X28484Y18425
X28976
X29646Y17795
X29724Y16732
X30591Y15315
X30945Y14961
X28031Y15039
X27756
Y15354
X28031
X26772Y14449
X27520Y12638
X27589Y12253
X28473Y12630
X26063Y16850
X21614Y15630
X20748Y10394
X20000Y7795
X22323Y8307
X33898Y22244
X36496Y22205
X16614Y23858
X18307Y25906
X4173Y25433
Y24803
X3622
X3071
Y25433
X3622
T02
X24547Y14197
Y16118
T03
X1654Y15661
Y16661
Y17661
Y18661
Y19661
Y20661
Y21661
X14382Y11929
X15382
X25913Y20236
X26913
X27913
X32323Y17091
Y16091
Y15091
Y14091
X20016Y26496
X19016
X18016
X16732
X15732
X14732
T04
X34472Y15217
Y16217
Y17217
X35472Y17717
Y16717
Y15717
T05
X29449Y3307
X32449
X9528
X6528
T06
X38189Y1181
X1181
X38189Y26378
X1181
T07
X37972Y14467
Y18467
M30
