G04*
G04 #@! TF.GenerationSoftware,Altium Limited,Altium Designer,23.1.1 (15)*
G04*
G04 Layer_Color=32896*
%FSLAX25Y25*%
%MOIN*%
G70*
G04*
G04 #@! TF.SameCoordinates,590E2446-9614-40E2-9646-AD1B285CD790*
G04*
G04*
G04 #@! TF.FilePolarity,Positive*
G04*
G01*
G75*
%ADD10C,0.00787*%
%ADD11C,0.00602*%
%ADD12C,0.01000*%
G36*
X328801Y120991D02*
X328741Y120892D01*
X328721Y120833D01*
X328682Y120734D01*
X328622Y120694D01*
X328573Y120565D01*
X328523Y120516D01*
X328503Y120437D01*
X328424Y120357D01*
X328404Y120278D01*
X328325Y120199D01*
X328305Y120100D01*
X328256Y120070D01*
X328226Y120100D01*
X328256Y120209D01*
X328325Y120278D01*
X328345Y120357D01*
X328404Y120417D01*
X328444Y120516D01*
X328523Y120595D01*
X328543Y120694D01*
X328603Y120734D01*
X328632Y120843D01*
X328672Y120882D01*
X328711Y120902D01*
X328721Y120951D01*
Y120971D01*
X328741Y121011D01*
X328791Y121021D01*
X328801Y120991D01*
D02*
G37*
G36*
X80819Y107239D02*
X80849Y107150D01*
X80869Y107110D01*
X80928Y107071D01*
X80958Y106962D01*
X81027Y106892D01*
X81047Y106813D01*
X81126Y106734D01*
X81146Y106655D01*
X81205Y106595D01*
X81255Y106467D01*
X81284Y106457D01*
X81334Y106328D01*
X81403Y106279D01*
X81433Y106150D01*
X81482Y106100D01*
X81512Y105991D01*
X81601Y105922D01*
X81621Y105823D01*
X81680Y105764D01*
X81720Y105665D01*
X81779Y105605D01*
X81819Y105506D01*
X81878Y105447D01*
X81908Y105338D01*
X81948Y105318D01*
X82017Y105169D01*
X82057Y105150D01*
X82086Y105021D01*
X82175Y104952D01*
X82195Y104833D01*
X82255Y104793D01*
X82284Y104684D01*
X82354Y104615D01*
X82373Y104536D01*
X82453Y104457D01*
X82482Y104328D01*
X82532Y104298D01*
X82552Y104259D01*
X82631Y104140D01*
X82671Y104041D01*
X82710Y104021D01*
X82730Y103942D01*
X82760Y103853D01*
X82799Y103833D01*
X82829Y103803D01*
X82849Y103724D01*
X82908Y103665D01*
X82958Y103536D01*
X83007Y103486D01*
X83027Y103407D01*
X83106Y103328D01*
X83116Y103239D01*
X83057Y103219D01*
X82987Y103367D01*
X82948Y103407D01*
X82908Y103506D01*
X82849Y103566D01*
X82809Y103665D01*
X82750Y103724D01*
X82720Y103833D01*
X82671Y103882D01*
X82651Y103962D01*
X82621Y104031D01*
X82581Y104051D01*
X82542Y104150D01*
X82472Y104199D01*
X82463Y104269D01*
X82472Y104318D01*
X82443Y104348D01*
X82403Y104367D01*
X82373Y104397D01*
X82334Y104496D01*
X82294Y104536D01*
X82275Y104615D01*
X82265Y104625D01*
X82245Y104665D01*
X82205Y104684D01*
X82175Y104714D01*
X82146Y104823D01*
X82106Y104843D01*
X82057Y104991D01*
X81997Y105051D01*
X81948Y105179D01*
X81918Y105189D01*
X81878Y105288D01*
X81859Y105328D01*
X81799Y105387D01*
X81760Y105486D01*
X81700Y105546D01*
X81680Y105625D01*
X81621Y105684D01*
X81591Y105793D01*
X81522Y105843D01*
X81502Y105922D01*
X81443Y106021D01*
X81403Y106140D01*
X81334Y106189D01*
X81284Y106318D01*
X81245Y106338D01*
X81195Y106467D01*
X81146Y106496D01*
X81096Y106625D01*
X81047Y106675D01*
X81007Y106773D01*
X80948Y106833D01*
X80928Y106932D01*
X80898Y106962D01*
X80859Y106982D01*
X80839Y107080D01*
X80819Y107120D01*
X80779Y107140D01*
X80750Y107170D01*
X80760Y107259D01*
X80819Y107239D01*
D02*
G37*
G36*
X75799Y105783D02*
X75779Y105684D01*
X75720Y105625D01*
X75700Y105546D01*
X75670Y105496D01*
X75640Y105486D01*
X75601Y105387D01*
X75581Y105348D01*
X75522Y105308D01*
X75502Y105209D01*
X75423Y105130D01*
X75403Y105051D01*
X75344Y104991D01*
X75314Y104863D01*
X75225Y104793D01*
X75205Y104694D01*
X75146Y104635D01*
X75106Y104536D01*
X75046Y104476D01*
X75027Y104377D01*
X74997Y104348D01*
X74967Y104338D01*
X74918Y104209D01*
X74908Y104199D01*
X74868Y104179D01*
X74829Y104021D01*
X74759Y103971D01*
X74739Y103892D01*
X74720Y103853D01*
X74680Y103833D01*
X74660Y103754D01*
X74571Y103625D01*
X74512Y103526D01*
X74472Y103486D01*
X74452Y103367D01*
X74423Y103338D01*
X74393Y103328D01*
X74343Y103199D01*
X74274Y103130D01*
X74254Y103070D01*
X74195Y103011D01*
X74175Y102912D01*
X74096Y102833D01*
X74076Y102734D01*
X74046Y102704D01*
X74007Y102724D01*
X73997Y102773D01*
X74046Y102863D01*
X74076Y102872D01*
X74096Y102952D01*
X74116Y102991D01*
X74145Y103021D01*
X74185Y103041D01*
X74205Y103120D01*
X74274Y103209D01*
X74314Y103308D01*
X74373Y103367D01*
X74393Y103486D01*
X74472Y103566D01*
X74492Y103645D01*
X74551Y103704D01*
X74601Y103833D01*
X74641Y103853D01*
X74710Y104001D01*
X74749Y104041D01*
X74769Y104120D01*
X74789Y104160D01*
X74829Y104199D01*
X74878Y104328D01*
X74947Y104397D01*
X74967Y104476D01*
X75046Y104556D01*
X75066Y104635D01*
X75126Y104694D01*
X75175Y104823D01*
X75215Y104843D01*
X75235Y104942D01*
X75274Y105001D01*
X75314Y105021D01*
X75363Y105150D01*
X75423Y105209D01*
X75442Y105288D01*
X75502Y105348D01*
X75551Y105476D01*
X75601Y105526D01*
X75640Y105625D01*
X75700Y105684D01*
X75740Y105783D01*
X75769Y105813D01*
X75799Y105783D01*
D02*
G37*
G36*
X73997Y102595D02*
X73957Y102556D01*
X73947Y102546D01*
X73898Y102556D01*
X73937Y102655D01*
X73987Y102664D01*
X73997Y102595D01*
D02*
G37*
G36*
X83205Y103150D02*
X83235Y103041D01*
X83304Y102971D01*
X83344Y102872D01*
X83384Y102833D01*
X83433Y102704D01*
X83473Y102684D01*
X83502Y102575D01*
X83512Y102546D01*
X83552Y102526D01*
X83601Y102476D01*
X83621Y102397D01*
X83680Y102338D01*
X83700Y102259D01*
X83780Y102179D01*
X83770Y102070D01*
X83710Y102090D01*
X83661Y102219D01*
X83621Y102259D01*
X83562Y102357D01*
X83502Y102417D01*
X83482Y102536D01*
X83453Y102546D01*
X83443Y102556D01*
X83403Y102655D01*
X83384Y102694D01*
X83324Y102753D01*
X83304Y102833D01*
X83225Y102912D01*
X83205Y103011D01*
X83175Y103041D01*
X83136Y103060D01*
X83126Y103169D01*
X83156Y103179D01*
X83205Y103150D01*
D02*
G37*
G36*
X73898Y102496D02*
X73878Y102377D01*
X73819Y102318D01*
X73779Y102219D01*
X73749Y102189D01*
X73720Y102179D01*
X73700Y102100D01*
X73680Y102060D01*
X73621Y102001D01*
X73601Y101902D01*
X73551Y101872D01*
X73522Y101902D01*
X73541Y102001D01*
X73621Y102080D01*
X73640Y102160D01*
X73700Y102219D01*
X73749Y102348D01*
X73779Y102377D01*
X73789Y102387D01*
X73848Y102506D01*
X73898Y102496D01*
D02*
G37*
G36*
X73522Y101823D02*
X73502Y101724D01*
X73472Y101694D01*
X73432Y101674D01*
X73393Y101575D01*
X73343Y101565D01*
X73353Y101674D01*
X73363Y101684D01*
X73423Y101724D01*
X73442Y101823D01*
X73492Y101853D01*
X73522Y101823D01*
D02*
G37*
G36*
X83859Y102021D02*
X83908Y101892D01*
X83978Y101823D01*
X83997Y101744D01*
X84057Y101684D01*
X84087Y101575D01*
X84156Y101526D01*
X84176Y101407D01*
X84245Y101357D01*
X84255Y101268D01*
X84205Y101258D01*
X84176Y101288D01*
X84156Y101367D01*
X84146Y101397D01*
X84106Y101417D01*
X84077Y101447D01*
X84047Y101556D01*
X83997Y101605D01*
X83958Y101704D01*
X83898Y101763D01*
Y101783D01*
X83859Y101882D01*
X83799Y101922D01*
X83809Y102031D01*
X83859Y102021D01*
D02*
G37*
G36*
X73324Y101526D02*
X73304Y101407D01*
X73244Y101347D01*
Y101328D01*
Y101308D01*
X73185Y101209D01*
X73145Y101169D01*
X73126Y101090D01*
X73096Y101060D01*
X73056Y101080D01*
X73046Y101149D01*
X73096Y101219D01*
X73126Y101229D01*
X73175Y101357D01*
X73225Y101387D01*
X73244Y101466D01*
X73264Y101506D01*
X73294Y101536D01*
X73324Y101526D01*
D02*
G37*
G36*
X73027Y100932D02*
X72977Y100882D01*
X72967Y100872D01*
X72918Y100744D01*
X72868Y100753D01*
X72888Y100872D01*
X72947Y100932D01*
X72997Y101021D01*
X73046Y101031D01*
X73027Y100932D01*
D02*
G37*
G36*
X72848Y100694D02*
X72829Y100575D01*
X72769Y100516D01*
X72749Y100437D01*
X72670Y100357D01*
X72650Y100278D01*
X72591Y100219D01*
X72541Y100090D01*
X72492Y100040D01*
X72452Y99941D01*
X72423Y99912D01*
X72393Y99922D01*
X72413Y100060D01*
X72452Y100080D01*
X72502Y100209D01*
X72551Y100239D01*
X72601Y100367D01*
X72670Y100437D01*
Y100476D01*
Y100496D01*
X72749Y100575D01*
X72799Y100704D01*
X72848Y100694D01*
D02*
G37*
G36*
X84324Y101199D02*
X84354Y101169D01*
X84374Y101070D01*
X84433Y101011D01*
X84473Y100912D01*
X84552Y100833D01*
X84572Y100753D01*
X84631Y100694D01*
X84671Y100595D01*
X84730Y100536D01*
X84750Y100437D01*
X84809Y100397D01*
X84859Y100268D01*
X84898Y100249D01*
X84928Y100159D01*
X84948Y100120D01*
X85007Y100060D01*
X85037Y99932D01*
X85106Y99862D01*
X85126Y99783D01*
X85205Y99704D01*
X85225Y99625D01*
X85304Y99546D01*
X85285Y99446D01*
X85275Y99437D01*
X85225Y99466D01*
X85195Y99575D01*
X85126Y99645D01*
X85106Y99724D01*
X85047Y99783D01*
X85027Y99862D01*
X85007Y99902D01*
X84948Y99941D01*
X84928Y100021D01*
X84908Y100080D01*
X84849Y100140D01*
X84809Y100239D01*
X84750Y100298D01*
X84730Y100377D01*
X84710Y100417D01*
X84651Y100476D01*
X84631Y100555D01*
X84552Y100635D01*
X84532Y100734D01*
X84463Y100783D01*
X84453Y100813D01*
Y100833D01*
X84433Y100872D01*
X84374Y100932D01*
X84344Y101041D01*
X84275Y101090D01*
X84285Y101219D01*
X84324Y101199D01*
D02*
G37*
G36*
X72373Y99882D02*
X72353Y99743D01*
X72294Y99704D01*
X72274Y99625D01*
X72254Y99585D01*
X72224Y99555D01*
X72215Y99546D01*
X72195Y99486D01*
X72175Y99446D01*
X72126Y99397D01*
X72096Y99427D01*
X72116Y99526D01*
X72195Y99605D01*
X72215Y99684D01*
X72274Y99743D01*
X72304Y99852D01*
X72343Y99892D01*
X72373Y99882D01*
D02*
G37*
G36*
X85374Y99397D02*
X85403Y99308D01*
X85374Y99278D01*
X85334Y99298D01*
X85304Y99348D01*
Y99367D01*
X85314Y99417D01*
X85374Y99397D01*
D02*
G37*
G36*
X85502Y99189D02*
X85522Y99149D01*
X85562Y99110D01*
X85582Y99031D01*
X85572Y98961D01*
X85532Y98981D01*
X85522Y98991D01*
X85423Y99149D01*
X85403Y99229D01*
X85453Y99239D01*
X85502Y99189D01*
D02*
G37*
G36*
X72096Y99367D02*
X72076Y99288D01*
X72017Y99229D01*
X71977Y99130D01*
X71918Y99070D01*
X71888Y98941D01*
X71819Y98872D01*
X71789Y98763D01*
X71739Y98734D01*
X71690Y98605D01*
X71640Y98575D01*
X71591Y98446D01*
X71541Y98397D01*
X71502Y98298D01*
X71472Y98268D01*
X71422Y98258D01*
X71442Y98377D01*
X71522Y98456D01*
X71541Y98536D01*
X71601Y98595D01*
X71650Y98724D01*
X71720Y98793D01*
X71739Y98872D01*
X71759Y98892D01*
X71769Y98902D01*
X71819Y98951D01*
X71838Y99070D01*
X71868Y99100D01*
X71898Y99110D01*
X71927Y99219D01*
X71997Y99288D01*
X72046Y99377D01*
X72096Y99367D01*
D02*
G37*
G36*
X71403Y98100D02*
X71343Y98040D01*
X71324Y97961D01*
X71274Y97912D01*
X71244Y97902D01*
X71215Y97793D01*
X71165Y97743D01*
X71116Y97615D01*
X71076Y97595D01*
X71066Y97724D01*
X71076Y97733D01*
X71145Y97803D01*
X71165Y97882D01*
X71224Y97941D01*
X71264Y98040D01*
X71324Y98100D01*
X71373Y98229D01*
X71422Y98238D01*
X71403Y98100D01*
D02*
G37*
G36*
X85681Y98892D02*
X85710Y98783D01*
X85780Y98714D01*
X85799Y98634D01*
X85859Y98575D01*
X85869Y98565D01*
X85888Y98486D01*
X85958Y98417D01*
X85997Y98318D01*
X86037Y98278D01*
X86077Y98179D01*
X86097Y98120D01*
X86156Y98060D01*
X86176Y98021D01*
X86255Y97902D01*
X86275Y97823D01*
X86334Y97763D01*
X86384Y97635D01*
X86433Y97585D01*
X86453Y97506D01*
X86423Y97476D01*
X86384Y97496D01*
X86324Y97635D01*
X86285Y97654D01*
X86215Y97803D01*
X86156Y97862D01*
X86136Y97941D01*
X86097Y97981D01*
X86047Y98110D01*
X86007Y98130D01*
X85978Y98159D01*
X85958Y98278D01*
X85879Y98357D01*
X85859Y98436D01*
X85799Y98496D01*
X85760Y98595D01*
X85700Y98654D01*
X85681Y98753D01*
X85651Y98783D01*
X85611Y98803D01*
X85601Y98932D01*
X85631Y98941D01*
X85681Y98892D01*
D02*
G37*
G36*
X71046Y97545D02*
X71026Y97446D01*
X70997Y97417D01*
X70967Y97407D01*
X70947Y97328D01*
X70917Y97258D01*
X70878Y97238D01*
X70819Y97100D01*
X70789Y97090D01*
X70739Y96961D01*
X70690Y96912D01*
X70650Y96813D01*
X70571Y96733D01*
X70551Y96654D01*
X70521Y96624D01*
X70492Y96635D01*
X70512Y96753D01*
X70571Y96813D01*
X70591Y96892D01*
X70650Y96951D01*
X70700Y97080D01*
X70739Y97100D01*
X70749Y97110D01*
X70799Y97238D01*
X70848Y97268D01*
X70878Y97377D01*
X70947Y97446D01*
X70967Y97526D01*
X71017Y97575D01*
X71046Y97545D01*
D02*
G37*
G36*
X70472Y96575D02*
X70452Y96476D01*
X70423Y96466D01*
X70413Y96456D01*
X70403Y96446D01*
X70393Y96535D01*
X70442Y96585D01*
X70472Y96575D01*
D02*
G37*
G36*
X86522Y97417D02*
X86552Y97387D01*
X86572Y97288D01*
X86631Y97248D01*
Y97228D01*
X86671Y97129D01*
X86730Y97090D01*
X86760Y96981D01*
X86809Y96931D01*
X86849Y96833D01*
X86908Y96773D01*
X86948Y96674D01*
X87007Y96615D01*
X87037Y96506D01*
X87106Y96436D01*
X87097Y96347D01*
X87037Y96367D01*
X86997Y96486D01*
X86958Y96506D01*
X86928Y96535D01*
X86908Y96635D01*
X86849Y96674D01*
X86800Y96803D01*
X86750Y96852D01*
X86720Y96961D01*
X86681Y96981D01*
X86651Y97011D01*
X86631Y97110D01*
X86601Y97139D01*
X86562Y97159D01*
X86542Y97298D01*
X86473Y97328D01*
X86453Y97407D01*
X86463Y97436D01*
X86522Y97417D01*
D02*
G37*
G36*
X87186Y96278D02*
X87205Y96199D01*
X87195Y96169D01*
X87136Y96189D01*
X87126Y96199D01*
X87136Y96308D01*
X87186Y96278D01*
D02*
G37*
G36*
X70373Y96417D02*
X70353Y96298D01*
X70314Y96258D01*
X70264Y96130D01*
X70224Y96110D01*
X70165Y95971D01*
X70116Y95961D01*
X70135Y96100D01*
X70175Y96120D01*
X70224Y96248D01*
X70254Y96278D01*
X70264Y96288D01*
X70294Y96318D01*
X70314Y96397D01*
X70343Y96426D01*
X70373Y96417D01*
D02*
G37*
G36*
X70096Y95921D02*
X70076Y95823D01*
X70016Y95763D01*
X69997Y95684D01*
X69947Y95634D01*
X69918Y95664D01*
Y95723D01*
Y95743D01*
X69967Y95793D01*
X69997Y95803D01*
X70036Y95902D01*
X70066Y95931D01*
X70096Y95921D01*
D02*
G37*
G36*
X87285Y96120D02*
X87304Y96040D01*
X87324Y96001D01*
X87354Y95971D01*
X87384Y95961D01*
X87404Y95882D01*
X87423Y95842D01*
X87463Y95803D01*
X87512Y95674D01*
X87552Y95654D01*
X87582Y95625D01*
X87592Y95516D01*
X87661Y95486D01*
X87681Y95407D01*
X87671Y95357D01*
X87611Y95377D01*
X87582Y95466D01*
X87562Y95506D01*
X87502Y95545D01*
X87473Y95654D01*
X87404Y95723D01*
X87384Y95803D01*
X87324Y95862D01*
X87304Y95941D01*
X87285Y95981D01*
X87255Y96011D01*
X87225Y96021D01*
X87205Y96100D01*
X87215Y96130D01*
X87225Y96139D01*
X87235Y96149D01*
X87285Y96120D01*
D02*
G37*
G36*
X69878Y95466D02*
X69819Y95426D01*
X69789Y95318D01*
X69739Y95268D01*
X69690Y95139D01*
X69650Y95120D01*
X69601Y94991D01*
X69551Y94981D01*
X69541Y95090D01*
X69571Y95120D01*
X69611Y95139D01*
X69640Y95228D01*
X69660Y95268D01*
X69690Y95298D01*
X69719Y95308D01*
X69749Y95417D01*
X69799Y95466D01*
X69838Y95585D01*
X69848Y95595D01*
X69898Y95605D01*
X69878Y95466D01*
D02*
G37*
G36*
X69521Y94852D02*
X69492Y94823D01*
X69442Y94832D01*
Y94852D01*
X69462Y94931D01*
X69511Y94941D01*
X69521Y94852D01*
D02*
G37*
G36*
X87780Y95268D02*
X87800Y95169D01*
X87849Y95139D01*
X87859Y95129D01*
X87879Y95070D01*
X87908Y95001D01*
X87938Y94991D01*
X87978Y94892D01*
X87998Y94852D01*
X88057Y94793D01*
X88077Y94714D01*
X88136Y94654D01*
X88156Y94575D01*
X88176Y94535D01*
X88235Y94496D01*
X88255Y94416D01*
X88245Y94367D01*
X88186Y94387D01*
X88156Y94476D01*
X88136Y94516D01*
X88077Y94575D01*
X88037Y94674D01*
X87978Y94733D01*
X87938Y94832D01*
X87879Y94892D01*
X87869Y95021D01*
X87800Y95050D01*
X87760Y95149D01*
X87730Y95179D01*
X87700Y95189D01*
X87681Y95308D01*
X87730Y95318D01*
X87780Y95268D01*
D02*
G37*
G36*
X69422Y94674D02*
X69412Y94664D01*
X69403Y94654D01*
X69363Y94614D01*
X69314Y94486D01*
X69244Y94416D01*
X69224Y94337D01*
X69145Y94258D01*
X69125Y94179D01*
X69096Y94149D01*
X69066Y94159D01*
X69086Y94278D01*
X69145Y94337D01*
X69175Y94446D01*
X69224Y94476D01*
X69274Y94605D01*
X69323Y94634D01*
X69373Y94763D01*
X69412Y94783D01*
X69422Y94674D01*
D02*
G37*
G36*
X88334Y94298D02*
X88354Y94199D01*
X88423Y94149D01*
X88433Y94139D01*
X88463Y94030D01*
X88512Y94001D01*
X88562Y93872D01*
X88611Y93842D01*
X88671Y93684D01*
X88710Y93644D01*
X88700Y93555D01*
X88661Y93575D01*
X88641Y93674D01*
X88552Y93743D01*
X88503Y93872D01*
X88473Y93882D01*
X88423Y94011D01*
X88354Y94060D01*
X88324Y94189D01*
X88275Y94238D01*
X88265Y94327D01*
X88285Y94347D01*
X88334Y94298D01*
D02*
G37*
G36*
X88800Y93496D02*
X88869Y93387D01*
X88908Y93347D01*
X88938Y93218D01*
X89008Y93149D01*
X89027Y93070D01*
X89087Y93010D01*
X89136Y92882D01*
X89176Y92862D01*
X89205Y92773D01*
X89225Y92733D01*
X89285Y92674D01*
X89275Y92565D01*
X89235Y92585D01*
X89205Y92615D01*
X89186Y92713D01*
X89126Y92753D01*
X89097Y92862D01*
X89057Y92902D01*
X89027Y92911D01*
X89008Y92991D01*
Y93010D01*
X88998Y93020D01*
X88948Y93050D01*
X88928Y93129D01*
X88918Y93218D01*
X88849Y93248D01*
X88790Y93347D01*
X88750Y93387D01*
X88730Y93466D01*
X88740Y93515D01*
X88800Y93496D01*
D02*
G37*
G36*
X69046Y94100D02*
X69026Y93981D01*
X68967Y93922D01*
X68907Y93822D01*
X68868Y93723D01*
X68848Y93684D01*
X68769Y93605D01*
X68749Y93525D01*
X68690Y93466D01*
X68660Y93357D01*
X68620Y93318D01*
X68581Y93298D01*
X68561Y93218D01*
X68511Y93149D01*
X68472Y93050D01*
X68452Y92991D01*
X68393Y92951D01*
X68363Y92842D01*
X68294Y92773D01*
X68274Y92694D01*
X68214Y92634D01*
Y92615D01*
X68204Y92605D01*
X68175Y92535D01*
X68115Y92476D01*
X68066Y92347D01*
X68026Y92327D01*
X68006Y92248D01*
X67967Y92189D01*
X67917Y92199D01*
X67937Y92317D01*
X68006Y92367D01*
X68026Y92446D01*
X68096Y92535D01*
X68135Y92634D01*
X68195Y92694D01*
X68214Y92773D01*
X68294Y92852D01*
X68313Y92931D01*
X68373Y92991D01*
X68393Y93070D01*
X68452Y93169D01*
X68551Y93308D01*
X68571Y93367D01*
X68611Y93466D01*
X68670Y93506D01*
X68690Y93585D01*
X68709Y93624D01*
X68769Y93684D01*
X68789Y93763D01*
X68838Y93813D01*
X68868Y93822D01*
X68888Y93902D01*
X68907Y93941D01*
X68947Y93981D01*
X68997Y94110D01*
X69046Y94100D01*
D02*
G37*
G36*
X67908Y92129D02*
X67917Y92060D01*
X67868Y91991D01*
X67838Y91981D01*
X67789Y91852D01*
X67739Y91822D01*
X67690Y91694D01*
X67640Y91644D01*
X67620Y91565D01*
X67571Y91515D01*
X67531Y91496D01*
X67511Y91397D01*
X67492Y91357D01*
X67462Y91347D01*
X67432Y91218D01*
X67343Y91129D01*
X67323Y91050D01*
X67264Y90991D01*
X67244Y90911D01*
X67145Y90773D01*
X67125Y90713D01*
X67086Y90694D01*
X67036Y90565D01*
X66977Y90545D01*
X66967Y90614D01*
X67066Y90753D01*
X67086Y90832D01*
X67145Y90892D01*
X67185Y90991D01*
X67244Y91050D01*
X67264Y91109D01*
Y91129D01*
X67343Y91208D01*
X67363Y91288D01*
X67442Y91367D01*
X67462Y91446D01*
X67482Y91486D01*
X67521Y91525D01*
X67551Y91634D01*
X67620Y91703D01*
X67660Y91803D01*
X67719Y91862D01*
X67749Y91971D01*
X67818Y92040D01*
X67838Y92119D01*
X67868Y92149D01*
X67908Y92129D01*
D02*
G37*
G36*
X89384Y92496D02*
X89413Y92387D01*
X89483Y92337D01*
X89512Y92228D01*
X89582Y92159D01*
X89602Y92080D01*
X89661Y92020D01*
X89701Y91921D01*
X89760Y91862D01*
X89790Y91753D01*
X89829Y91733D01*
X89859Y91703D01*
X89908Y91575D01*
X89938Y91565D01*
X89958Y91525D01*
Y91505D01*
X90017Y91407D01*
X90057Y91367D01*
X90077Y91248D01*
X90136Y91208D01*
X90156Y91129D01*
X90176Y91090D01*
X90235Y91030D01*
X90255Y90951D01*
X90334Y90872D01*
X90354Y90793D01*
X90433Y90713D01*
X90463Y90605D01*
X90503Y90585D01*
X90532Y90476D01*
X90522Y90446D01*
X90463Y90466D01*
X90413Y90595D01*
X90354Y90634D01*
X90324Y90743D01*
X90275Y90773D01*
X90225Y90901D01*
X90176Y90951D01*
X90136Y91050D01*
X90077Y91109D01*
X90057Y91189D01*
X89998Y91288D01*
X89918Y91426D01*
X89879Y91466D01*
X89849Y91575D01*
X89810Y91595D01*
X89780Y91624D01*
X89760Y91703D01*
X89740Y91743D01*
X89701Y91763D01*
X89651Y91892D01*
X89602Y91921D01*
X89582Y92001D01*
X89562Y92040D01*
X89503Y92100D01*
X89473Y92208D01*
X89433Y92228D01*
X89404Y92258D01*
X89384Y92357D01*
X89354Y92387D01*
X89314Y92406D01*
X89305Y92515D01*
X89354Y92525D01*
X89384Y92496D01*
D02*
G37*
G36*
X90602Y90387D02*
X90631Y90298D01*
X90602Y90268D01*
X90582Y90288D01*
X90562D01*
X90532Y90377D01*
X90542Y90406D01*
X90602Y90387D01*
D02*
G37*
G36*
X66967Y90476D02*
X66937Y90367D01*
X66888Y90337D01*
X66868Y90258D01*
X66848Y90218D01*
X66818Y90189D01*
X66789Y90179D01*
X66779Y90169D01*
X66759Y90090D01*
X66709Y90020D01*
X66630Y89882D01*
X66601Y89872D01*
X66591Y89961D01*
X66680Y90070D01*
X66709Y90139D01*
X66769Y90198D01*
X66789Y90298D01*
X66868Y90377D01*
X66897Y90486D01*
X66937Y90505D01*
X66967Y90476D01*
D02*
G37*
G36*
X66571Y89822D02*
X66551Y89703D01*
X66492Y89644D01*
X66472Y89545D01*
X66462Y89535D01*
X66442D01*
X66412Y89505D01*
X66363Y89377D01*
X66323Y89357D01*
X66254Y89208D01*
X66214Y89188D01*
X66194Y89090D01*
X66145Y89040D01*
X66115Y89050D01*
X66135Y89188D01*
X66194Y89228D01*
X66244Y89357D01*
X66284Y89377D01*
X66303Y89456D01*
X66353Y89525D01*
X66393Y89565D01*
X66412Y89644D01*
X66472Y89703D01*
X66492Y89783D01*
X66541Y89832D01*
X66571Y89822D01*
D02*
G37*
G36*
X90701Y90228D02*
X90760Y90090D01*
X90790Y90080D01*
X90829Y89981D01*
X90849Y89941D01*
X90909Y89882D01*
X90928Y89802D01*
X91008Y89723D01*
X91027Y89604D01*
X91107Y89525D01*
X91126Y89486D01*
X91206Y89367D01*
X91225Y89307D01*
X91265Y89288D01*
X91305Y89129D01*
X91334Y89099D01*
X91374Y89080D01*
X91404Y88971D01*
X91423Y88931D01*
X91463Y88892D01*
X91523Y88793D01*
X91562Y88753D01*
X91592Y88644D01*
X91631Y88624D01*
X91661Y88595D01*
Y88575D01*
Y88555D01*
X91651Y88486D01*
X91602Y88495D01*
X91552Y88624D01*
X91503Y88674D01*
X91463Y88773D01*
X91404Y88832D01*
X91384Y88931D01*
X91315Y88981D01*
X91265Y89109D01*
X91206Y89169D01*
X91186Y89288D01*
X91126Y89327D01*
X91077Y89436D01*
X91037Y89456D01*
X91008Y89545D01*
X91018Y89595D01*
X90928Y89644D01*
X90899Y89753D01*
X90829Y89822D01*
X90810Y89902D01*
X90730Y89981D01*
X90711Y90060D01*
X90651Y90119D01*
X90631Y90198D01*
X90641Y90248D01*
X90701Y90228D01*
D02*
G37*
G36*
X91760Y88396D02*
X91800Y88297D01*
X91859Y88238D01*
X91889Y88129D01*
X91928Y88109D01*
X91988Y87971D01*
X92027Y87951D01*
X92047Y87872D01*
X92067Y87812D01*
X92107Y87792D01*
X92136Y87763D01*
X92176Y87664D01*
X92235Y87604D01*
X92225Y87495D01*
X92186Y87515D01*
X92156Y87545D01*
X92136Y87624D01*
X92097Y87664D01*
X92087Y87674D01*
X92057Y87703D01*
X92037Y87783D01*
X91958Y87862D01*
X91938Y87961D01*
X91899Y87981D01*
X91849Y88109D01*
X91780Y88179D01*
X91760Y88278D01*
X91730Y88307D01*
X91691Y88327D01*
X91681Y88436D01*
X91711Y88446D01*
X91760Y88396D01*
D02*
G37*
G36*
X66115Y88931D02*
X66086Y88882D01*
X66046Y88862D01*
X66016Y88832D01*
X65987Y88723D01*
X65917Y88654D01*
Y88634D01*
Y88614D01*
X65898Y88575D01*
X65838Y88515D01*
X65808Y88406D01*
X65739Y88357D01*
X65719Y88238D01*
X65690Y88208D01*
X65650Y88188D01*
X65601Y88060D01*
X65541Y88000D01*
X65521Y87921D01*
X65462Y87862D01*
X65412Y87733D01*
X65363Y87683D01*
X65323Y87585D01*
X65264Y87525D01*
X65224Y87426D01*
X65165Y87367D01*
X65145Y87268D01*
X65115Y87238D01*
X65066Y87248D01*
X65086Y87367D01*
X65165Y87446D01*
X65185Y87525D01*
X65244Y87585D01*
X65294Y87713D01*
X65323Y87723D01*
X65363Y87822D01*
X65383Y87862D01*
X65442Y87901D01*
X65472Y88010D01*
X65541Y88080D01*
X65561Y88159D01*
X65620Y88218D01*
X65650Y88347D01*
X65739Y88416D01*
X65759Y88515D01*
X65789Y88545D01*
X65818Y88555D01*
X65838Y88634D01*
X65858Y88674D01*
X65917Y88733D01*
X65937Y88832D01*
X65967Y88862D01*
X65996Y88872D01*
X66016Y88951D01*
X66036Y88990D01*
X66086Y89020D01*
X66115Y88931D01*
D02*
G37*
G36*
X92315Y87446D02*
X92364Y87317D01*
X92433Y87248D01*
X92453Y87169D01*
X92513Y87109D01*
X92552Y87010D01*
X92592Y86971D01*
X92641Y86842D01*
X92711Y86792D01*
X92730Y86674D01*
X92800Y86624D01*
X92810Y86535D01*
X92760Y86525D01*
X92730Y86555D01*
X92701Y86644D01*
X92691Y86654D01*
X92631Y86713D01*
X92602Y86822D01*
X92552Y86852D01*
X92523Y86961D01*
X92433Y87050D01*
X92414Y87129D01*
X92354Y87189D01*
X92315Y87287D01*
X92255Y87347D01*
X92265Y87456D01*
X92315Y87446D01*
D02*
G37*
G36*
X65066Y87109D02*
X65016Y87060D01*
X64977Y87040D01*
X64957Y86941D01*
X64868Y86852D01*
X64848Y86753D01*
X64789Y86713D01*
X64769Y86614D01*
X64719Y86565D01*
X64689Y86555D01*
X64670Y86436D01*
X64640Y86406D01*
X64600Y86386D01*
X64581Y86287D01*
X64541Y86228D01*
X64501Y86208D01*
X64482Y86129D01*
X64432Y86060D01*
X64353Y85921D01*
X64313Y85882D01*
X64293Y85802D01*
X64214Y85723D01*
X64184Y85614D01*
X64125Y85594D01*
X64115Y85683D01*
X64214Y85822D01*
X64234Y85882D01*
X64293Y85941D01*
X64333Y86040D01*
X64393Y86099D01*
X64412Y86178D01*
X64491Y86258D01*
X64511Y86357D01*
X64541Y86386D01*
X64571Y86396D01*
X64591Y86475D01*
X64610Y86535D01*
X64640Y86565D01*
X64680Y86585D01*
X64699Y86683D01*
X64719Y86723D01*
X64759Y86743D01*
X64789Y86792D01*
Y86812D01*
X64848Y86911D01*
X64927Y87050D01*
X64967Y87089D01*
X64987Y87189D01*
X65056Y87198D01*
X65066Y87109D01*
D02*
G37*
G36*
X92909Y86436D02*
X92928Y86337D01*
X92988Y86278D01*
X93028Y86178D01*
X93087Y86119D01*
X93126Y86020D01*
X93186Y85961D01*
X93206Y85882D01*
X93265Y85822D01*
X93315Y85693D01*
X93354Y85673D01*
X93404Y85545D01*
X93424Y85505D01*
X93483Y85446D01*
X93542Y85347D01*
X93562Y85287D01*
X93552Y85218D01*
X93513Y85238D01*
X93483Y85268D01*
X93463Y85307D01*
X93433Y85337D01*
X93424Y85347D01*
X93384Y85446D01*
X93364Y85525D01*
X93305Y85565D01*
X93285Y85644D01*
X93265Y85683D01*
X93226Y85703D01*
X93176Y85832D01*
X93107Y85901D01*
X93087Y85980D01*
X93008Y86060D01*
X92988Y86139D01*
X92928Y86198D01*
X92899Y86307D01*
X92830Y86357D01*
X92820Y86466D01*
X92859Y86485D01*
X92909Y86436D01*
D02*
G37*
G36*
X64105Y85535D02*
X64115Y85485D01*
X64016Y85347D01*
X63996Y85307D01*
X63937Y85248D01*
Y85208D01*
Y85188D01*
X63878Y85089D01*
X63838Y85070D01*
X63808Y84961D01*
X63739Y84891D01*
X63719Y84812D01*
X63660Y84753D01*
X63610Y84624D01*
X63551Y84644D01*
X63541Y84674D01*
X63600Y84772D01*
X63640Y84812D01*
X63660Y84891D01*
X63739Y84970D01*
X63759Y85050D01*
X63818Y85109D01*
X63848Y85218D01*
X63888Y85258D01*
X63927Y85277D01*
X63947Y85357D01*
X63996Y85426D01*
X64066Y85555D01*
X64105Y85535D01*
D02*
G37*
G36*
X63541Y84575D02*
X63521Y84456D01*
X63442Y84376D01*
X63422Y84297D01*
X63363Y84238D01*
X63333Y84129D01*
X63244Y84060D01*
X63224Y83961D01*
X63165Y83901D01*
X63145Y83782D01*
X63066Y83723D01*
X63046Y83624D01*
X63016Y83594D01*
X62986Y83584D01*
X62957Y83475D01*
X62917Y83436D01*
X62878Y83416D01*
X62858Y83317D01*
X62818Y83277D01*
X62788Y83287D01*
X62808Y83386D01*
X62868Y83446D01*
X62888Y83545D01*
X62967Y83624D01*
X62986Y83703D01*
X63016Y83753D01*
X63046Y83763D01*
X63105Y83921D01*
X63165Y83980D01*
X63224Y84079D01*
X63244Y84139D01*
X63264Y84218D01*
X63274Y84228D01*
X63343Y84297D01*
X63383Y84396D01*
X63442Y84456D01*
X63462Y84535D01*
X63511Y84584D01*
X63541Y84575D01*
D02*
G37*
G36*
X93632Y85159D02*
X93661Y85129D01*
X93681Y85050D01*
X93760Y84970D01*
X93780Y84891D01*
X93859Y84812D01*
X93879Y84733D01*
X93938Y84674D01*
X93968Y84565D01*
X94018Y84535D01*
X94037Y84456D01*
X94067Y84367D01*
X94107Y84347D01*
X94137Y84317D01*
X94156Y84238D01*
X94216Y84178D01*
X94265Y84050D01*
X94335Y83980D01*
X94354Y83901D01*
X94414Y83842D01*
X94453Y83743D01*
X94513Y83683D01*
X94562Y83555D01*
X94592Y83545D01*
X94612Y83465D01*
X94671Y83367D01*
X94740Y83218D01*
X94780Y83198D01*
X94840Y83079D01*
X94889Y83030D01*
X94909Y82951D01*
X94929Y82911D01*
X94988Y82852D01*
X94978Y82743D01*
X94958D01*
X94929Y82772D01*
X94879Y82901D01*
X94840Y82921D01*
X94780Y83040D01*
X94731Y83089D01*
X94711Y83169D01*
X94691Y83208D01*
X94631Y83267D01*
X94612Y83347D01*
X94533Y83426D01*
X94513Y83545D01*
X94433Y83624D01*
X94414Y83703D01*
X94335Y83782D01*
X94315Y83862D01*
X94255Y83921D01*
X94226Y84030D01*
X94156Y84079D01*
X94137Y84159D01*
X94057Y84238D01*
X94028Y84347D01*
X93978Y84396D01*
X93958Y84475D01*
X93909Y84565D01*
X93879Y84575D01*
X93849Y84683D01*
X93760Y84772D01*
X93740Y84852D01*
X93681Y84911D01*
X93641Y85010D01*
X93582Y85070D01*
X93592Y85179D01*
X93632Y85159D01*
D02*
G37*
G36*
X62788Y83188D02*
X62739Y83099D01*
X62699Y83079D01*
X62650Y82951D01*
X62610Y82911D01*
X62600Y82881D01*
X62590Y82871D01*
X62571Y82792D01*
X62511Y82753D01*
X62481Y82644D01*
X62422Y82624D01*
X62412Y82733D01*
X62491Y82812D01*
X62511Y82891D01*
X62590Y82970D01*
X62610Y83050D01*
X62670Y83109D01*
X62719Y83238D01*
X62769Y83248D01*
X62788Y83188D01*
D02*
G37*
G36*
X95067Y82693D02*
X95087Y82634D01*
Y82614D01*
X95077Y82565D01*
X95028Y82574D01*
X95008Y82654D01*
X95018Y82703D01*
X95067Y82693D01*
D02*
G37*
G36*
X62373Y82396D02*
X62343Y82366D01*
X62313Y82396D01*
Y82495D01*
X62323Y82505D01*
X62343Y82545D01*
X62392Y82555D01*
X62373Y82396D01*
D02*
G37*
G36*
X95166Y82475D02*
X95186Y82396D01*
X95176Y82287D01*
X95117Y82307D01*
X95107Y82317D01*
Y82337D01*
X95087Y82475D01*
X95107Y82515D01*
X95117Y82525D01*
X95166Y82475D01*
D02*
G37*
G36*
X62293Y82178D02*
Y81624D01*
Y81604D01*
X62274Y81485D01*
X62244Y81455D01*
X62214Y81465D01*
X62224Y82228D01*
X62293Y82178D01*
D02*
G37*
G36*
X95285D02*
Y81802D01*
Y81782D01*
X95275Y81416D01*
X95236Y81436D01*
X95206Y81465D01*
X95226Y82158D01*
X95255Y82188D01*
X95285Y82178D01*
D02*
G37*
G36*
X78819Y108566D02*
X78878Y108546D01*
X79037Y108526D01*
X79235Y108407D01*
X79274Y108368D01*
X79373Y108308D01*
X79601Y108080D01*
X79660Y107982D01*
X79740Y107843D01*
X79839Y107665D01*
X79878Y107625D01*
X80037Y107348D01*
X80076Y107249D01*
X80136Y107150D01*
X80175Y107110D01*
X80195Y107031D01*
X80235Y106991D01*
X80255Y106952D01*
X80354Y106793D01*
X80383Y106724D01*
X80393Y106714D01*
X80433Y106675D01*
X80482Y106546D01*
X80532Y106496D01*
X80611Y106358D01*
X80789Y106021D01*
X80829Y105981D01*
X80967Y105724D01*
X81007Y105684D01*
X81047Y105585D01*
X81106Y105526D01*
X81136Y105417D01*
X81205Y105348D01*
X81255Y105219D01*
X81304Y105169D01*
X81344Y105070D01*
X81383Y105031D01*
X81433Y104902D01*
X81482Y104853D01*
X81532Y104724D01*
X81601Y104655D01*
X81621Y104575D01*
X81680Y104516D01*
X81730Y104387D01*
X81779Y104338D01*
X81819Y104239D01*
X81859Y104199D01*
X81938Y104060D01*
X81977Y104021D01*
X81997Y103942D01*
X82037Y103902D01*
X82235Y103546D01*
X82314Y103407D01*
X82354Y103367D01*
X82373Y103288D01*
X82453Y103169D01*
X82512Y103070D01*
X82611Y102892D01*
X82730Y102694D01*
X82770Y102595D01*
X82829Y102536D01*
X82849Y102476D01*
X82928Y102357D01*
X83067Y102100D01*
X83106Y102060D01*
X83126Y101981D01*
X83205Y101902D01*
X83245Y101803D01*
X83304Y101704D01*
X83324Y101645D01*
X83384Y101585D01*
X83433Y101456D01*
X83482Y101407D01*
X83532Y101278D01*
X83582Y101229D01*
X83819Y100813D01*
X83859Y100773D01*
X83908Y100645D01*
X83958Y100595D01*
X83997Y100496D01*
X84057Y100437D01*
X84106Y100308D01*
X84136Y100278D01*
X84235Y100100D01*
X84393Y99823D01*
X84433Y99783D01*
X84473Y99684D01*
X84532Y99625D01*
X84562Y99516D01*
X84631Y99446D01*
X84661Y99338D01*
X84710Y99288D01*
X84790Y99149D01*
X84888Y98971D01*
X84968Y98833D01*
X85007Y98793D01*
X85037Y98684D01*
X85106Y98615D01*
X85156Y98486D01*
X85205Y98436D01*
X85265Y98338D01*
X85423Y98040D01*
X85463Y98001D01*
X85562Y97823D01*
X85641Y97684D01*
X85799Y97387D01*
X85879Y97268D01*
X85898Y97209D01*
X85958Y97149D01*
X86116Y96852D01*
X86156Y96813D01*
X86176Y96753D01*
X86255Y96635D01*
X86275Y96555D01*
X86314Y96516D01*
X86334Y96476D01*
X86493Y96199D01*
X86532Y96159D01*
X86572Y96060D01*
X86611Y96021D01*
X86661Y95892D01*
X86730Y95823D01*
X86750Y95743D01*
X86809Y95684D01*
X86859Y95555D01*
X86908Y95506D01*
X86948Y95407D01*
X86988Y95367D01*
X87126Y95110D01*
X87205Y94991D01*
X87265Y94892D01*
X87364Y94714D01*
X87522Y94416D01*
X87562Y94377D01*
X87602Y94278D01*
X87641Y94238D01*
X87661Y94199D01*
X87740Y94060D01*
X87918Y93763D01*
X88017Y93585D01*
X88057Y93545D01*
X88087Y93436D01*
X88136Y93387D01*
X88295Y93110D01*
X88394Y92931D01*
X88433Y92892D01*
X88463Y92783D01*
X88532Y92713D01*
X88552Y92634D01*
X88592Y92595D01*
X88611Y92555D01*
X88849Y92139D01*
X88889Y92100D01*
X88988Y91921D01*
X89067Y91783D01*
X89166Y91605D01*
X89205Y91565D01*
X89225Y91486D01*
X89305Y91367D01*
X89324Y91307D01*
X89384Y91248D01*
X89413Y91139D01*
X89483Y91070D01*
X89542Y90971D01*
X89582Y90872D01*
X89641Y90773D01*
X89740Y90634D01*
X89780Y90535D01*
X89800Y90496D01*
X89879Y90377D01*
X89899Y90337D01*
X90017Y90139D01*
X90117Y89961D01*
X90196Y89822D01*
X90235Y89783D01*
X90285Y89654D01*
X90315Y89624D01*
X90394Y89486D01*
X90493Y89307D01*
X90631Y89090D01*
X90691Y88990D01*
X90711Y88931D01*
X90790Y88793D01*
X90889Y88654D01*
X90928Y88555D01*
X90948Y88515D01*
X90988Y88476D01*
X91067Y88337D01*
X91166Y88159D01*
X91285Y87961D01*
X91324Y87862D01*
X91384Y87802D01*
X91404Y87723D01*
X91483Y87604D01*
X91542Y87505D01*
X91622Y87367D01*
X91661Y87327D01*
X91681Y87248D01*
X91740Y87189D01*
X91790Y87060D01*
X91859Y86990D01*
X91879Y86891D01*
X91909Y86862D01*
X91938Y86852D01*
X91988Y86723D01*
X92018Y86693D01*
X92116Y86515D01*
X92275Y86238D01*
X92315Y86198D01*
X92364Y86070D01*
X92473Y85901D01*
X92513Y85862D01*
X92562Y85733D01*
X92612Y85683D01*
X92651Y85584D01*
X92691Y85545D01*
X92740Y85416D01*
X92810Y85347D01*
X92849Y85248D01*
X92889Y85208D01*
X92909Y85129D01*
X92928Y85089D01*
X92988Y85030D01*
X93037Y84901D01*
X93087Y84852D01*
X93146Y84753D01*
X93186Y84713D01*
X93216Y84604D01*
X93245Y84575D01*
X93265Y84535D01*
X93364Y84376D01*
X93443Y84238D01*
X93513Y84089D01*
X93542Y84079D01*
X93582Y83980D01*
X93681Y83802D01*
X93760Y83683D01*
X93820Y83584D01*
X93978Y83307D01*
X94018Y83267D01*
X94057Y83169D01*
X94077Y83109D01*
X94137Y83050D01*
X94196Y82951D01*
X94374Y82614D01*
X94414Y82574D01*
X94453Y82475D01*
X94513Y82416D01*
X94542Y82307D01*
X94612Y82178D01*
X94641Y82010D01*
X94661Y81931D01*
X94671Y81723D01*
X94651Y81663D01*
X94631Y81584D01*
X94612Y81446D01*
X94533Y81327D01*
X94513Y81287D01*
X94433Y81208D01*
X94414Y81168D01*
X94384Y81139D01*
X94344Y81119D01*
X94285Y81059D01*
X94226Y81040D01*
X94166Y80980D01*
X94037Y80950D01*
X93909Y80881D01*
X93394Y80842D01*
X63769Y80861D01*
X63709Y80881D01*
X63571Y80901D01*
X63392Y80980D01*
X63353Y81000D01*
X63234Y81079D01*
X63194Y81099D01*
X63135Y81159D01*
X63095Y81178D01*
X62986Y81287D01*
X62927Y81386D01*
X62868Y81525D01*
X62848Y81723D01*
X62808Y81822D01*
X62828Y81941D01*
X62868Y82040D01*
X62888Y82238D01*
X63026Y82495D01*
X63066Y82535D01*
X63095Y82644D01*
X63165Y82713D01*
X63184Y82792D01*
X63224Y82832D01*
X63244Y82871D01*
X63402Y83149D01*
X63501Y83327D01*
X63541Y83367D01*
X63571Y83475D01*
X63640Y83545D01*
X63660Y83624D01*
X63699Y83663D01*
X63719Y83703D01*
X63818Y83862D01*
X63868Y83990D01*
X63907Y84010D01*
X63937Y84099D01*
X63957Y84139D01*
X63996Y84178D01*
X64076Y84317D01*
X64115Y84357D01*
X64135Y84436D01*
X64214Y84555D01*
X64274Y84654D01*
X64353Y84792D01*
X64452Y84970D01*
X64491Y85010D01*
X64511Y85089D01*
X64591Y85208D01*
X64650Y85307D01*
X64749Y85485D01*
X64868Y85683D01*
X64907Y85782D01*
X64967Y85842D01*
X64987Y85921D01*
X65066Y86040D01*
X65125Y86139D01*
X65284Y86416D01*
X65323Y86456D01*
X65373Y86585D01*
X65442Y86654D01*
X65462Y86753D01*
X65521Y86792D01*
X65571Y86921D01*
X65601Y86951D01*
X65699Y87129D01*
X65779Y87268D01*
X65878Y87446D01*
X65917Y87485D01*
X65937Y87565D01*
X65996Y87624D01*
X66046Y87753D01*
X66096Y87802D01*
X66234Y88060D01*
X66294Y88159D01*
X66313Y88198D01*
X66393Y88317D01*
X66412Y88377D01*
X66472Y88436D01*
X66492Y88515D01*
X66551Y88614D01*
X66709Y88892D01*
X66749Y88931D01*
X66848Y89109D01*
X66868Y89169D01*
X66888Y89208D01*
X66947Y89268D01*
X66997Y89397D01*
X67046Y89446D01*
X67086Y89545D01*
X67165Y89664D01*
X67304Y89921D01*
X67343Y89961D01*
X67363Y90040D01*
X67422Y90100D01*
X67472Y90228D01*
X67521Y90278D01*
X67620Y90456D01*
X67719Y90614D01*
X67858Y90872D01*
X67898Y90911D01*
X67947Y91040D01*
X67997Y91090D01*
X68036Y91189D01*
X68155Y91387D01*
X68195Y91426D01*
X68234Y91525D01*
X68274Y91565D01*
X68323Y91694D01*
X68373Y91743D01*
X68422Y91872D01*
X68472Y91921D01*
X68511Y92020D01*
X68551Y92060D01*
X68650Y92238D01*
X68729Y92377D01*
X68927Y92733D01*
X69026Y92872D01*
X69185Y93169D01*
X69244Y93268D01*
X69284Y93367D01*
X69323Y93407D01*
X69403Y93545D01*
X69442Y93585D01*
X69462Y93664D01*
X69521Y93723D01*
X69571Y93852D01*
X69620Y93902D01*
X69660Y94001D01*
X69700Y94040D01*
X69749Y94169D01*
X69819Y94238D01*
X69838Y94318D01*
X69898Y94377D01*
X69947Y94506D01*
X69997Y94555D01*
X70036Y94654D01*
X70116Y94773D01*
X70135Y94813D01*
X70254Y95030D01*
X70353Y95209D01*
X70393Y95248D01*
X70413Y95328D01*
X70472Y95387D01*
X70611Y95644D01*
X70650Y95684D01*
X70809Y95981D01*
X70848Y96021D01*
X70898Y96149D01*
X70927Y96179D01*
X71026Y96357D01*
X71106Y96496D01*
X71244Y96714D01*
X71264Y96793D01*
X71324Y96852D01*
X71373Y96981D01*
X71422Y97031D01*
X71462Y97129D01*
X71502Y97169D01*
X71640Y97427D01*
X71720Y97545D01*
X71739Y97605D01*
X71799Y97664D01*
X71829Y97773D01*
X71918Y97902D01*
X72036Y98120D01*
X72076Y98159D01*
X72234Y98456D01*
X72274Y98496D01*
X72324Y98625D01*
X72373Y98674D01*
X72413Y98773D01*
X72452Y98813D01*
X72631Y99149D01*
X72670Y99189D01*
X72690Y99268D01*
X72749Y99328D01*
X72799Y99456D01*
X72848Y99506D01*
X72888Y99605D01*
X72927Y99645D01*
X73086Y99922D01*
X73126Y99961D01*
X73145Y100040D01*
X73205Y100140D01*
X73284Y100278D01*
X73324Y100318D01*
X73363Y100417D01*
X73423Y100476D01*
X73442Y100555D01*
X73522Y100674D01*
X73581Y100773D01*
X73621Y100872D01*
X73640Y100912D01*
X73700Y100971D01*
X73739Y101070D01*
X73779Y101110D01*
X73819Y101209D01*
X73839Y101249D01*
X73898Y101308D01*
X73918Y101387D01*
X74017Y101526D01*
X74136Y101744D01*
X74175Y101783D01*
X74205Y101892D01*
X74353Y102100D01*
X74512Y102397D01*
X74551Y102437D01*
X74591Y102536D01*
X74710Y102734D01*
X74749Y102773D01*
X74779Y102882D01*
X74809Y102912D01*
X74829Y102952D01*
X74908Y103090D01*
X74947Y103130D01*
X74987Y103229D01*
X75027Y103268D01*
X75106Y103407D01*
X75146Y103506D01*
X75165Y103546D01*
X75225Y103605D01*
X75254Y103714D01*
X75324Y103783D01*
X75344Y103863D01*
X75383Y103902D01*
X75403Y103942D01*
X75502Y104100D01*
X75551Y104229D01*
X75621Y104298D01*
X75759Y104556D01*
X75799Y104595D01*
X75819Y104674D01*
X75898Y104793D01*
X75957Y104892D01*
X76037Y105031D01*
X76136Y105209D01*
X76175Y105249D01*
X76205Y105358D01*
X76274Y105427D01*
X76314Y105526D01*
X76353Y105566D01*
X76393Y105665D01*
X76413Y105704D01*
X76452Y105744D01*
X76502Y105872D01*
X76552Y105922D01*
X76591Y106021D01*
X76651Y106080D01*
X76730Y106219D01*
X76769Y106318D01*
X76789Y106358D01*
X76829Y106397D01*
X76967Y106655D01*
X77007Y106694D01*
X77106Y106873D01*
X77146Y106972D01*
X77383Y107368D01*
X77462Y107506D01*
X77561Y107685D01*
X77601Y107724D01*
X77621Y107803D01*
X77650Y107853D01*
X77680Y107863D01*
X77759Y108001D01*
X77799Y108041D01*
X77819Y108100D01*
X77878Y108160D01*
X77898Y108199D01*
X77967Y108269D01*
X78007Y108289D01*
X78146Y108427D01*
X78274Y108477D01*
X78304Y108506D01*
X78462Y108546D01*
X78641Y108566D01*
X78700Y108586D01*
X78819Y108566D01*
D02*
G37*
G36*
X95176Y81297D02*
X95186Y81228D01*
Y81208D01*
X95107Y81089D01*
X95067Y80990D01*
X95008Y80931D01*
X94958Y80842D01*
X94919Y80822D01*
X94829Y80733D01*
X94810Y80693D01*
X94780Y80663D01*
X94740Y80644D01*
X94721Y80604D01*
X94622Y80545D01*
X94582Y80505D01*
X94503Y80485D01*
X94463Y80465D01*
X94404Y80406D01*
X94255Y80416D01*
X94285Y80465D01*
X94443Y80505D01*
X94473Y80535D01*
X94483Y80564D01*
X94582Y80604D01*
X94641Y80663D01*
X94711Y80693D01*
X94731Y80733D01*
X94780Y80782D01*
X94820Y80802D01*
X94909Y80891D01*
X94929Y80931D01*
X95008Y81010D01*
X95028Y81109D01*
X95087Y81149D01*
X95117Y81277D01*
X95136Y81317D01*
X95176Y81297D01*
D02*
G37*
G36*
X94255Y80376D02*
X94186Y80307D01*
X94087D01*
X93988Y80327D01*
X93978Y80337D01*
X94028Y80386D01*
X94245Y80406D01*
X94255Y80376D01*
D02*
G37*
G36*
X62363Y81357D02*
X62392Y81327D01*
X62412Y81149D01*
X62442Y81119D01*
X62481Y81099D01*
X62521Y81000D01*
X62571Y80950D01*
X62590Y80911D01*
X62818Y80683D01*
X62917Y80624D01*
X63056Y80564D01*
X63066Y80554D01*
X63086Y80515D01*
X63165Y80495D01*
X63264Y80455D01*
X63313Y80406D01*
X63551Y80366D01*
X63561Y80317D01*
X63373Y80307D01*
X63283Y80356D01*
X63274Y80386D01*
X63194Y80406D01*
X63095Y80426D01*
X63046Y80495D01*
X62947Y80515D01*
X62878Y80584D01*
X62779Y80644D01*
X62739Y80683D01*
X62670Y80713D01*
X62660Y80743D01*
X62620Y80762D01*
X62571Y80812D01*
X62551Y80852D01*
X62491Y80911D01*
X62472Y80950D01*
X62412Y81010D01*
X62383Y81119D01*
X62333Y81168D01*
X62313Y81248D01*
X62323Y81376D01*
X62363Y81357D01*
D02*
G37*
G36*
X93830Y80267D02*
X93859Y80238D01*
X93849Y80208D01*
X66581D01*
X63719Y80218D01*
X63739Y80257D01*
X63769Y80287D01*
X93830Y80267D01*
D02*
G37*
%LPC*%
G36*
X78819Y106526D02*
X78759Y106506D01*
X78700Y106387D01*
X78621Y106249D01*
X78581Y106229D01*
X78542Y106130D01*
X78492Y106080D01*
X78433Y105922D01*
X78393Y105882D01*
X78344Y105754D01*
X78294Y105684D01*
X78195Y105585D01*
Y105566D01*
X78155Y105467D01*
X78076Y105348D01*
X78057Y105269D01*
X78017Y105229D01*
X77997Y105189D01*
X77957Y105150D01*
X77938Y105110D01*
X77859Y104972D01*
X77740Y104754D01*
X77650Y104645D01*
X77561Y104476D01*
X77443Y104259D01*
X77403Y104219D01*
X77383Y104179D01*
X77344Y104140D01*
X77304Y104041D01*
X77264Y104001D01*
X77215Y103872D01*
X77126Y103724D01*
X77116Y103694D01*
X77076Y103674D01*
X77047Y103645D01*
X77027Y103546D01*
X76967Y103486D01*
X76829Y103229D01*
X76769Y103169D01*
X76720Y103041D01*
X76670Y102991D01*
X76651Y102912D01*
X76591Y102853D01*
X76532Y102694D01*
X76492Y102655D01*
X76472Y102615D01*
X76413Y102556D01*
X76215Y102179D01*
X76175Y102140D01*
X76155Y102100D01*
X76116Y102060D01*
X76076Y101961D01*
X75997Y101843D01*
X75977Y101763D01*
X75938Y101724D01*
X75868Y101595D01*
X75829Y101575D01*
X75769Y101456D01*
X75740Y101427D01*
X75690Y101298D01*
X75581Y101130D01*
X75522Y101070D01*
X75502Y100971D01*
X75442Y100912D01*
X75304Y100654D01*
X75244Y100595D01*
X75225Y100516D01*
X75146Y100397D01*
X75086Y100298D01*
X75046Y100199D01*
X74987Y100100D01*
X74947Y100060D01*
X74928Y100021D01*
X74888Y99981D01*
X74650Y99526D01*
X74571Y99446D01*
X74551Y99387D01*
X74512Y99348D01*
X74472Y99248D01*
X74363Y99041D01*
X74324Y99021D01*
X74294Y98991D01*
X74274Y98912D01*
X74215Y98852D01*
X74165Y98724D01*
X74056Y98555D01*
X74017Y98516D01*
X73967Y98387D01*
X73918Y98338D01*
X73878Y98238D01*
X73839Y98199D01*
X73779Y98040D01*
X73720Y97981D01*
X73700Y97941D01*
X73621Y97823D01*
X73561Y97724D01*
X73522Y97625D01*
X73403Y97427D01*
X73343Y97367D01*
X73264Y97228D01*
X73225Y97129D01*
X73205Y97090D01*
X73046Y96852D01*
X73027Y96813D01*
X72987Y96773D01*
X72937Y96644D01*
X72829Y96476D01*
X72769Y96417D01*
X72749Y96337D01*
X72690Y96278D01*
X72660Y96169D01*
X72631Y96139D01*
X72611Y96100D01*
X72512Y95961D01*
X72413Y95783D01*
X72333Y95644D01*
X72274Y95506D01*
X72254Y95466D01*
X72195Y95407D01*
X72175Y95367D01*
X72135Y95328D01*
X72036Y95149D01*
X71997Y95050D01*
X71937Y94951D01*
X71898Y94912D01*
X71878Y94872D01*
X71838Y94832D01*
X71799Y94733D01*
X71759Y94694D01*
X71720Y94595D01*
X71660Y94496D01*
X71571Y94387D01*
X71502Y94238D01*
X71462Y94199D01*
X71413Y94070D01*
X71304Y93902D01*
X71244Y93842D01*
X71224Y93743D01*
X71165Y93684D01*
X70967Y93308D01*
X70888Y93228D01*
X70848Y93129D01*
X70828Y93090D01*
X70789Y93050D01*
X70729Y92892D01*
X70670Y92832D01*
X70650Y92793D01*
X70611Y92753D01*
X70373Y92298D01*
X70343Y92268D01*
X70314Y92258D01*
X70274Y92159D01*
X70234Y92119D01*
X70195Y92020D01*
X70135Y91921D01*
X70096Y91822D01*
X70036Y91723D01*
X69937Y91624D01*
X69908Y91515D01*
X69878Y91486D01*
X69858Y91446D01*
X69739Y91228D01*
X69700Y91189D01*
X69680Y91149D01*
X69640Y91109D01*
X69620Y91030D01*
X69561Y90971D01*
X69521Y90872D01*
X69462Y90773D01*
X69363Y90634D01*
X69284Y90496D01*
X69244Y90396D01*
X69224Y90357D01*
X69046Y90100D01*
X69026Y90060D01*
X68848Y89723D01*
X68789Y89684D01*
X68769Y89604D01*
X68749Y89565D01*
X68690Y89505D01*
X68670Y89426D01*
X68591Y89307D01*
X68541Y89179D01*
X68472Y89109D01*
X68452Y89070D01*
X68413Y89030D01*
X68373Y88931D01*
X68333Y88892D01*
X68294Y88793D01*
X68234Y88693D01*
X68115Y88515D01*
X68056Y88416D01*
X67937Y88198D01*
X67848Y88090D01*
X67809Y87990D01*
X67759Y87921D01*
X67719Y87822D01*
X67700Y87783D01*
X67660Y87743D01*
X67620Y87644D01*
X67541Y87565D01*
X67333Y87159D01*
X67294Y87139D01*
X67264Y87109D01*
X67234Y87000D01*
X67185Y86951D01*
X67046Y86693D01*
X66967Y86614D01*
X66947Y86515D01*
X66888Y86456D01*
X66868Y86377D01*
X66808Y86317D01*
X66759Y86188D01*
X66709Y86119D01*
X66620Y86010D01*
X66551Y85862D01*
X66511Y85822D01*
X66482Y85713D01*
X66452Y85683D01*
X66432Y85644D01*
X66333Y85505D01*
X66234Y85347D01*
X66185Y85218D01*
X66135Y85169D01*
X66115Y85089D01*
X66086Y85060D01*
X66046Y85040D01*
X65917Y84792D01*
X65798Y84594D01*
X65739Y84535D01*
X65709Y84426D01*
X65640Y84357D01*
X65620Y84277D01*
X65581Y84238D01*
X65541Y84139D01*
X65462Y84000D01*
X65402Y83941D01*
X65383Y83901D01*
X65303Y83763D01*
X65244Y83624D01*
X65224Y83584D01*
X65185Y83545D01*
X65125Y83446D01*
X65086Y83406D01*
X65006Y83267D01*
X64887Y83050D01*
X64789Y82911D01*
X64630Y82614D01*
X64531Y82475D01*
X64442Y82287D01*
X64462Y82248D01*
X64600Y82267D01*
X93028Y82257D01*
X93067Y82297D01*
X92869Y82673D01*
X92730Y82871D01*
X92691Y82970D01*
X92612Y83089D01*
X92552Y83188D01*
X92433Y83367D01*
X92394Y83465D01*
X92354Y83505D01*
X92315Y83604D01*
X92156Y83842D01*
X92018Y84099D01*
X91978Y84139D01*
X91958Y84218D01*
X91899Y84317D01*
X91859Y84357D01*
X91839Y84396D01*
X91800Y84436D01*
X91760Y84535D01*
X91701Y84634D01*
X91602Y84812D01*
X91562Y84852D01*
X91542Y84891D01*
X91503Y84931D01*
X91483Y85010D01*
X91423Y85109D01*
X91344Y85248D01*
X91305Y85287D01*
X91285Y85327D01*
X91245Y85367D01*
X91225Y85406D01*
X91186Y85505D01*
X91166Y85545D01*
X91126Y85584D01*
X91077Y85713D01*
X91027Y85763D01*
X90978Y85891D01*
X90928Y85921D01*
X90849Y86060D01*
X90810Y86159D01*
X90750Y86258D01*
X90671Y86396D01*
X90582Y86505D01*
X90532Y86614D01*
X90374Y86891D01*
X90334Y86990D01*
X90315Y87030D01*
X90235Y87109D01*
X90117Y87327D01*
X90077Y87367D01*
X90057Y87446D01*
X90027Y87515D01*
X89988Y87535D01*
X89958Y87565D01*
X89740Y87981D01*
X89661Y88060D01*
X89641Y88119D01*
X89602Y88159D01*
X89572Y88268D01*
X89503Y88377D01*
X89423Y88515D01*
X89364Y88575D01*
X89344Y88614D01*
X89225Y88832D01*
X89146Y88971D01*
X89107Y89070D01*
X89087Y89109D01*
X89008Y89188D01*
X88780Y89614D01*
X88740Y89634D01*
X88631Y89842D01*
X88493Y90100D01*
X88453Y90139D01*
X88433Y90179D01*
X88374Y90238D01*
X88314Y90396D01*
X88275Y90436D01*
X88235Y90535D01*
X88176Y90634D01*
X88077Y90733D01*
X88047Y90842D01*
X87998Y90911D01*
X87958Y91010D01*
X87938Y91050D01*
X87859Y91169D01*
X87839Y91228D01*
X87780Y91288D01*
X87760Y91327D01*
X87720Y91367D01*
X87681Y91466D01*
X87621Y91565D01*
X87522Y91743D01*
X87483Y91783D01*
X87463Y91822D01*
X87423Y91862D01*
X87374Y91991D01*
X87285Y92139D01*
X87265Y92179D01*
X87225Y92218D01*
X87205Y92298D01*
X87186Y92337D01*
X87106Y92416D01*
X86889Y92832D01*
X86809Y92911D01*
X86790Y92971D01*
X86750Y93010D01*
X86700Y93139D01*
X86631Y93268D01*
X86611Y93308D01*
X86552Y93367D01*
X86532Y93407D01*
X86453Y93525D01*
X86433Y93605D01*
X86393Y93644D01*
X86295Y93822D01*
X86255Y93922D01*
X86235Y93961D01*
X86156Y94040D01*
X86097Y94139D01*
X85997Y94318D01*
X85958Y94416D01*
X85938Y94456D01*
X85898Y94496D01*
X85879Y94535D01*
X85839Y94575D01*
X85819Y94614D01*
X85700Y94832D01*
X85621Y94971D01*
X85582Y95011D01*
X85562Y95050D01*
X85522Y95090D01*
X85473Y95218D01*
X85403Y95347D01*
X85384Y95387D01*
X85304Y95506D01*
X85285Y95585D01*
X85215Y95634D01*
X85185Y95704D01*
X85067Y95902D01*
X85027Y95941D01*
X85007Y96040D01*
X84928Y96120D01*
X84869Y96219D01*
X84829Y96318D01*
X84770Y96417D01*
X84690Y96555D01*
X84651Y96575D01*
X84473Y96912D01*
X84393Y97050D01*
X84304Y97159D01*
X84255Y97288D01*
X84235Y97328D01*
X84176Y97387D01*
X84126Y97516D01*
X84077Y97565D01*
X84057Y97664D01*
X84027Y97694D01*
X83987Y97714D01*
X83878Y97922D01*
X83760Y98140D01*
X83680Y98219D01*
X83661Y98278D01*
X83601Y98377D01*
X83582Y98456D01*
X83522Y98516D01*
X83482Y98615D01*
X83463Y98654D01*
X83403Y98714D01*
X83384Y98753D01*
X83324Y98813D01*
X83294Y98922D01*
X83245Y98991D01*
X83166Y99130D01*
X83067Y99308D01*
X83027Y99348D01*
X82948Y99486D01*
X82928Y99546D01*
X82869Y99645D01*
X82770Y99823D01*
X82730Y99862D01*
X82710Y99902D01*
X82671Y99941D01*
X82621Y100070D01*
X82572Y100140D01*
X82492Y100278D01*
X82373Y100456D01*
X82334Y100555D01*
X82294Y100595D01*
X82255Y100694D01*
X82235Y100734D01*
X82175Y100793D01*
X82156Y100833D01*
X82096Y100892D01*
X82077Y100971D01*
X82017Y101070D01*
X81958Y101209D01*
X81938Y101249D01*
X81898Y101288D01*
X81849Y101397D01*
X81809Y101417D01*
X81710Y101575D01*
X81661Y101704D01*
X81562Y101882D01*
X81502Y101942D01*
X81482Y101981D01*
X81443Y102021D01*
X81393Y102150D01*
X81245Y102397D01*
X81225Y102456D01*
X81175Y102546D01*
X81136Y102565D01*
X81027Y102773D01*
X80908Y102991D01*
X80829Y103070D01*
X80809Y103130D01*
X80769Y103169D01*
X80720Y103298D01*
X80572Y103546D01*
X80532Y103585D01*
X80512Y103625D01*
X80472Y103665D01*
X80443Y103773D01*
X80393Y103843D01*
X80314Y103981D01*
X80274Y104021D01*
X80255Y104060D01*
X80215Y104100D01*
X80175Y104199D01*
X80017Y104496D01*
X79918Y104674D01*
X79878Y104714D01*
X79859Y104754D01*
X79819Y104793D01*
X79769Y104922D01*
X79720Y104991D01*
X79641Y105130D01*
X79552Y105239D01*
X79502Y105348D01*
X79364Y105605D01*
X79324Y105645D01*
X79304Y105744D01*
X79205Y105843D01*
X79185Y105902D01*
X79146Y105942D01*
X79106Y106041D01*
X79047Y106100D01*
X79017Y106209D01*
X78948Y106279D01*
X78819Y106526D01*
D02*
G37*
%LPD*%
G36*
X80235Y101803D02*
X80195Y101763D01*
X80156Y101605D01*
X80076Y101427D01*
X79898Y101050D01*
X79878Y101011D01*
X79839Y100971D01*
X79779Y100773D01*
X79760Y100694D01*
X79700Y100595D01*
X79680Y100516D01*
X79641Y100476D01*
X79591Y100347D01*
X79522Y100219D01*
X79492Y100110D01*
X79423Y100040D01*
X79403Y99862D01*
X79344Y99803D01*
X79284Y99645D01*
X79146Y99348D01*
X79066Y99209D01*
X79047Y99149D01*
X79017Y99001D01*
X78967Y98951D01*
X78908Y98793D01*
X78868Y98753D01*
X78839Y98644D01*
X78809Y98615D01*
X78789Y98575D01*
X78769Y98516D01*
X78720Y98387D01*
X78670Y98338D01*
X78651Y98179D01*
X78571Y98060D01*
X78522Y97931D01*
X78492Y97902D01*
X78443Y97773D01*
X78393Y97684D01*
X78354Y97526D01*
X78314Y97427D01*
X78215Y97248D01*
X78175Y97149D01*
X78096Y96971D01*
X78076Y96931D01*
X78017Y96833D01*
X77977Y96694D01*
X77928Y96565D01*
X77878Y96456D01*
X77859Y96417D01*
X77621Y95921D01*
X77581Y95823D01*
X77542Y95783D01*
X77522Y95704D01*
X77502Y95585D01*
X77443Y95525D01*
X77383Y95367D01*
X77324Y95228D01*
X77304Y95169D01*
X77245Y95110D01*
X77215Y95001D01*
X77195Y94902D01*
X77146Y94813D01*
X77106Y94714D01*
X77066Y94674D01*
X77007Y94516D01*
X76967Y94476D01*
X76938Y94367D01*
X76888Y94298D01*
X76868Y94238D01*
X76829Y94100D01*
X76809Y94020D01*
X76769Y93981D01*
X76720Y93852D01*
X76690Y93822D01*
X76641Y93694D01*
X76571Y93565D01*
X76472Y93347D01*
X76452Y93208D01*
X76413Y93169D01*
X76373Y93070D01*
X76195Y92694D01*
X76136Y92595D01*
X76096Y92555D01*
X76106Y92486D01*
X76155Y92476D01*
X76225Y92525D01*
X76561Y92704D01*
X76759Y92842D01*
X76839Y92862D01*
X76878Y92902D01*
X76918Y92921D01*
X77017Y92961D01*
X77056Y92981D01*
X77096Y93020D01*
X77195Y93060D01*
X77294Y93119D01*
X77373Y93199D01*
X77472Y93238D01*
X77571Y93298D01*
X77670Y93337D01*
X77769Y93397D01*
X77868Y93436D01*
X77908Y93456D01*
X78106Y93575D01*
X78146Y93615D01*
X78185Y93634D01*
X78225Y93674D01*
X78324Y93713D01*
X78621Y93872D01*
X78759Y93951D01*
X78859Y93991D01*
X78898Y94011D01*
X78977Y94090D01*
X79631Y94426D01*
X79690Y94486D01*
X79730Y94506D01*
X79769Y94545D01*
X79878Y94575D01*
X79908Y94605D01*
X79948Y94625D01*
X80284Y94803D01*
X80324Y94842D01*
X80423Y94862D01*
X80502Y94941D01*
X80601Y95001D01*
X81136Y95278D01*
X81175Y95318D01*
X81215Y95337D01*
X81255Y95377D01*
X81354Y95417D01*
X81532Y95496D01*
X81562Y95486D01*
X81542Y95407D01*
X81522Y95347D01*
X81482Y95189D01*
X81443Y95149D01*
X81423Y95070D01*
X81403Y94892D01*
X81383Y94832D01*
X81324Y94694D01*
X81304Y94555D01*
X81284Y94496D01*
X81265Y94377D01*
X81225Y94337D01*
X81195Y94169D01*
X81165Y94100D01*
X81146Y94040D01*
X81126Y93961D01*
X81106Y93862D01*
X81067Y93822D01*
X81047Y93743D01*
X81027Y93585D01*
X81007Y93525D01*
X80987Y93446D01*
X80948Y93347D01*
X80928Y93228D01*
X80849Y93110D01*
X80829Y92832D01*
X80789Y92793D01*
X80750Y92654D01*
X80730Y92555D01*
X80710Y92496D01*
X80690Y92377D01*
X80631Y92238D01*
X80611Y92119D01*
X80572Y92080D01*
X80552Y91901D01*
X80512Y91862D01*
X80492Y91703D01*
X80472Y91644D01*
X80433Y91505D01*
X80373Y91367D01*
X80354Y91149D01*
X80274Y90971D01*
X80255Y90832D01*
X80215Y90793D01*
X80156Y90555D01*
X80136Y90496D01*
X80116Y90377D01*
X80096Y90317D01*
X80076Y90198D01*
X80037Y90100D01*
X80017Y90000D01*
X79977Y89902D01*
X79997Y89842D01*
X79898Y89684D01*
X79878Y89525D01*
X79859Y89466D01*
X79839Y89347D01*
X79779Y89208D01*
X79760Y89090D01*
X79700Y88951D01*
X79670Y88723D01*
X79641Y88693D01*
X79621Y88614D01*
X79591Y88466D01*
X79522Y88337D01*
X79502Y88198D01*
X79462Y88119D01*
X79482Y88060D01*
X79423Y87961D01*
X79403Y87802D01*
X79344Y87703D01*
X79324Y87624D01*
X79304Y87485D01*
X79245Y87426D01*
X79264Y87327D01*
X79344Y87307D01*
X79453Y87258D01*
X79799Y87228D01*
X79888Y87198D01*
X79987Y87179D01*
X80047Y87159D01*
X80324Y87139D01*
X80354Y87109D01*
X80334Y87010D01*
X80294Y86971D01*
X80274Y86931D01*
X80195Y86852D01*
X80146Y86723D01*
X80076Y86654D01*
X80057Y86614D01*
X79997Y86555D01*
X79948Y86426D01*
X79878Y86357D01*
X79859Y86317D01*
X79819Y86278D01*
X79720Y86099D01*
X79680Y86060D01*
X79660Y86020D01*
X79621Y85980D01*
X79581Y85882D01*
X79462Y85763D01*
X79403Y85624D01*
X79383Y85584D01*
X79264Y85466D01*
X79195Y85337D01*
X79156Y85317D01*
X79047Y85109D01*
X78967Y84970D01*
X78868Y84872D01*
X78809Y84772D01*
X78750Y84713D01*
X78730Y84654D01*
X78690Y84614D01*
X78611Y84475D01*
X78571Y84436D01*
X78512Y84337D01*
X78433Y84198D01*
X78393Y84178D01*
X78314Y84040D01*
X78254Y83941D01*
X78195Y83881D01*
X78066Y83634D01*
X78007Y83614D01*
X77938Y83663D01*
X77918Y83862D01*
X77878Y83961D01*
X77859Y84099D01*
X77819Y84139D01*
X77799Y84218D01*
X77779Y84376D01*
X77740Y84475D01*
X77720Y84594D01*
X77700Y84654D01*
X77680Y84753D01*
X77641Y84852D01*
X77621Y84970D01*
X77601Y85030D01*
X77581Y85149D01*
X77542Y85248D01*
X77522Y85327D01*
X77502Y85466D01*
X77482Y85545D01*
X77443Y85644D01*
X77413Y85753D01*
X77393Y85911D01*
X77363Y85941D01*
X77344Y86020D01*
X77314Y86129D01*
X77294Y86307D01*
X77245Y86357D01*
X77225Y86495D01*
X77205Y86575D01*
X77165Y86614D01*
X77146Y86852D01*
X77066Y87030D01*
X77086Y87089D01*
X77027Y87228D01*
X77007Y87446D01*
X76967Y87485D01*
X76928Y87644D01*
X76947Y87703D01*
X76997Y87733D01*
X77136Y87674D01*
X77235Y87654D01*
X77294Y87634D01*
X77611Y87614D01*
X77690Y87575D01*
X77750Y87594D01*
X77888Y87535D01*
X78066Y87555D01*
X78086Y88565D01*
X78106Y88842D01*
X78126Y89397D01*
X78155Y89426D01*
X78175Y89565D01*
X78195Y91228D01*
X78215Y91288D01*
X78235Y91783D01*
X78254Y91842D01*
X78245Y91931D01*
X78146Y91912D01*
X77987Y91812D01*
X77908Y91793D01*
X77789Y91713D01*
X77710Y91694D01*
X77670Y91654D01*
X77571Y91614D01*
X75492Y90585D01*
X75393Y90525D01*
X75353Y90486D01*
X75215Y90466D01*
X75146Y90436D01*
X75126Y90396D01*
X74957Y90307D01*
X74878Y90288D01*
X74819Y90228D01*
X74720Y90189D01*
X74343Y90010D01*
X74244Y89991D01*
X74145Y89891D01*
X74106Y89911D01*
X74076Y89941D01*
X74096Y90080D01*
X74136Y90179D01*
X74155Y90298D01*
X74195Y90396D01*
X74215Y90476D01*
X74234Y90535D01*
X74274Y90634D01*
X74294Y90773D01*
X74334Y90812D01*
X74373Y90911D01*
X74393Y91149D01*
X74472Y91327D01*
X74492Y91446D01*
X74512Y91505D01*
Y91525D01*
Y91545D01*
X74532Y91605D01*
X74571Y91703D01*
X74611Y91862D01*
X74650Y91961D01*
X74670Y92080D01*
X74710Y92179D01*
X74690Y92218D01*
X74749Y92317D01*
X74769Y92397D01*
X74789Y92515D01*
X74848Y92615D01*
X74868Y92773D01*
X74928Y92872D01*
X74947Y92951D01*
X74967Y93050D01*
X74987Y93110D01*
X75007Y93228D01*
X75046Y93327D01*
X75086Y93486D01*
X75126Y93585D01*
X75146Y93743D01*
X75185Y93862D01*
X75225Y93961D01*
X75244Y94100D01*
X75284Y94139D01*
X75324Y94238D01*
X75344Y94377D01*
X75363Y94436D01*
X75383Y94555D01*
X75423Y94595D01*
X75442Y94773D01*
X75502Y94872D01*
X75551Y95179D01*
X75581Y95209D01*
X75621Y95347D01*
X75640Y95426D01*
X75700Y95565D01*
X75720Y95743D01*
X75779Y95803D01*
X75799Y95882D01*
X75819Y96100D01*
X75878Y96199D01*
X75898Y96337D01*
X75977Y96516D01*
X75997Y96654D01*
X76037Y96813D01*
X76076Y96912D01*
X76096Y97031D01*
X76175Y97149D01*
X76195Y97367D01*
X76235Y97486D01*
X76274Y97585D01*
X76294Y97724D01*
X76334Y97763D01*
X76373Y97902D01*
X76393Y98100D01*
X76452Y98238D01*
X76492Y98397D01*
X76512Y98456D01*
X76532Y98555D01*
X76571Y98654D01*
X76601Y98783D01*
X76651Y98892D01*
X76670Y99050D01*
X76730Y99110D01*
X76749Y99248D01*
X76769Y99328D01*
X76789Y99387D01*
X76809Y99506D01*
X76849Y99605D01*
X76868Y99684D01*
X76928Y99823D01*
X76957Y99991D01*
X77007Y100060D01*
X77027Y100120D01*
X77047Y100318D01*
X77066Y100377D01*
X77126Y100516D01*
X77146Y100654D01*
X77165Y100714D01*
X77185Y100833D01*
X77225Y100872D01*
X77245Y101011D01*
X77304Y101149D01*
X77324Y101229D01*
X77344Y101328D01*
X77363Y101387D01*
X77383Y101506D01*
X77423Y101605D01*
X77462Y101763D01*
X77532Y101833D01*
X77611Y101853D01*
X77710Y101833D01*
X77769Y101853D01*
X80136Y101843D01*
X80225Y101853D01*
X80235Y101803D01*
D02*
G37*
D10*
X98819Y217717D02*
G03*
X98819Y217717I-394J0D01*
G01*
X103543Y215354D02*
G03*
X100394Y215354I-1575J0D01*
G01*
X100787Y172835D02*
G03*
X103937Y172835I1575J-0D01*
G01*
X106299Y170472D02*
G03*
X106299Y170472I-394J0D01*
G01*
X67716Y209449D02*
G03*
X67716Y209449I-394J0D01*
G01*
X69291Y213386D02*
G03*
X69291Y211024I0J-1181D01*
G01*
X103543Y182677D02*
G03*
X100394Y182677I-1575J0D01*
G01*
X98819Y185039D02*
G03*
X98819Y185039I-394J0D01*
G01*
X67716Y173622D02*
G03*
X67716Y173622I-394J0D01*
G01*
X69291Y177559D02*
G03*
X69291Y175197I0J-1181D01*
G01*
X95669Y215354D02*
Y232677D01*
Y215354D02*
X100394D01*
X95669Y232677D02*
X108268D01*
Y215354D02*
Y232677D01*
X103543Y215354D02*
X108268D01*
X50787Y223622D02*
X56299D01*
Y212598D02*
Y223622D01*
X50787Y212598D02*
X56299D01*
X50787D02*
Y223622D01*
Y176378D02*
X56299D01*
X50787D02*
Y187402D01*
X56299D01*
Y176378D02*
Y187402D01*
X96063Y172835D02*
X100787D01*
X96063Y155512D02*
Y172835D01*
Y155512D02*
X108661D01*
X103937Y172835D02*
X108661D01*
Y155512D02*
Y172835D01*
X57480Y207480D02*
Y216929D01*
X69291D01*
Y213386D02*
Y216929D01*
X57480Y207480D02*
X69291D01*
Y211024D01*
X103543Y182677D02*
X108268D01*
Y200000D01*
X95669D02*
X108268D01*
X95669Y182677D02*
X100394D01*
X95669D02*
Y200000D01*
X57480Y171653D02*
Y181102D01*
X69291D01*
Y177559D02*
Y181102D01*
X57480Y171653D02*
X69291D01*
Y175197D01*
D11*
X110631Y241075D02*
X113910D01*
X114566Y240419D01*
Y239107D01*
X113910Y238451D01*
X110631D01*
X114566Y234516D02*
Y237139D01*
X111943Y234516D01*
X111286D01*
X110631Y235171D01*
Y236483D01*
X111286Y237139D01*
X60761Y179266D02*
X61417Y178610D01*
Y177298D01*
X60761Y176642D01*
X58137D01*
X57481Y177298D01*
Y178610D01*
X58137Y179266D01*
X60761Y180578D02*
X61417Y181234D01*
Y182546D01*
X60761Y183202D01*
X60105D01*
X59449Y182546D01*
Y181890D01*
Y182546D01*
X58793Y183202D01*
X58137D01*
X57481Y182546D01*
Y181234D01*
X58137Y180578D01*
X60761Y184514D02*
X61417Y185169D01*
Y186481D01*
X60761Y187137D01*
X58137D01*
X57481Y186481D01*
Y185169D01*
X58137Y184514D01*
X60761D01*
X94094Y147508D02*
X90814D01*
X90158Y148164D01*
Y149476D01*
X90814Y150131D01*
X94094D01*
X90158Y153411D02*
X94094D01*
X92126Y151443D01*
Y154067D01*
X69949Y194095D02*
Y197375D01*
X70605Y198031D01*
X71917D01*
X72572Y197375D01*
Y194095D01*
X73884Y194751D02*
X74540Y194095D01*
X75852D01*
X76508Y194751D01*
Y195407D01*
X75852Y196063D01*
X76508Y196719D01*
Y197375D01*
X75852Y198031D01*
X74540D01*
X73884Y197375D01*
Y196719D01*
X74540Y196063D01*
X73884Y195407D01*
Y194751D01*
X74540Y196063D02*
X75852D01*
X110827Y180051D02*
X114107D01*
X114763Y179395D01*
Y178084D01*
X114107Y177428D01*
X110827D01*
X111483Y176116D02*
X110827Y175460D01*
Y174148D01*
X111483Y173492D01*
X112139D01*
X112795Y174148D01*
Y174804D01*
Y174148D01*
X113451Y173492D01*
X114107D01*
X114763Y174148D01*
Y175460D01*
X114107Y176116D01*
X57217Y187007D02*
Y183728D01*
X56561Y183071D01*
X55249D01*
X54593Y183728D01*
Y187007D01*
X53281D02*
X50657D01*
Y186351D01*
X53281Y183728D01*
Y183071D01*
D12*
X135220Y78161D02*
Y72163D01*
X132221D01*
X131221Y73162D01*
Y77161D01*
X132221Y78161D01*
X135220D01*
X129222Y72163D02*
Y76161D01*
X127223Y78161D01*
X125223Y76161D01*
Y72163D01*
Y75162D01*
X129222D01*
X123224Y72163D02*
Y78161D01*
X119225Y72163D01*
Y78161D01*
X113227Y77161D02*
X114227Y78161D01*
X116226D01*
X117226Y77161D01*
Y73162D01*
X116226Y72163D01*
X114227D01*
X113227Y73162D01*
Y75162D01*
X115226D01*
X107229Y78161D02*
X111228D01*
Y72163D01*
X107229D01*
X111228Y75162D02*
X109228D01*
X105230Y72163D02*
Y78161D01*
X102231D01*
X101231Y77161D01*
Y75162D01*
X102231Y74162D01*
X105230D01*
X103230D02*
X101231Y72163D01*
X99232Y74162D02*
Y79160D01*
Y73162D02*
Y72163D01*
X91234Y78161D02*
Y72163D01*
Y75162D01*
X87235D01*
Y78161D01*
Y72163D01*
X85236Y78161D02*
X83237D01*
X84237D01*
Y72163D01*
X85236D01*
X83237D01*
X76239Y77161D02*
X77239Y78161D01*
X79238D01*
X80238Y77161D01*
Y73162D01*
X79238Y72163D01*
X77239D01*
X76239Y73162D01*
Y75162D01*
X78238D01*
X74240Y78161D02*
Y72163D01*
Y75162D01*
X70241D01*
Y78161D01*
Y72163D01*
X62244Y78161D02*
Y74162D01*
X60244Y72163D01*
X58245Y74162D01*
Y78161D01*
X53246D02*
X55246D01*
X56246Y77161D01*
Y73162D01*
X55246Y72163D01*
X53246D01*
X52247Y73162D01*
Y77161D01*
X53246Y78161D01*
X50248D02*
Y72163D01*
X46249D01*
X44249Y78161D02*
X40251D01*
X42250D01*
Y72163D01*
X38251D02*
Y76161D01*
X36252Y78161D01*
X34253Y76161D01*
Y72163D01*
Y75162D01*
X38251D01*
X28255Y77161D02*
X29254Y78161D01*
X31254D01*
X32253Y77161D01*
Y73162D01*
X31254Y72163D01*
X29254D01*
X28255Y73162D01*
Y75162D01*
X30254D01*
X22256Y78161D02*
X26255D01*
Y72163D01*
X22256D01*
X26255Y75162D02*
X24256D01*
X51647Y232016D02*
X52647Y233015D01*
X54646D01*
X55646Y232016D01*
Y228017D01*
X54646Y227017D01*
X52647D01*
X51647Y228017D01*
X45649Y227017D02*
X49648D01*
X45649Y231016D01*
Y232016D01*
X46649Y233015D01*
X48648D01*
X49648Y232016D01*
X43650Y228017D02*
X42650Y227017D01*
X40651D01*
X39651Y228017D01*
Y232016D01*
X40651Y233015D01*
X42650D01*
X43650Y232016D01*
Y231016D01*
X42650Y230016D01*
X39651D01*
M02*
